<?xml version="1.0" encoding="utf-8" standalone="no"?>
<!DOCTYPE svg PUBLIC "-//W3C//DTD SVG 1.1//EN"
  "http://www.w3.org/Graphics/SVG/1.1/DTD/svg11.dtd">
<svg xmlns:xlink="http://www.w3.org/1999/xlink" width="495.36pt" height="309.6pt" viewBox="0 0 495.36 309.6" xmlns="http://www.w3.org/2000/svg" version="1.1">
 <metadata>
  <rdf:RDF xmlns:dc="http://purl.org/dc/elements/1.1/" xmlns:cc="http://creativecommons.org/ns#" xmlns:rdf="http://www.w3.org/1999/02/22-rdf-syntax-ns#">
   <cc:Work>
    <dc:type rdf:resource="http://purl.org/dc/dcmitype/StillImage"/>
    <dc:format>image/svg+xml</dc:format>
   </cc:Work>
  </rdf:RDF>
 </metadata>
 <defs>
  <style type="text/css">*{stroke-linejoin: round; stroke-linecap: butt}</style>
 </defs>
 <g id="figure_1">
  <g id="patch_1">
   <path d="M 0 309.6 
L 495.36 309.6 
L 495.36 0 
L 0 0 
L 0 309.6 
z
" style="fill: none; opacity: 0"/>
  </g>
  <g id="axes_1">
   <g id="patch_2">
    <path d="M 49.43524 248.67928 
L 485.460932 248.67928 
L 485.460932 22.574459 
L 49.43524 22.574459 
L 49.43524 248.67928 
z
" style="fill: none"/>
   </g>
   <g id="matplotlib.axis_1">
    <g id="xtick_1">
     <g id="line2d_1">
      <path d="M 49.43524 248.67928 
L 49.43524 22.574459 
" clip-path="url(#p77db5d0b78)" style="fill: none; stroke: #e9e3e0; stroke-width: 0.8; stroke-linecap: square"/>
     </g>
     <g id="line2d_2">
      <defs>
       <path id="ma0b750aba8" d="M 0 0 
L 0 3 
" style="stroke: #5f5552; stroke-width: 0.8"/>
      </defs>
      <g>
       <use xlink:href="#ma0b750aba8" x="49.43524" y="248.67928" style="fill: #5f5552; stroke: #5f5552; stroke-width: 0.8"/>
      </g>
     </g>
     <g id="text_1">
      <!-- 0 -->
      <g style="fill: #5f5552" transform="translate(45.985826 263.221624) scale(0.105 -0.105)">
       <defs>
        <path id="HiraginoSansGB-W3-30" d="M 2099 -58 
C 2688 -58 3136 166 3456 614 
C 3738 1005 3904 1690 3904 2464 
C 3904 2995 3821 3507 3661 3949 
C 3584 4160 3456 4358 3277 4538 
C 2989 4838 2579 4992 2106 4992 
C 1472 4992 979 4723 672 4205 
C 448 3834 301 3142 301 2464 
C 301 1939 384 1434 544 986 
C 621 768 755 570 928 397 
C 1229 96 1626 -58 2099 -58 
z
M 2099 4550 
C 2547 4550 2893 4352 3104 3968 
C 3270 3667 3392 3034 3392 2477 
C 3392 2003 3328 1581 3194 1184 
C 3136 998 3034 832 2893 685 
C 2701 486 2426 384 2106 384 
C 1670 384 1338 570 1114 941 
C 941 1242 813 1869 813 2464 
C 813 2931 877 3366 1011 3757 
C 1062 3917 1165 4077 1299 4224 
C 1504 4442 1766 4550 2099 4550 
z
" transform="scale(0.015625)"/>
       </defs>
       <use xlink:href="#HiraginoSansGB-W3-30"/>
      </g>
     </g>
    </g>
    <g id="xtick_2">
     <g id="line2d_3">
      <path d="M 122.106189 248.67928 
L 122.106189 22.574459 
" clip-path="url(#p77db5d0b78)" style="fill: none; stroke: #e9e3e0; stroke-width: 0.8; stroke-linecap: square"/>
     </g>
     <g id="line2d_4">
      <g>
       <use xlink:href="#ma0b750aba8" x="122.106189" y="248.67928" style="fill: #5f5552; stroke: #5f5552; stroke-width: 0.8"/>
      </g>
     </g>
     <g id="text_2">
      <!-- 5 -->
      <g style="fill: #5f5552" transform="translate(118.656775 263.221624) scale(0.105 -0.105)">
       <defs>
        <path id="HiraginoSansGB-W3-35" d="M 1261 4461 
L 2765 4461 
C 3066 4461 3270 4448 3514 4410 
L 3514 4954 
C 3258 4915 3110 4902 2765 4902 
L 1446 4902 
C 1069 4902 966 4909 768 4934 
C 781 4774 781 4749 781 4659 
C 781 4538 774 4461 762 4275 
L 621 2829 
C 595 2554 576 2419 525 2170 
L 1005 2125 
C 1075 2298 1146 2387 1299 2509 
C 1530 2688 1811 2778 2138 2778 
C 2816 2778 3258 2317 3258 1613 
C 3258 877 2778 390 2061 390 
C 1690 390 1370 525 1152 768 
C 1056 877 1011 960 947 1139 
L 422 986 
C 576 678 666 544 826 384 
C 1133 96 1549 -51 2048 -51 
C 3104 -51 3776 608 3776 1638 
C 3776 2112 3635 2490 3347 2765 
C 3059 3046 2662 3200 2195 3200 
C 1754 3200 1382 3053 1075 2758 
C 1114 2931 1114 2931 1126 3046 
L 1261 4461 
z
" transform="scale(0.015625)"/>
       </defs>
       <use xlink:href="#HiraginoSansGB-W3-35"/>
      </g>
     </g>
    </g>
    <g id="xtick_3">
     <g id="line2d_5">
      <path d="M 194.777137 248.67928 
L 194.777137 22.574459 
" clip-path="url(#p77db5d0b78)" style="fill: none; stroke: #e9e3e0; stroke-width: 0.8; stroke-linecap: square"/>
     </g>
     <g id="line2d_6">
      <g>
       <use xlink:href="#ma0b750aba8" x="194.777137" y="248.67928" style="fill: #5f5552; stroke: #5f5552; stroke-width: 0.8"/>
      </g>
     </g>
     <g id="text_3">
      <!-- 10 -->
      <g style="fill: #5f5552" transform="translate(187.878309 263.221624) scale(0.105 -0.105)">
       <defs>
        <path id="HiraginoSansGB-W3-31" d="M 1030 4429 
C 1216 4454 1382 4467 1587 4467 
L 1933 4467 
L 1933 762 
C 1933 467 1920 262 1882 38 
L 2490 38 
C 2451 275 2438 461 2438 762 
L 2438 3872 
C 2438 4218 2458 4544 2496 4934 
C 2285 4909 2182 4902 1965 4902 
L 1562 4902 
C 1318 4902 1197 4909 1030 4934 
L 1030 4429 
z
" transform="scale(0.015625)"/>
       </defs>
       <use xlink:href="#HiraginoSansGB-W3-31"/>
       <use xlink:href="#HiraginoSansGB-W3-30" x="65.699997"/>
      </g>
     </g>
    </g>
    <g id="xtick_4">
     <g id="line2d_7">
      <path d="M 267.448086 248.67928 
L 267.448086 22.574459 
" clip-path="url(#p77db5d0b78)" style="fill: none; stroke: #e9e3e0; stroke-width: 0.8; stroke-linecap: square"/>
     </g>
     <g id="line2d_8">
      <g>
       <use xlink:href="#ma0b750aba8" x="267.448086" y="248.67928" style="fill: #5f5552; stroke: #5f5552; stroke-width: 0.8"/>
      </g>
     </g>
     <g id="text_4">
      <!-- 15 -->
      <g style="fill: #5f5552" transform="translate(260.549258 263.221624) scale(0.105 -0.105)">
       <use xlink:href="#HiraginoSansGB-W3-31"/>
       <use xlink:href="#HiraginoSansGB-W3-35" x="65.699997"/>
      </g>
     </g>
    </g>
    <g id="xtick_5">
     <g id="line2d_9">
      <path d="M 340.119035 248.67928 
L 340.119035 22.574459 
" clip-path="url(#p77db5d0b78)" style="fill: none; stroke: #e9e3e0; stroke-width: 0.8; stroke-linecap: square"/>
     </g>
     <g id="line2d_10">
      <g>
       <use xlink:href="#ma0b750aba8" x="340.119035" y="248.67928" style="fill: #5f5552; stroke: #5f5552; stroke-width: 0.8"/>
      </g>
     </g>
     <g id="text_5">
      <!-- 20 -->
      <g style="fill: #5f5552" transform="translate(333.220206 263.221624) scale(0.105 -0.105)">
       <defs>
        <path id="HiraginoSansGB-W3-32" d="M 3027 38 
C 3347 38 3558 26 3814 0 
L 3814 538 
C 3571 506 3354 493 3034 493 
L 992 493 
C 1069 800 1158 973 1357 1235 
C 1568 1504 1773 1683 2278 2022 
C 3008 2509 3174 2630 3366 2848 
C 3616 3123 3744 3430 3744 3757 
C 3744 4512 3123 4998 2157 4998 
C 1594 4998 1158 4832 870 4506 
C 659 4269 563 4045 467 3584 
L 1005 3494 
C 1050 3814 1107 3968 1229 4141 
C 1421 4416 1734 4557 2157 4557 
C 2810 4557 3219 4243 3219 3757 
C 3219 3366 3008 3085 2374 2656 
C 1632 2150 1619 2144 1395 1952 
C 992 1606 723 1254 563 851 
C 467 608 448 512 378 6 
C 582 32 678 38 1082 38 
L 3027 38 
z
" transform="scale(0.015625)"/>
       </defs>
       <use xlink:href="#HiraginoSansGB-W3-32"/>
       <use xlink:href="#HiraginoSansGB-W3-30" x="65.699997"/>
      </g>
     </g>
    </g>
    <g id="xtick_6">
     <g id="line2d_11">
      <path d="M 412.789983 248.67928 
L 412.789983 22.574459 
" clip-path="url(#p77db5d0b78)" style="fill: none; stroke: #e9e3e0; stroke-width: 0.8; stroke-linecap: square"/>
     </g>
     <g id="line2d_12">
      <g>
       <use xlink:href="#ma0b750aba8" x="412.789983" y="248.67928" style="fill: #5f5552; stroke: #5f5552; stroke-width: 0.8"/>
      </g>
     </g>
     <g id="text_6">
      <!-- 25 -->
      <g style="fill: #5f5552" transform="translate(405.891155 263.221624) scale(0.105 -0.105)">
       <use xlink:href="#HiraginoSansGB-W3-32"/>
       <use xlink:href="#HiraginoSansGB-W3-35" x="65.699997"/>
      </g>
     </g>
    </g>
    <g id="xtick_7">
     <g id="line2d_13">
      <path d="M 485.460932 248.67928 
L 485.460932 22.574459 
" clip-path="url(#p77db5d0b78)" style="fill: none; stroke: #e9e3e0; stroke-width: 0.8; stroke-linecap: square"/>
     </g>
     <g id="line2d_14">
      <g>
       <use xlink:href="#ma0b750aba8" x="485.460932" y="248.67928" style="fill: #5f5552; stroke: #5f5552; stroke-width: 0.8"/>
      </g>
     </g>
     <g id="text_7">
      <!-- 30 -->
      <g style="fill: #5f5552" transform="translate(478.562104 263.221624) scale(0.105 -0.105)">
       <defs>
        <path id="HiraginoSansGB-W3-33" d="M 288 1088 
C 403 762 480 621 614 467 
C 922 122 1402 -58 2048 -58 
C 3117 -58 3782 480 3782 1344 
C 3782 1754 3635 2093 3354 2310 
C 3136 2477 2938 2547 2566 2586 
C 2861 2643 3002 2694 3168 2816 
C 3450 3014 3616 3360 3616 3750 
C 3616 4518 3027 5005 2099 5005 
C 1542 5005 1107 4845 826 4538 
C 666 4371 589 4224 480 3898 
L 1011 3782 
C 1082 4019 1126 4122 1216 4237 
C 1395 4467 1677 4576 2067 4576 
C 2714 4576 3098 4256 3098 3706 
C 3098 3475 3002 3238 2842 3085 
C 2643 2886 2330 2790 1907 2790 
C 1734 2790 1581 2803 1434 2829 
L 1434 2323 
C 1606 2342 1766 2355 1946 2355 
C 2797 2355 3251 2010 3251 1376 
C 3251 768 2784 384 2042 384 
C 1715 384 1434 461 1216 614 
C 1018 755 928 890 826 1222 
L 288 1088 
z
" transform="scale(0.015625)"/>
       </defs>
       <use xlink:href="#HiraginoSansGB-W3-33"/>
       <use xlink:href="#HiraginoSansGB-W3-30" x="65.699997"/>
      </g>
     </g>
    </g>
    <g id="text_8">
     <!-- 每支路平均 $E_b/N_0$（dB） -->
     <g style="fill: #2b2321" transform="translate(201.208086 279.13928) scale(0.115 -0.115)">
      <defs>
       <path id="HiraginoSansGB-W3-6bcf" d="M 5094 4333 
C 5440 4333 5651 4320 5901 4294 
L 5901 4749 
C 5677 4717 5466 4704 5094 4704 
L 1888 4704 
C 1914 4755 1933 4781 1958 4832 
C 2118 5152 2144 5197 2221 5325 
L 1773 5440 
C 1741 5318 1683 5184 1594 4992 
C 1267 4339 858 3853 275 3430 
C 397 3322 467 3238 557 3085 
C 1030 3488 1357 3853 1664 4333 
L 5094 4333 
z
M 2752 3104 
C 3098 2790 3142 2746 3424 2374 
L 3731 2624 
C 3462 2944 3386 3021 3046 3315 
L 2752 3104 
z
M 2662 1581 
C 2944 1338 3104 1146 3334 813 
L 3642 1075 
C 3398 1382 3213 1581 2957 1811 
L 2662 1581 
z
M 4966 717 
C 5024 1088 5082 1555 5114 1920 
L 5491 1920 
C 5766 1920 5920 1914 6086 1888 
L 6086 2323 
C 5939 2298 5779 2291 5491 2291 
L 5139 2291 
C 5165 2650 5184 2982 5203 3309 
C 5216 3571 5222 3622 5242 3770 
C 5088 3750 4934 3744 4717 3744 
L 1952 3744 
C 1779 3744 1645 3750 1536 3763 
C 1523 3763 1498 3770 1466 3770 
C 1478 3699 1478 3674 1478 3616 
C 1478 3328 1414 2701 1350 2291 
L 941 2291 
C 627 2291 467 2298 307 2330 
L 307 1882 
C 461 1914 614 1920 922 1920 
L 1280 1920 
C 1120 1158 1024 781 851 326 
C 941 333 941 333 1216 346 
L 4474 346 
C 4435 166 4429 147 4403 83 
C 4358 -19 4262 -64 4102 -64 
C 3910 -64 3718 -45 3366 13 
C 3418 -154 3437 -256 3443 -422 
C 3738 -454 3891 -461 4077 -461 
C 4410 -461 4550 -422 4666 -294 
C 4768 -186 4819 -38 4896 346 
L 5152 346 
C 5440 346 5581 339 5747 314 
L 5747 749 
C 5600 723 5453 717 5165 717 
L 4966 717 
z
M 1382 717 
C 1510 1146 1626 1600 1690 1920 
L 4698 1920 
C 4621 1152 4621 1152 4550 717 
L 1382 717 
z
M 1760 2291 
C 1805 2611 1818 2714 1894 3373 
L 4787 3379 
C 4762 2810 4755 2688 4730 2291 
L 1760 2291 
z
" transform="scale(0.015625)"/>
       <path id="HiraginoSansGB-W3-652f" d="M 3392 4378 
L 3392 4768 
C 3392 5030 3405 5171 3437 5325 
L 2931 5325 
C 2963 5152 2976 5024 2976 4768 
L 2976 4378 
L 1165 4378 
C 896 4378 685 4390 493 4422 
L 493 3962 
C 678 3987 890 4000 1158 4000 
L 2976 4000 
L 2976 2970 
L 1638 2970 
C 1338 2970 1120 2982 954 3008 
L 954 2573 
C 1152 2598 1350 2611 1632 2611 
L 1715 2611 
C 1907 2195 1997 2042 2202 1773 
C 2413 1491 2650 1242 2938 1005 
C 2240 525 1402 198 422 26 
C 531 -115 589 -211 653 -378 
C 1677 -154 2477 192 3264 749 
C 4006 211 4768 -128 5850 -403 
C 5920 -218 5971 -134 6093 26 
C 5037 243 4301 531 3597 998 
C 4122 1434 4544 1907 4870 2413 
C 4973 2573 5018 2637 5094 2726 
L 4819 3002 
C 4691 2976 4538 2970 4256 2970 
L 3392 2970 
L 3392 4000 
L 5306 4000 
C 5581 4000 5792 3987 5978 3962 
L 5978 4422 
C 5786 4390 5574 4378 5306 4378 
L 3392 4378 
z
M 4506 2611 
C 4134 2029 3821 1677 3258 1235 
C 2714 1677 2432 2022 2157 2611 
L 4506 2611 
z
" transform="scale(0.015625)"/>
       <path id="HiraginoSansGB-W3-8def" d="M 1926 1856 
L 2170 1856 
C 2349 1856 2483 1850 2624 1830 
L 2624 2234 
C 2515 2208 2413 2202 2176 2202 
L 1926 2202 
L 1926 3162 
L 2106 3162 
C 2547 3155 2547 3155 2675 3142 
C 2656 3264 2656 3392 2656 3686 
L 2656 4518 
C 2656 4813 2662 4973 2682 5146 
C 2509 5120 2323 5114 2061 5114 
L 1267 5114 
C 1018 5114 819 5126 653 5146 
C 672 4960 678 4781 678 4518 
L 678 3731 
C 678 3482 672 3309 653 3136 
C 794 3155 973 3162 1242 3162 
L 1555 3162 
L 1555 422 
C 1382 378 1203 339 1088 314 
L 1088 1862 
C 1088 2240 1094 2381 1120 2522 
L 685 2522 
C 710 2342 723 2176 723 1850 
L 723 230 
C 525 198 378 173 282 173 
L 403 -262 
C 518 -224 589 -205 672 -179 
C 1702 77 1965 154 2816 435 
L 2803 806 
C 2406 659 2278 621 1926 525 
L 1926 1856 
z
M 1062 4762 
L 2278 4762 
L 2278 3501 
L 1062 3501 
L 1062 4762 
z
M 5606 4787 
C 5478 4762 5325 4755 5005 4755 
L 4090 4755 
C 4109 4794 4192 4973 4346 5286 
L 3942 5395 
C 3776 4774 3302 4102 2682 3603 
C 2803 3520 2854 3462 2950 3315 
C 3258 3597 3411 3757 3558 3949 
C 3789 3552 3974 3296 4237 3008 
C 3776 2598 3392 2349 2669 1990 
C 2784 1869 2816 1818 2899 1651 
C 3059 1741 3085 1754 3232 1837 
C 3245 1696 3251 1587 3251 1286 
L 3251 128 
C 3251 -198 3238 -371 3219 -525 
L 3642 -525 
L 3642 -186 
L 5248 -186 
L 5248 -525 
L 5677 -525 
C 5651 -371 5645 -192 5645 147 
L 5645 1286 
C 5645 1606 5645 1709 5664 1843 
C 5517 1830 5414 1830 5139 1830 
L 3744 1830 
C 3520 1830 3373 1830 3296 1837 
C 3264 1843 3264 1843 3238 1843 
C 3770 2150 4192 2458 4506 2746 
C 4960 2342 5370 2080 6099 1728 
C 6157 1888 6221 2010 6304 2125 
C 5645 2394 5184 2656 4768 3008 
C 5139 3398 5344 3686 5683 4275 
C 5754 4397 5779 4435 5843 4531 
L 5606 4787 
z
M 5312 4416 
C 5050 3923 4832 3610 4493 3258 
C 4230 3514 3962 3898 3789 4256 
C 3846 4352 3853 4358 3891 4416 
L 5312 4416 
z
M 3642 1478 
L 5248 1478 
L 5248 166 
L 3642 166 
L 3642 1478 
z
" transform="scale(0.015625)"/>
       <path id="HiraginoSansGB-W3-5e73" d="M 3386 4710 
L 5133 4710 
C 5414 4710 5606 4698 5805 4672 
L 5805 5133 
C 5613 5107 5421 5094 5126 5094 
L 1293 5094 
C 998 5094 800 5107 614 5133 
L 614 4672 
C 813 4698 1005 4710 1286 4710 
L 2950 4710 
L 2950 2336 
L 1037 2336 
C 710 2336 518 2349 339 2381 
L 339 1901 
C 512 1933 717 1946 1043 1946 
L 2950 1946 
L 2950 179 
C 2950 -64 2938 -288 2906 -518 
L 3430 -518 
C 3398 -294 3386 -58 3386 179 
L 3386 1946 
L 5363 1946 
C 5696 1946 5894 1933 6061 1901 
L 6061 2381 
C 5894 2349 5690 2336 5376 2336 
L 3386 2336 
L 3386 4710 
z
M 1024 4230 
C 1370 3699 1555 3322 1811 2637 
L 2214 2842 
C 1939 3488 1747 3859 1389 4403 
L 1024 4230 
z
M 4966 4410 
C 4704 3674 4506 3309 4064 2752 
L 4448 2560 
C 4883 3162 5082 3520 5357 4224 
L 4966 4410 
z
" transform="scale(0.015625)"/>
       <path id="HiraginoSansGB-W3-5747" d="M 1146 3578 
L 864 3578 
C 595 3578 467 3584 307 3616 
L 307 3174 
C 467 3206 595 3213 864 3213 
L 1146 3213 
L 1146 1139 
C 691 966 429 877 262 851 
L 384 429 
C 474 467 589 512 704 557 
C 1485 864 1760 992 2342 1312 
L 2323 1715 
C 1984 1523 1882 1466 1549 1312 
L 1549 3213 
L 1683 3213 
C 1914 3213 2054 3206 2195 3187 
L 2195 3610 
C 2074 3584 1946 3578 1690 3578 
L 1549 3578 
L 1549 4653 
C 1549 4915 1555 5069 1587 5261 
L 1107 5261 
C 1133 5062 1146 4902 1146 4640 
L 1146 3578 
z
M 5434 3955 
C 5427 2074 5357 1114 5197 474 
C 5114 141 5024 58 4774 58 
C 4557 58 4218 96 3866 166 
C 3942 -19 3968 -122 3981 -282 
C 4358 -320 4525 -333 4723 -333 
C 5011 -333 5165 -301 5280 -230 
C 5446 -115 5562 173 5664 742 
C 5786 1466 5843 2458 5843 3859 
C 5843 4122 5850 4237 5869 4365 
C 5754 4352 5754 4352 5293 4339 
L 3386 4339 
C 3501 4627 3546 4742 3616 4973 
C 3667 5114 3680 5165 3712 5235 
L 3270 5350 
C 3226 5037 3091 4621 2906 4211 
C 2675 3712 2464 3418 2067 3014 
C 2202 2931 2227 2912 2323 2797 
C 2330 2778 2349 2758 2374 2726 
C 2758 3149 2970 3462 3213 3955 
L 5434 3955 
z
M 4922 2048 
C 4301 1664 3776 1414 3066 1158 
C 2867 1088 2771 1062 2611 1030 
L 2778 582 
C 2848 621 2899 640 3066 710 
C 3936 1069 4314 1248 4998 1626 
L 4922 2048 
z
M 4608 2451 
C 4122 2746 3866 2874 3104 3200 
L 2867 2893 
C 3731 2509 3930 2400 4384 2093 
L 4608 2451 
z
" transform="scale(0.015625)"/>
       <path id="HiraginoSansGB-W3-20" transform="scale(0.015625)"/>
       <path id="Cmmi10-45" d="M 300 0 
Q 238 0 238 84 
Q 241 100 250 139 
Q 259 178 276 201 
Q 294 225 319 225 
Q 709 225 863 269 
Q 947 297 984 441 
L 1863 3956 
Q 1875 4019 1875 4044 
Q 1875 4113 1797 4122 
Q 1678 4147 1338 4147 
Q 1275 4147 1275 4231 
Q 1278 4247 1287 4286 
Q 1297 4325 1314 4348 
Q 1331 4372 1356 4372 
L 4825 4372 
Q 4891 4372 4891 4288 
L 4738 2963 
Q 4738 2947 4714 2926 
Q 4691 2906 4672 2906 
L 4616 2906 
Q 4550 2906 4550 2988 
Q 4588 3300 4588 3450 
Q 4588 3706 4500 3848 
Q 4413 3991 4267 4053 
Q 4122 4116 3945 4131 
Q 3769 4147 3481 4147 
L 2753 4147 
Q 2578 4147 2522 4117 
Q 2466 4088 2419 3928 
L 2034 2381 
L 2534 2381 
Q 2859 2381 3025 2426 
Q 3191 2472 3287 2615 
Q 3384 2759 3463 3072 
Q 3469 3094 3486 3111 
Q 3503 3128 3525 3128 
L 3584 3128 
Q 3647 3128 3647 3047 
L 3250 1466 
Q 3238 1409 3188 1409 
L 3128 1409 
Q 3066 1409 3066 1491 
Q 3128 1747 3128 1869 
Q 3128 2056 2959 2106 
Q 2791 2156 2509 2156 
L 1978 2156 
L 1544 416 
Q 1516 338 1516 275 
Q 1516 225 1734 225 
L 2509 225 
Q 2972 225 3259 297 
Q 3547 369 3736 526 
Q 3925 684 4062 928 
Q 4200 1172 4397 1638 
Q 4409 1678 4453 1678 
L 4513 1678 
Q 4538 1678 4556 1656 
Q 4575 1634 4575 1606 
Q 4575 1594 4569 1581 
L 3909 38 
Q 3897 0 3859 0 
L 300 0 
z
" transform="scale(0.015625)"/>
       <path id="Cmmi10-62" d="M 1106 -72 
Q 719 -72 503 231 
Q 288 534 288 941 
Q 288 1000 317 1173 
Q 347 1347 347 1388 
L 966 3872 
Q 991 3981 997 4044 
Q 997 4147 581 4147 
Q 519 4147 519 4231 
Q 522 4247 533 4287 
Q 544 4328 561 4350 
Q 578 4372 609 4372 
L 1472 4441 
Q 1550 4441 1550 4359 
L 1075 2472 
Q 1438 2828 1806 2828 
Q 2078 2828 2273 2684 
Q 2469 2541 2566 2306 
Q 2663 2072 2663 1806 
Q 2663 1497 2542 1167 
Q 2422 838 2209 555 
Q 1997 272 1712 100 
Q 1428 -72 1106 -72 
z
M 1119 97 
Q 1338 97 1528 280 
Q 1719 463 1838 691 
Q 1966 947 2077 1386 
Q 2188 1825 2188 2088 
Q 2188 2316 2092 2489 
Q 1997 2663 1791 2663 
Q 1559 2663 1348 2492 
Q 1138 2322 978 2088 
L 800 1363 
Q 697 959 691 716 
Q 691 475 795 286 
Q 900 97 1119 97 
z
" transform="scale(0.015625)"/>
       <path id="Cmmi10-3d" d="M 359 -1472 
Q 359 -1453 366 -1447 
L 2591 4722 
Q 2603 4759 2634 4779 
Q 2666 4800 2706 4800 
Q 2763 4800 2798 4765 
Q 2834 4731 2834 4672 
L 2834 4647 
L 609 -1522 
Q 572 -1600 488 -1600 
Q 434 -1600 396 -1562 
Q 359 -1525 359 -1472 
z
" transform="scale(0.015625)"/>
       <path id="Cmmi10-4e" d="M 300 0 
Q 238 0 238 84 
Q 241 100 250 139 
Q 259 178 276 201 
Q 294 225 319 225 
Q 931 225 1031 616 
L 1900 4116 
Q 1722 4147 1338 4147 
Q 1275 4147 1275 4231 
Q 1278 4247 1287 4286 
Q 1297 4325 1314 4348 
Q 1331 4372 1356 4372 
L 2463 4372 
Q 2509 4372 2522 4331 
L 3944 947 
L 4653 3781 
Q 4666 3850 4666 3878 
Q 4666 4147 4172 4147 
Q 4109 4147 4109 4231 
Q 4131 4313 4143 4342 
Q 4156 4372 4219 4372 
L 5588 4372 
Q 5650 4372 5650 4288 
Q 5647 4272 5637 4233 
Q 5628 4194 5611 4170 
Q 5594 4147 5569 4147 
Q 4956 4147 4856 3756 
L 3938 56 
Q 3916 0 3872 0 
L 3794 0 
Q 3750 0 3738 44 
L 2106 3916 
L 2094 3956 
Q 2081 3969 2081 3975 
L 1234 588 
Q 1228 572 1225 548 
Q 1222 525 1216 494 
Q 1216 328 1359 276 
Q 1503 225 1716 225 
Q 1778 225 1778 141 
Q 1756 53 1740 26 
Q 1725 0 1672 0 
L 300 0 
z
" transform="scale(0.015625)"/>
       <path id="Cmr10-30" d="M 1600 -141 
Q 816 -141 533 504 
Q 250 1150 250 2041 
Q 250 2597 351 3087 
Q 453 3578 754 3920 
Q 1056 4263 1600 4263 
Q 2022 4263 2290 4056 
Q 2559 3850 2700 3523 
Q 2841 3197 2892 2823 
Q 2944 2450 2944 2041 
Q 2944 1491 2842 1011 
Q 2741 531 2444 195 
Q 2147 -141 1600 -141 
z
M 1600 25 
Q 1956 25 2131 390 
Q 2306 756 2347 1200 
Q 2388 1644 2388 2144 
Q 2388 2625 2347 3031 
Q 2306 3438 2132 3767 
Q 1959 4097 1600 4097 
Q 1238 4097 1063 3765 
Q 888 3434 847 3029 
Q 806 2625 806 2144 
Q 806 1788 823 1472 
Q 841 1156 916 820 
Q 991 484 1158 254 
Q 1325 25 1600 25 
z
" transform="scale(0.015625)"/>
       <path id="HiraginoSansGB-W3-ff08" d="M 6157 -518 
C 5619 26 5408 314 5184 806 
C 4954 1318 4838 1850 4838 2432 
C 4838 3014 4954 3546 5184 4058 
C 5408 4550 5619 4838 6157 5382 
L 5587 5382 
C 5107 4832 4909 4525 4698 4006 
C 4486 3494 4390 2989 4390 2432 
C 4390 1875 4486 1370 4698 858 
C 4909 339 5107 32 5587 -518 
L 6157 -518 
z
" transform="scale(0.015625)"/>
       <path id="HiraginoSansGB-W3-64" d="M 3162 38 
L 3674 38 
C 3642 288 3629 454 3629 774 
L 3629 4179 
C 3629 4461 3642 4646 3674 4902 
L 3110 4902 
C 3142 4659 3155 4474 3155 4173 
L 3155 3315 
C 3155 3168 3155 3110 3174 2976 
L 3181 2880 
C 2899 3322 2451 3558 1869 3558 
C 909 3558 294 2861 294 1766 
C 294 653 896 -26 1882 -26 
C 2464 -26 2880 198 3181 666 
C 3168 557 3162 442 3162 352 
L 3162 38 
z
M 1920 3142 
C 2259 3142 2566 3021 2790 2803 
C 3021 2579 3149 2208 3149 1786 
C 3149 941 2669 397 1920 397 
C 1562 397 1261 531 1062 781 
C 896 992 800 1357 800 1779 
C 800 2630 1222 3142 1920 3142 
z
" transform="scale(0.015625)"/>
       <path id="HiraginoSansGB-W3-42" d="M 2630 38 
C 3610 38 4173 525 4173 1382 
C 4173 1792 4038 2118 3776 2342 
C 3603 2490 3450 2554 3155 2611 
C 3411 2694 3526 2752 3661 2867 
C 3891 3072 4006 3354 4006 3725 
C 4006 4480 3488 4902 2560 4902 
L 1197 4902 
C 826 4902 698 4902 499 4915 
C 538 4685 550 4512 550 4237 
L 550 813 
C 550 442 538 275 493 19 
C 717 32 915 38 1197 38 
L 2630 38 
z
M 1043 2816 
L 1043 4467 
L 2547 4467 
C 3181 4467 3501 4198 3501 3667 
C 3501 3130 3149 2816 2554 2816 
L 1043 2816 
z
M 1043 2381 
L 2573 2381 
C 3283 2381 3654 2054 3654 1421 
C 3654 806 3283 474 2586 474 
L 1043 474 
L 1043 2381 
z
" transform="scale(0.015625)"/>
       <path id="HiraginoSansGB-W3-ff09" d="M 813 -518 
C 1293 32 1491 339 1702 858 
C 1914 1370 2010 1875 2010 2432 
C 2010 2989 1914 3494 1702 4006 
C 1491 4525 1293 4832 813 5382 
L 243 5382 
C 781 4845 992 4550 1216 4058 
C 1446 3546 1562 3014 1562 2432 
C 1562 1850 1446 1318 1216 806 
C 992 314 781 19 243 -518 
L 813 -518 
z
" transform="scale(0.015625)"/>
      </defs>
      <use xlink:href="#HiraginoSansGB-W3-6bcf"/>
      <use xlink:href="#HiraginoSansGB-W3-652f" transform="translate(99.999985 0)"/>
      <use xlink:href="#HiraginoSansGB-W3-8def" transform="translate(199.999969 0)"/>
      <use xlink:href="#HiraginoSansGB-W3-5e73" transform="translate(299.999954 0)"/>
      <use xlink:href="#HiraginoSansGB-W3-5747" transform="translate(399.999939 0)"/>
      <use xlink:href="#HiraginoSansGB-W3-20" transform="translate(499.999924 0)"/>
      <use xlink:href="#Cmmi10-45" transform="translate(533.299911 0)"/>
      <use xlink:href="#Cmmi10-62" transform="translate(607.079208 -17.00625) scale(0.7)"/>
      <use xlink:href="#Cmmi10-3d" transform="translate(643.500497 0)"/>
      <use xlink:href="#Cmmi10-4e" transform="translate(693.500497 0)"/>
      <use xlink:href="#Cmr10-30" transform="translate(773.822763 -17.00625) scale(0.7)"/>
      <use xlink:href="#HiraginoSansGB-W3-ff08" transform="translate(815.200107 0)"/>
      <use xlink:href="#HiraginoSansGB-W3-64" transform="translate(915.200092 0)"/>
      <use xlink:href="#HiraginoSansGB-W3-42" transform="translate(979.800082 0)"/>
      <use xlink:href="#HiraginoSansGB-W3-ff09" transform="translate(1051.000064 0)"/>
     </g>
    </g>
   </g>
   <g id="matplotlib.axis_2">
    <g id="ytick_1">
     <g id="line2d_15">
      <path d="M 49.43524 248.67928 
L 485.460932 248.67928 
" clip-path="url(#p77db5d0b78)" style="fill: none; stroke: #e9e3e0; stroke-width: 0.8; stroke-linecap: square"/>
     </g>
     <g id="line2d_16">
      <defs>
       <path id="m88843fa882" d="M 0 0 
L -3 0 
" style="stroke: #5f5552; stroke-width: 0.8"/>
      </defs>
      <g>
       <use xlink:href="#m88843fa882" x="49.43524" y="248.67928" style="fill: #5f5552; stroke: #5f5552; stroke-width: 0.8"/>
      </g>
     </g>
     <g id="text_9">
      <!-- $10^{-10}$ -->
      <g style="fill: #5f5552" transform="translate(18.15524 252.700452) scale(0.105 -0.105)">
       <defs>
        <path id="Cmr10-31" d="M 594 0 
L 594 225 
Q 1394 225 1394 428 
L 1394 3788 
Q 1063 3628 556 3628 
L 556 3853 
Q 1341 3853 1741 4263 
L 1831 4263 
Q 1853 4263 1873 4245 
Q 1894 4228 1894 4206 
L 1894 428 
Q 1894 225 2694 225 
L 2694 0 
L 594 0 
z
" transform="scale(0.015625)"/>
        <path id="Cmsy10-a1" d="M 653 1472 
Q 600 1472 565 1512 
Q 531 1553 531 1600 
Q 531 1647 565 1687 
Q 600 1728 653 1728 
L 4325 1728 
Q 4375 1728 4408 1687 
Q 4441 1647 4441 1600 
Q 4441 1553 4408 1512 
Q 4375 1472 4325 1472 
L 653 1472 
z
" transform="scale(0.015625)"/>
       </defs>
       <use xlink:href="#Cmr10-31" transform="translate(0 0.109375)"/>
       <use xlink:href="#Cmr10-30" transform="translate(50 0.109375)"/>
       <use xlink:href="#Cmsy10-a1" transform="translate(104.464141 38.373438) scale(0.7)"/>
       <use xlink:href="#Cmr10-31" transform="translate(158.844023 38.373438) scale(0.7)"/>
       <use xlink:href="#Cmr10-30" transform="translate(193.844023 38.373438) scale(0.7)"/>
      </g>
     </g>
    </g>
    <g id="ytick_2">
     <g id="line2d_17">
      <path d="M 49.43524 203.458316 
L 485.460932 203.458316 
" clip-path="url(#p77db5d0b78)" style="fill: none; stroke: #e9e3e0; stroke-width: 0.8; stroke-linecap: square"/>
     </g>
     <g id="line2d_18">
      <g>
       <use xlink:href="#m88843fa882" x="49.43524" y="203.458316" style="fill: #5f5552; stroke: #5f5552; stroke-width: 0.8"/>
      </g>
     </g>
     <g id="text_10">
      <!-- $10^{-8}$ -->
      <g style="fill: #5f5552" transform="translate(21.83024 207.479488) scale(0.105 -0.105)">
       <defs>
        <path id="Cmr10-38" d="M 269 972 
Q 269 1356 522 1651 
Q 775 1947 1172 2144 
L 934 2297 
Q 716 2441 578 2680 
Q 441 2919 441 3181 
Q 441 3488 602 3734 
Q 763 3981 1030 4122 
Q 1297 4263 1600 4263 
Q 1884 4263 2148 4147 
Q 2413 4031 2583 3815 
Q 2753 3600 2753 3303 
Q 2753 3088 2651 2903 
Q 2550 2719 2373 2572 
Q 2197 2425 1997 2322 
L 2363 2088 
Q 2616 1922 2770 1653 
Q 2925 1384 2925 1088 
Q 2925 741 2739 456 
Q 2553 172 2247 15 
Q 1941 -141 1600 -141 
Q 1269 -141 961 -6 
Q 653 128 461 383 
Q 269 638 269 972 
z
M 616 972 
Q 616 719 755 509 
Q 894 300 1122 181 
Q 1350 63 1600 63 
Q 1972 63 2275 280 
Q 2578 497 2578 856 
Q 2578 978 2529 1098 
Q 2481 1219 2395 1317 
Q 2309 1416 2203 1478 
L 1344 2034 
Q 1144 1928 976 1765 
Q 809 1603 712 1400 
Q 616 1197 616 972 
z
M 1056 2925 
L 1831 2425 
Q 2100 2581 2272 2803 
Q 2444 3025 2444 3303 
Q 2444 3519 2323 3698 
Q 2203 3878 2009 3978 
Q 1816 4078 1594 4078 
Q 1400 4078 1203 4003 
Q 1006 3928 878 3779 
Q 750 3631 750 3431 
Q 750 3131 1056 2925 
z
" transform="scale(0.015625)"/>
       </defs>
       <use xlink:href="#Cmr10-31" transform="translate(0 0.109375)"/>
       <use xlink:href="#Cmr10-30" transform="translate(50 0.109375)"/>
       <use xlink:href="#Cmsy10-a1" transform="translate(104.464141 38.373438) scale(0.7)"/>
       <use xlink:href="#Cmr10-38" transform="translate(158.844023 38.373438) scale(0.7)"/>
      </g>
     </g>
    </g>
    <g id="ytick_3">
     <g id="line2d_19">
      <path d="M 49.43524 158.237351 
L 485.460932 158.237351 
" clip-path="url(#p77db5d0b78)" style="fill: none; stroke: #e9e3e0; stroke-width: 0.8; stroke-linecap: square"/>
     </g>
     <g id="line2d_20">
      <g>
       <use xlink:href="#m88843fa882" x="49.43524" y="158.237351" style="fill: #5f5552; stroke: #5f5552; stroke-width: 0.8"/>
      </g>
     </g>
     <g id="text_11">
      <!-- $10^{-6}$ -->
      <g style="fill: #5f5552" transform="translate(21.83024 162.258523) scale(0.105 -0.105)">
       <defs>
        <path id="Cmr10-36" d="M 1600 -141 
Q 1203 -141 937 70 
Q 672 281 526 617 
Q 381 953 325 1322 
Q 269 1691 269 2069 
Q 269 2575 466 3084 
Q 663 3594 1045 3928 
Q 1428 4263 1953 4263 
Q 2172 4263 2361 4180 
Q 2550 4097 2658 3936 
Q 2766 3775 2766 3547 
Q 2766 3416 2677 3327 
Q 2588 3238 2456 3238 
Q 2331 3238 2240 3328 
Q 2150 3419 2150 3547 
Q 2150 3672 2240 3762 
Q 2331 3853 2456 3853 
L 2491 3853 
Q 2409 3969 2261 4023 
Q 2113 4078 1953 4078 
Q 1759 4078 1595 3993 
Q 1431 3909 1300 3765 
Q 1169 3622 1081 3448 
Q 994 3275 945 3053 
Q 897 2831 884 2637 
Q 872 2444 872 2150 
Q 984 2413 1190 2580 
Q 1397 2747 1656 2747 
Q 1941 2747 2175 2631 
Q 2409 2516 2578 2311 
Q 2747 2106 2836 1843 
Q 2925 1581 2925 1313 
Q 2925 938 2758 598 
Q 2591 259 2287 59 
Q 1984 -141 1600 -141 
z
M 1600 63 
Q 1847 63 1997 175 
Q 2147 288 2217 473 
Q 2288 659 2305 848 
Q 2322 1038 2322 1313 
Q 2322 1675 2287 1931 
Q 2253 2188 2100 2383 
Q 1947 2578 1631 2578 
Q 1372 2578 1205 2403 
Q 1038 2228 961 1961 
Q 884 1694 884 1447 
Q 884 1363 891 1319 
Q 891 1309 889 1303 
Q 888 1297 884 1288 
Q 884 1013 940 731 
Q 997 450 1156 256 
Q 1316 63 1600 63 
z
" transform="scale(0.015625)"/>
       </defs>
       <use xlink:href="#Cmr10-31" transform="translate(0 0.109375)"/>
       <use xlink:href="#Cmr10-30" transform="translate(50 0.109375)"/>
       <use xlink:href="#Cmsy10-a1" transform="translate(104.464141 38.373438) scale(0.7)"/>
       <use xlink:href="#Cmr10-36" transform="translate(158.844023 38.373438) scale(0.7)"/>
      </g>
     </g>
    </g>
    <g id="ytick_4">
     <g id="line2d_21">
      <path d="M 49.43524 113.016387 
L 485.460932 113.016387 
" clip-path="url(#p77db5d0b78)" style="fill: none; stroke: #e9e3e0; stroke-width: 0.8; stroke-linecap: square"/>
     </g>
     <g id="line2d_22">
      <g>
       <use xlink:href="#m88843fa882" x="49.43524" y="113.016387" style="fill: #5f5552; stroke: #5f5552; stroke-width: 0.8"/>
      </g>
     </g>
     <g id="text_12">
      <!-- $10^{-4}$ -->
      <g style="fill: #5f5552" transform="translate(21.83024 117.037559) scale(0.105 -0.105)">
       <defs>
        <path id="Cmr10-34" d="M 178 1056 
L 178 1281 
L 2156 4231 
Q 2178 4263 2222 4263 
L 2316 4263 
Q 2388 4263 2388 4191 
L 2388 1281 
L 3016 1281 
L 3016 1056 
L 2388 1056 
L 2388 428 
Q 2388 297 2575 261 
Q 2763 225 3009 225 
L 3009 0 
L 1247 0 
L 1247 225 
Q 1494 225 1681 261 
Q 1869 297 1869 428 
L 1869 1056 
L 178 1056 
z
M 391 1281 
L 1906 1281 
L 1906 3547 
L 391 1281 
z
" transform="scale(0.015625)"/>
       </defs>
       <use xlink:href="#Cmr10-31" transform="translate(0 0.109375)"/>
       <use xlink:href="#Cmr10-30" transform="translate(50 0.109375)"/>
       <use xlink:href="#Cmsy10-a1" transform="translate(104.464141 38.373438) scale(0.7)"/>
       <use xlink:href="#Cmr10-34" transform="translate(158.844023 38.373438) scale(0.7)"/>
      </g>
     </g>
    </g>
    <g id="ytick_5">
     <g id="line2d_23">
      <path d="M 49.43524 67.795423 
L 485.460932 67.795423 
" clip-path="url(#p77db5d0b78)" style="fill: none; stroke: #e9e3e0; stroke-width: 0.8; stroke-linecap: square"/>
     </g>
     <g id="line2d_24">
      <g>
       <use xlink:href="#m88843fa882" x="49.43524" y="67.795423" style="fill: #5f5552; stroke: #5f5552; stroke-width: 0.8"/>
      </g>
     </g>
     <g id="text_13">
      <!-- $10^{-2}$ -->
      <g style="fill: #5f5552" transform="translate(21.83024 71.816595) scale(0.105 -0.105)">
       <defs>
        <path id="Cmr10-32" d="M 319 0 
L 319 172 
Q 319 188 331 206 
L 1325 1306 
Q 1550 1550 1690 1715 
Q 1831 1881 1968 2097 
Q 2106 2313 2186 2536 
Q 2266 2759 2266 3009 
Q 2266 3272 2169 3511 
Q 2072 3750 1880 3894 
Q 1688 4038 1416 4038 
Q 1138 4038 916 3870 
Q 694 3703 603 3438 
Q 628 3444 672 3444 
Q 816 3444 917 3347 
Q 1019 3250 1019 3097 
Q 1019 2950 917 2848 
Q 816 2747 672 2747 
Q 522 2747 420 2851 
Q 319 2956 319 3097 
Q 319 3338 409 3548 
Q 500 3759 670 3923 
Q 841 4088 1055 4175 
Q 1269 4263 1509 4263 
Q 1875 4263 2190 4108 
Q 2506 3953 2690 3670 
Q 2875 3388 2875 3009 
Q 2875 2731 2753 2481 
Q 2631 2231 2440 2026 
Q 2250 1822 1953 1562 
Q 1656 1303 1563 1216 
L 838 519 
L 1453 519 
Q 1906 519 2211 526 
Q 2516 534 2534 550 
Q 2609 631 2688 1141 
L 2875 1141 
L 2694 0 
L 319 0 
z
" transform="scale(0.015625)"/>
       </defs>
       <use xlink:href="#Cmr10-31" transform="translate(0 0.109375)"/>
       <use xlink:href="#Cmr10-30" transform="translate(50 0.109375)"/>
       <use xlink:href="#Cmsy10-a1" transform="translate(104.464141 38.373438) scale(0.7)"/>
       <use xlink:href="#Cmr10-32" transform="translate(158.844023 38.373438) scale(0.7)"/>
      </g>
     </g>
    </g>
    <g id="ytick_6">
     <g id="line2d_25">
      <path d="M 49.43524 22.574459 
L 485.460932 22.574459 
" clip-path="url(#p77db5d0b78)" style="fill: none; stroke: #e9e3e0; stroke-width: 0.8; stroke-linecap: square"/>
     </g>
     <g id="line2d_26">
      <g>
       <use xlink:href="#m88843fa882" x="49.43524" y="22.574459" style="fill: #5f5552; stroke: #5f5552; stroke-width: 0.8"/>
      </g>
     </g>
     <g id="text_14">
      <!-- $1$ -->
      <g style="fill: #5f5552" transform="translate(37.68524 26.595631) scale(0.105 -0.105)">
       <use xlink:href="#Cmr10-31" transform="translate(0 0.390625)"/>
      </g>
     </g>
    </g>
    <g id="text_15">
     <!-- 误码率 -->
     <g style="fill: #2b2321" transform="translate(11.808521 152.876869) rotate(-90) scale(0.115 -0.115)">
      <defs>
       <path id="HiraginoSansGB-W3-8bef" d="M 3776 1402 
C 3642 941 3405 646 2912 326 
C 2624 141 2470 70 2099 -45 
C 2221 -186 2266 -250 2330 -410 
C 2848 -205 3142 -26 3482 269 
C 3776 525 3955 781 4083 1133 
C 4416 454 5082 -64 6035 -390 
C 6086 -198 6118 -109 6202 13 
C 5638 160 5165 397 4858 685 
C 4595 928 4454 1126 4346 1402 
L 5453 1402 
C 5709 1402 5888 1389 6054 1363 
L 6054 1798 
C 5894 1773 5728 1760 5491 1760 
L 4230 1760 
C 4250 1971 4250 2029 4262 2317 
C 4262 2400 4262 2406 4262 2490 
L 5254 2490 
C 5504 2490 5683 2477 5850 2451 
L 5850 2886 
C 5690 2861 5523 2848 5286 2848 
L 3066 2848 
C 2816 2848 2611 2861 2464 2886 
L 2464 2451 
C 2598 2477 2784 2490 3085 2490 
L 3872 2490 
C 3872 2189 3859 1882 3846 1760 
L 2810 1760 
C 2560 1760 2355 1773 2208 1798 
L 2208 1363 
C 2342 1389 2528 1402 2829 1402 
L 3776 1402 
z
M 1229 2957 
L 1229 589 
C 1229 422 1197 365 1050 250 
L 1216 -179 
C 1402 -58 2112 378 2400 544 
L 2381 998 
C 2266 928 2176 864 2118 826 
C 1965 730 1869 659 1830 640 
C 1805 621 1798 621 1632 518 
L 1632 2682 
C 1632 3002 1638 3155 1664 3360 
C 1517 3341 1357 3328 1178 3328 
L 781 3328 
C 550 3328 461 3334 314 3360 
L 314 2925 
C 461 2950 557 2957 755 2957 
L 1229 2957 
z
M 3200 5082 
C 2938 5082 2797 5088 2688 5101 
C 2701 4979 2707 4794 2707 4557 
L 2707 3955 
C 2707 3622 2707 3533 2694 3405 
C 2835 3418 2867 3418 3174 3418 
L 5094 3418 
C 5370 3418 5498 3411 5645 3392 
C 5626 3546 5619 3686 5619 3949 
L 5619 4544 
C 5619 4806 5626 4954 5645 5107 
C 5478 5088 5350 5082 5088 5082 
L 3200 5082 
z
M 5235 4730 
L 5235 3763 
L 3085 3763 
L 3085 4730 
L 5235 4730 
z
M 909 4998 
C 1325 4691 1600 4435 1926 4051 
L 2234 4378 
C 1882 4742 1619 4979 1210 5280 
L 909 4998 
z
" transform="scale(0.015625)"/>
       <path id="HiraginoSansGB-W3-7801" d="M 4813 2694 
L 3277 2694 
L 3398 3648 
C 3430 3936 3450 4051 3482 4224 
L 3014 4224 
C 3021 4154 3021 4122 3021 4077 
C 3021 3987 3008 3744 3002 3674 
L 2912 2989 
C 2874 2701 2829 2419 2790 2291 
C 2893 2304 3053 2310 3386 2310 
L 5613 2310 
C 5562 1517 5453 710 5363 378 
C 5280 77 5190 -19 4998 -19 
C 4813 -19 4627 6 4301 64 
C 4378 -109 4397 -179 4403 -352 
C 4659 -384 4806 -397 5011 -397 
C 5242 -397 5363 -365 5466 -275 
C 5568 -186 5664 -19 5715 166 
C 5837 595 5952 1408 6016 2234 
C 6029 2394 6029 2426 6074 2720 
C 5894 2701 5760 2694 5421 2694 
L 5235 2694 
L 5478 4512 
C 5498 4627 5498 4627 5574 5043 
C 5466 5037 5088 5024 4909 5024 
L 3418 5018 
L 3398 5018 
C 3123 5018 2886 5030 2707 5056 
L 2707 4595 
C 2912 4621 3123 4634 3430 4634 
L 5088 4634 
L 4813 2694 
z
M 1222 4614 
C 1171 4096 1152 3994 1037 3584 
C 845 2880 602 2406 198 1914 
C 301 1811 365 1715 435 1562 
C 621 1818 704 1958 870 2304 
C 870 2240 870 2221 864 2170 
C 858 2080 858 2080 858 2029 
L 851 1728 
L 851 256 
C 851 -19 838 -186 813 -352 
L 1235 -352 
L 1235 294 
L 1990 294 
L 1990 -83 
L 2394 -83 
C 2374 102 2368 282 2368 544 
L 2368 2554 
C 2368 2835 2368 2912 2387 3066 
C 2272 3053 2202 3046 1990 3046 
L 1242 3046 
C 1440 3565 1549 4038 1613 4614 
L 1939 4614 
C 2157 4614 2298 4608 2464 4589 
L 2464 5011 
C 2298 4979 2176 4973 1920 4973 
L 934 4973 
C 666 4973 538 4979 358 5011 
L 358 4576 
C 531 4608 666 4614 909 4614 
L 1222 4614 
z
M 1235 2694 
L 1984 2694 
L 1984 640 
L 1235 640 
L 1235 2694 
z
M 5062 1459 
C 4838 1434 4634 1421 4320 1421 
L 3366 1421 
C 3066 1421 2848 1434 2624 1459 
L 2624 1005 
C 2842 1030 3072 1043 3373 1043 
L 4314 1043 
C 4627 1043 4858 1030 5062 1005 
L 5062 1459 
z
" transform="scale(0.015625)"/>
       <path id="HiraginoSansGB-W3-7387" d="M 2848 4448 
C 2714 4224 2637 4109 2477 3910 
C 2298 3680 2202 3610 2016 3546 
L 2099 3226 
C 2202 3232 2202 3232 2317 3251 
C 2490 3270 2490 3270 2726 3283 
C 2861 3290 2970 3302 3200 3322 
C 2835 2906 2630 2701 2419 2534 
C 2182 2355 2093 2310 1862 2253 
L 1939 1914 
C 2080 1926 2080 1926 2246 1952 
C 2643 2016 2720 2022 3078 2054 
C 3558 2099 3558 2099 4102 2163 
C 4179 2054 4224 1971 4371 1722 
L 4691 1971 
C 4512 2246 4205 2630 3802 3059 
L 3507 2835 
C 3693 2675 3757 2611 3885 2464 
C 3552 2413 3437 2400 2714 2336 
C 3078 2669 3270 2861 3437 3066 
C 3962 3699 3962 3699 4173 3949 
L 3834 4154 
C 3648 3885 3552 3750 3482 3661 
C 3277 3642 3277 3642 2989 3616 
C 2790 3597 2790 3597 2630 3578 
C 2906 3885 2906 3885 3302 4448 
L 5427 4448 
C 5677 4448 5875 4435 6061 4416 
L 6061 4858 
C 5882 4832 5683 4819 5395 4819 
L 3437 4819 
C 3283 5101 3270 5114 3059 5382 
L 2720 5222 
C 2816 5107 2893 4998 3002 4819 
L 1069 4819 
C 781 4819 589 4832 403 4858 
L 403 4416 
C 589 4435 794 4448 1037 4448 
L 2848 4448 
z
M 3334 998 
L 5408 998 
C 5677 998 5888 986 6074 960 
L 6074 1414 
C 5901 1389 5670 1370 5440 1370 
L 3334 1370 
L 3334 1472 
C 3334 1658 3341 1773 3360 1888 
L 2899 1888 
C 2918 1766 2925 1651 2925 1478 
L 2925 1370 
L 966 1370 
C 736 1370 486 1389 326 1414 
L 326 960 
C 544 986 723 998 986 998 
L 2925 998 
L 2925 32 
C 2925 -173 2912 -326 2880 -525 
L 3379 -525 
C 3347 -346 3334 -179 3334 32 
L 3334 998 
z
M 634 3942 
C 1030 3642 1171 3501 1523 3078 
L 1818 3347 
C 1510 3686 1293 3885 922 4179 
L 634 3942 
z
M 563 1773 
C 704 1850 736 1869 832 1914 
C 992 1997 1043 2022 1171 2093 
C 1478 2266 1670 2394 2029 2662 
L 1869 2982 
C 1370 2586 864 2310 371 2163 
L 563 1773 
z
M 5293 4205 
C 4973 3834 4717 3603 4282 3322 
L 4550 3059 
C 4979 3360 5261 3603 5594 3962 
L 5293 4205 
z
M 4467 2714 
C 4986 2374 5274 2144 5658 1734 
L 5933 2054 
C 5498 2438 5242 2630 4717 2957 
L 4467 2714 
z
" transform="scale(0.015625)"/>
      </defs>
      <use xlink:href="#HiraginoSansGB-W3-8bef"/>
      <use xlink:href="#HiraginoSansGB-W3-7801" x="99.999985"/>
      <use xlink:href="#HiraginoSansGB-W3-7387" x="199.999969"/>
     </g>
    </g>
   </g>
   <g id="patch_3">
    <path d="M 49.43524 248.67928 
L 49.43524 22.574459 
" style="fill: none; stroke: #b9aeab; stroke-width: 0.8; stroke-linejoin: miter; stroke-linecap: square"/>
   </g>
   <g id="patch_4">
    <path d="M 49.43524 248.67928 
L 485.460932 248.67928 
" style="fill: none; stroke: #b9aeab; stroke-width: 0.8; stroke-linejoin: miter; stroke-linecap: square"/>
   </g>
   <g id="line2d_27">
    <path d="M 49.43524 47.445989 
L 78.503619 54.907448 
L 107.571999 65.534375 
L 136.640378 81.813922 
L 165.708758 106.685452 
L 194.777137 144.897167 
L 223.845517 204.58884 
L 252.913896 248.67928 
L 281.982276 248.67928 
L 311.050655 248.67928 
L 340.119035 248.67928 
L 369.187414 248.67928 
L 398.255793 248.67928 
L 427.324173 248.67928 
L 456.392552 248.67928 
L 485.460932 248.67928 
" clip-path="url(#p77db5d0b78)" style="fill: none; stroke: #2f6fd1; stroke-width: 2; stroke-linecap: square"/>
    <defs>
     <path id="m9e8cea10ec" d="M 0 2 
C 0.530406 2 1.03916 1.789267 1.414214 1.414214 
C 1.789267 1.03916 2 0.530406 2 0 
C 2 -0.530406 1.789267 -1.03916 1.414214 -1.414214 
C 1.03916 -1.789267 0.530406 -2 0 -2 
C -0.530406 -2 -1.03916 -1.789267 -1.414214 -1.414214 
C -1.789267 -1.03916 -2 -0.530406 -2 0 
C -2 0.530406 -1.789267 1.03916 -1.414214 1.414214 
C -1.03916 1.789267 -0.530406 2 0 2 
z
" style="stroke: #2f6fd1"/>
    </defs>
    <g clip-path="url(#p77db5d0b78)">
     <use xlink:href="#m9e8cea10ec" x="49.43524" y="47.445989" style="fill: #2f6fd1; stroke: #2f6fd1"/>
     <use xlink:href="#m9e8cea10ec" x="78.503619" y="54.907448" style="fill: #2f6fd1; stroke: #2f6fd1"/>
     <use xlink:href="#m9e8cea10ec" x="107.571999" y="65.534375" style="fill: #2f6fd1; stroke: #2f6fd1"/>
     <use xlink:href="#m9e8cea10ec" x="136.640378" y="81.813922" style="fill: #2f6fd1; stroke: #2f6fd1"/>
     <use xlink:href="#m9e8cea10ec" x="165.708758" y="106.685452" style="fill: #2f6fd1; stroke: #2f6fd1"/>
     <use xlink:href="#m9e8cea10ec" x="194.777137" y="144.897167" style="fill: #2f6fd1; stroke: #2f6fd1"/>
     <use xlink:href="#m9e8cea10ec" x="223.845517" y="204.58884" style="fill: #2f6fd1; stroke: #2f6fd1"/>
     <use xlink:href="#m9e8cea10ec" x="252.913896" y="248.67928" style="fill: #2f6fd1; stroke: #2f6fd1"/>
     <use xlink:href="#m9e8cea10ec" x="281.982276" y="248.67928" style="fill: #2f6fd1; stroke: #2f6fd1"/>
     <use xlink:href="#m9e8cea10ec" x="311.050655" y="248.67928" style="fill: #2f6fd1; stroke: #2f6fd1"/>
     <use xlink:href="#m9e8cea10ec" x="340.119035" y="248.67928" style="fill: #2f6fd1; stroke: #2f6fd1"/>
     <use xlink:href="#m9e8cea10ec" x="369.187414" y="248.67928" style="fill: #2f6fd1; stroke: #2f6fd1"/>
     <use xlink:href="#m9e8cea10ec" x="398.255793" y="248.67928" style="fill: #2f6fd1; stroke: #2f6fd1"/>
     <use xlink:href="#m9e8cea10ec" x="427.324173" y="248.67928" style="fill: #2f6fd1; stroke: #2f6fd1"/>
     <use xlink:href="#m9e8cea10ec" x="456.392552" y="248.67928" style="fill: #2f6fd1; stroke: #2f6fd1"/>
     <use xlink:href="#m9e8cea10ec" x="485.460932" y="248.67928" style="fill: #2f6fd1; stroke: #2f6fd1"/>
    </g>
   </g>
   <g id="line2d_28">
    <path d="M 49.43524 41.341159 
L 78.503619 44.280522 
L 107.571999 47.672094 
L 136.640378 51.515876 
L 165.708758 55.359658 
L 194.777137 59.429545 
L 223.845517 63.725536 
L 252.913896 68.021528 
L 281.982276 72.543624 
L 311.050655 77.065721 
L 340.119035 81.587817 
L 369.187414 85.883809 
L 398.255793 90.405905 
L 427.324173 94.928002 
L 456.392552 99.450098 
L 485.460932 103.972194 
" clip-path="url(#p77db5d0b78)" style="fill: none; stroke: #e0552d; stroke-width: 2; stroke-linecap: square"/>
    <defs>
     <path id="mf165900cb7" d="M 0 2 
C 0.530406 2 1.03916 1.789267 1.414214 1.414214 
C 1.789267 1.03916 2 0.530406 2 0 
C 2 -0.530406 1.789267 -1.03916 1.414214 -1.414214 
C 1.03916 -1.789267 0.530406 -2 0 -2 
C -0.530406 -2 -1.03916 -1.789267 -1.414214 -1.414214 
C -1.789267 -1.03916 -2 -0.530406 -2 0 
C -2 0.530406 -1.789267 1.03916 -1.414214 1.414214 
C -1.03916 1.789267 -0.530406 2 0 2 
z
" style="stroke: #e0552d"/>
    </defs>
    <g clip-path="url(#p77db5d0b78)">
     <use xlink:href="#mf165900cb7" x="49.43524" y="41.341159" style="fill: #e0552d; stroke: #e0552d"/>
     <use xlink:href="#mf165900cb7" x="78.503619" y="44.280522" style="fill: #e0552d; stroke: #e0552d"/>
     <use xlink:href="#mf165900cb7" x="107.571999" y="47.672094" style="fill: #e0552d; stroke: #e0552d"/>
     <use xlink:href="#mf165900cb7" x="136.640378" y="51.515876" style="fill: #e0552d; stroke: #e0552d"/>
     <use xlink:href="#mf165900cb7" x="165.708758" y="55.359658" style="fill: #e0552d; stroke: #e0552d"/>
     <use xlink:href="#mf165900cb7" x="194.777137" y="59.429545" style="fill: #e0552d; stroke: #e0552d"/>
     <use xlink:href="#mf165900cb7" x="223.845517" y="63.725536" style="fill: #e0552d; stroke: #e0552d"/>
     <use xlink:href="#mf165900cb7" x="252.913896" y="68.021528" style="fill: #e0552d; stroke: #e0552d"/>
     <use xlink:href="#mf165900cb7" x="281.982276" y="72.543624" style="fill: #e0552d; stroke: #e0552d"/>
     <use xlink:href="#mf165900cb7" x="311.050655" y="77.065721" style="fill: #e0552d; stroke: #e0552d"/>
     <use xlink:href="#mf165900cb7" x="340.119035" y="81.587817" style="fill: #e0552d; stroke: #e0552d"/>
     <use xlink:href="#mf165900cb7" x="369.187414" y="85.883809" style="fill: #e0552d; stroke: #e0552d"/>
     <use xlink:href="#mf165900cb7" x="398.255793" y="90.405905" style="fill: #e0552d; stroke: #e0552d"/>
     <use xlink:href="#mf165900cb7" x="427.324173" y="94.928002" style="fill: #e0552d; stroke: #e0552d"/>
     <use xlink:href="#mf165900cb7" x="456.392552" y="99.450098" style="fill: #e0552d; stroke: #e0552d"/>
     <use xlink:href="#mf165900cb7" x="485.460932" y="103.972194" style="fill: #e0552d; stroke: #e0552d"/>
    </g>
   </g>
   <g id="line2d_29">
    <path d="M 49.43524 50.611457 
L 78.503619 56.037972 
L 107.571999 62.595012 
L 136.640378 69.830366 
L 165.708758 77.51793 
L 194.777137 85.883809 
L 223.845517 94.249687 
L 252.913896 103.067775 
L 281.982276 111.659758 
L 311.050655 120.703951 
L 340.119035 129.522039 
L 369.187414 138.566232 
L 398.255793 147.610425 
L 427.324173 156.654618 
L 456.392552 165.698811 
L 485.460932 174.743003 
" clip-path="url(#p77db5d0b78)" style="fill: none; stroke: #1f9d55; stroke-width: 2; stroke-linecap: square"/>
    <defs>
     <path id="m123c47e4c5" d="M 0 2 
C 0.530406 2 1.03916 1.789267 1.414214 1.414214 
C 1.789267 1.03916 2 0.530406 2 0 
C 2 -0.530406 1.789267 -1.03916 1.414214 -1.414214 
C 1.03916 -1.789267 0.530406 -2 0 -2 
C -0.530406 -2 -1.03916 -1.789267 -1.414214 -1.414214 
C -1.789267 -1.03916 -2 -0.530406 -2 0 
C -2 0.530406 -1.789267 1.03916 -1.414214 1.414214 
C -1.03916 1.789267 -0.530406 2 0 2 
z
" style="stroke: #1f9d55"/>
    </defs>
    <g clip-path="url(#p77db5d0b78)">
     <use xlink:href="#m123c47e4c5" x="49.43524" y="50.611457" style="fill: #1f9d55; stroke: #1f9d55"/>
     <use xlink:href="#m123c47e4c5" x="78.503619" y="56.037972" style="fill: #1f9d55; stroke: #1f9d55"/>
     <use xlink:href="#m123c47e4c5" x="107.571999" y="62.595012" style="fill: #1f9d55; stroke: #1f9d55"/>
     <use xlink:href="#m123c47e4c5" x="136.640378" y="69.830366" style="fill: #1f9d55; stroke: #1f9d55"/>
     <use xlink:href="#m123c47e4c5" x="165.708758" y="77.51793" style="fill: #1f9d55; stroke: #1f9d55"/>
     <use xlink:href="#m123c47e4c5" x="194.777137" y="85.883809" style="fill: #1f9d55; stroke: #1f9d55"/>
     <use xlink:href="#m123c47e4c5" x="223.845517" y="94.249687" style="fill: #1f9d55; stroke: #1f9d55"/>
     <use xlink:href="#m123c47e4c5" x="252.913896" y="103.067775" style="fill: #1f9d55; stroke: #1f9d55"/>
     <use xlink:href="#m123c47e4c5" x="281.982276" y="111.659758" style="fill: #1f9d55; stroke: #1f9d55"/>
     <use xlink:href="#m123c47e4c5" x="311.050655" y="120.703951" style="fill: #1f9d55; stroke: #1f9d55"/>
     <use xlink:href="#m123c47e4c5" x="340.119035" y="129.522039" style="fill: #1f9d55; stroke: #1f9d55"/>
     <use xlink:href="#m123c47e4c5" x="369.187414" y="138.566232" style="fill: #1f9d55; stroke: #1f9d55"/>
     <use xlink:href="#m123c47e4c5" x="398.255793" y="147.610425" style="fill: #1f9d55; stroke: #1f9d55"/>
     <use xlink:href="#m123c47e4c5" x="427.324173" y="156.654618" style="fill: #1f9d55; stroke: #1f9d55"/>
     <use xlink:href="#m123c47e4c5" x="456.392552" y="165.698811" style="fill: #1f9d55; stroke: #1f9d55"/>
     <use xlink:href="#m123c47e4c5" x="485.460932" y="174.743003" style="fill: #1f9d55; stroke: #1f9d55"/>
    </g>
   </g>
   <g id="line2d_30">
    <path d="M 49.43524 66.664899 
L 78.503619 77.51793 
L 107.571999 90.1798 
L 136.640378 104.424404 
L 165.708758 119.573427 
L 194.777137 135.852974 
L 223.845517 152.810836 
L 252.913896 170.220907 
L 281.982276 187.630978 
L 311.050655 205.493259 
L 340.119035 223.35554 
L 369.187414 241.217821 
L 398.255793 248.67928 
L 427.324173 248.67928 
L 456.392552 248.67928 
L 485.460932 248.67928 
" clip-path="url(#p77db5d0b78)" style="fill: none; stroke: #9b59b6; stroke-width: 2; stroke-linecap: square"/>
    <defs>
     <path id="m830338e5bd" d="M 0 2 
C 0.530406 2 1.03916 1.789267 1.414214 1.414214 
C 1.789267 1.03916 2 0.530406 2 0 
C 2 -0.530406 1.789267 -1.03916 1.414214 -1.414214 
C 1.03916 -1.789267 0.530406 -2 0 -2 
C -0.530406 -2 -1.03916 -1.789267 -1.414214 -1.414214 
C -1.789267 -1.03916 -2 -0.530406 -2 0 
C -2 0.530406 -1.789267 1.03916 -1.414214 1.414214 
C -1.03916 1.789267 -0.530406 2 0 2 
z
" style="stroke: #9b59b6"/>
    </defs>
    <g clip-path="url(#p77db5d0b78)">
     <use xlink:href="#m830338e5bd" x="49.43524" y="66.664899" style="fill: #9b59b6; stroke: #9b59b6"/>
     <use xlink:href="#m830338e5bd" x="78.503619" y="77.51793" style="fill: #9b59b6; stroke: #9b59b6"/>
     <use xlink:href="#m830338e5bd" x="107.571999" y="90.1798" style="fill: #9b59b6; stroke: #9b59b6"/>
     <use xlink:href="#m830338e5bd" x="136.640378" y="104.424404" style="fill: #9b59b6; stroke: #9b59b6"/>
     <use xlink:href="#m830338e5bd" x="165.708758" y="119.573427" style="fill: #9b59b6; stroke: #9b59b6"/>
     <use xlink:href="#m830338e5bd" x="194.777137" y="135.852974" style="fill: #9b59b6; stroke: #9b59b6"/>
     <use xlink:href="#m830338e5bd" x="223.845517" y="152.810836" style="fill: #9b59b6; stroke: #9b59b6"/>
     <use xlink:href="#m830338e5bd" x="252.913896" y="170.220907" style="fill: #9b59b6; stroke: #9b59b6"/>
     <use xlink:href="#m830338e5bd" x="281.982276" y="187.630978" style="fill: #9b59b6; stroke: #9b59b6"/>
     <use xlink:href="#m830338e5bd" x="311.050655" y="205.493259" style="fill: #9b59b6; stroke: #9b59b6"/>
     <use xlink:href="#m830338e5bd" x="340.119035" y="223.35554" style="fill: #9b59b6; stroke: #9b59b6"/>
     <use xlink:href="#m830338e5bd" x="369.187414" y="241.217821" style="fill: #9b59b6; stroke: #9b59b6"/>
     <use xlink:href="#m830338e5bd" x="398.255793" y="248.67928" style="fill: #9b59b6; stroke: #9b59b6"/>
     <use xlink:href="#m830338e5bd" x="427.324173" y="248.67928" style="fill: #9b59b6; stroke: #9b59b6"/>
     <use xlink:href="#m830338e5bd" x="456.392552" y="248.67928" style="fill: #9b59b6; stroke: #9b59b6"/>
     <use xlink:href="#m830338e5bd" x="485.460932" y="248.67928" style="fill: #9b59b6; stroke: #9b59b6"/>
    </g>
   </g>
   <g id="text_16">
    <!-- BPSK 误码率：AWGN、瑞利与 MRC 分集 -->
    <g style="fill: #2b2321" transform="translate(49.43524 12.574459) scale(0.125 -0.125)">
     <defs>
      <path id="HiraginoSansGB-W3-50" d="M 1094 38 
C 1056 256 1043 454 1043 762 
L 1043 2022 
L 2470 2022 
C 3469 2022 4045 2566 4045 3507 
C 4045 4397 3488 4902 2502 4902 
L 1197 4902 
C 902 4902 723 4909 493 4922 
C 531 4653 544 4454 544 4192 
L 544 755 
C 544 454 531 269 493 38 
L 1094 38 
z
M 1043 2464 
L 1043 4461 
L 2470 4461 
C 3162 4461 3533 4122 3533 3482 
C 3533 2829 3149 2464 2470 2464 
L 1043 2464 
z
" transform="scale(0.015625)"/>
      <path id="HiraginoSansGB-W3-53" d="M 3840 3718 
C 3770 4045 3706 4205 3558 4397 
C 3270 4781 2778 4986 2144 4986 
C 1152 4986 506 4467 506 3661 
C 506 3213 704 2874 1101 2650 
C 1318 2528 1568 2438 1971 2355 
C 2746 2182 2816 2163 3027 2042 
C 3270 1907 3398 1670 3398 1357 
C 3398 762 2938 403 2176 403 
C 1702 403 1318 563 1107 845 
C 973 1018 928 1171 909 1478 
L 352 1408 
C 416 986 486 787 653 563 
C 947 166 1478 -45 2195 -45 
C 3296 -45 3917 467 3917 1370 
C 3917 2112 3507 2502 2483 2720 
C 1747 2880 1741 2880 1568 2950 
C 1190 3104 1011 3341 1011 3674 
C 1011 4192 1472 4544 2131 4544 
C 2547 4544 2874 4416 3078 4173 
C 3200 4026 3251 3898 3302 3642 
L 3840 3718 
z
" transform="scale(0.015625)"/>
      <path id="HiraginoSansGB-W3-4b" d="M 2138 2867 
L 3520 4243 
C 3539 4262 3616 4339 3731 4461 
C 3814 4550 3910 4640 4013 4742 
C 4064 4794 4064 4794 4179 4902 
L 3424 4902 
C 3334 4742 3226 4614 2982 4371 
L 1037 2413 
L 1037 4186 
C 1037 4499 1050 4698 1088 4902 
L 493 4902 
C 531 4666 544 4480 544 4186 
L 544 755 
C 544 461 531 243 493 38 
L 1088 38 
C 1050 262 1037 435 1037 755 
L 1037 1798 
L 1786 2534 
L 3296 589 
C 3475 365 3584 198 3674 38 
L 4416 38 
C 4243 205 4179 275 3814 736 
L 2138 2867 
z
" transform="scale(0.015625)"/>
      <path id="HiraginoSansGB-W3-ff1a" d="M 1722 3488 
L 1088 3488 
L 1088 2854 
L 1722 2854 
L 1722 3488 
z
M 1722 38 
L 1722 672 
L 1088 672 
L 1088 38 
L 1722 38 
z
" transform="scale(0.015625)"/>
      <path id="HiraginoSansGB-W3-41" d="M 4710 38 
C 4614 205 4531 390 4371 774 
L 2938 4307 
C 2778 4698 2746 4781 2720 4902 
L 2074 4902 
C 2042 4755 1990 4608 1869 4307 
L 435 774 
C 262 346 218 250 90 38 
L 755 38 
C 800 262 858 448 954 691 
L 1286 1517 
L 3520 1517 
L 3853 691 
C 3930 493 4000 269 4051 38 
L 4710 38 
z
M 3366 1958 
L 1440 1958 
L 2259 4070 
C 2272 4096 2291 4166 2330 4269 
C 2342 4314 2368 4384 2400 4480 
C 2522 4128 2522 4122 2541 4070 
L 3366 1958 
z
" transform="scale(0.015625)"/>
      <path id="HiraginoSansGB-W3-57" d="M 4922 38 
C 4947 179 4947 186 5088 672 
L 6106 4173 
C 6208 4531 6259 4685 6355 4902 
L 5715 4902 
C 5702 4717 5658 4486 5594 4237 
L 4838 1472 
L 4666 736 
C 4538 1235 4512 1331 4474 1472 
L 3616 4275 
C 3539 4518 3494 4710 3462 4902 
L 2982 4902 
C 2963 4755 2906 4506 2835 4275 
L 1978 1466 
C 1926 1293 1850 992 1786 736 
C 1696 1126 1658 1306 1613 1459 
L 858 4237 
C 787 4499 749 4710 736 4902 
L 90 4902 
C 192 4691 250 4525 352 4173 
L 1363 672 
C 1517 154 1517 154 1536 38 
L 2029 38 
C 2061 198 2086 307 2195 653 
L 3034 3418 
C 3072 3546 3155 3878 3200 4045 
C 3200 4070 3213 4109 3226 4154 
C 3270 3910 3328 3693 3411 3418 
L 4256 653 
C 4339 397 4397 166 4422 38 
L 4922 38 
z
" transform="scale(0.015625)"/>
      <path id="HiraginoSansGB-W3-47" d="M 3878 2042 
L 3878 755 
C 3501 512 3091 397 2586 397 
C 2080 397 1683 550 1395 858 
C 1043 1235 858 1798 858 2483 
C 858 3770 1504 4557 2560 4557 
C 3245 4557 3674 4262 3904 3635 
L 4403 3802 
C 4262 4147 4147 4333 3936 4531 
C 3597 4845 3136 5005 2566 5005 
C 1203 5005 333 4026 333 2483 
C 333 1619 621 883 1120 442 
C 1491 122 1971 -32 2579 -32 
C 2906 -32 3264 13 3533 90 
C 3827 173 4019 262 4403 486 
C 4365 742 4358 896 4358 1197 
L 4358 1786 
C 4358 2080 4365 2240 4403 2509 
C 4205 2490 4026 2483 3725 2483 
L 3539 2483 
C 3194 2483 3034 2490 2842 2522 
L 2842 2003 
C 3021 2035 3168 2042 3501 2042 
L 3878 2042 
z
" transform="scale(0.015625)"/>
      <path id="HiraginoSansGB-W3-4e" d="M 506 4902 
C 544 4672 557 4480 557 4186 
L 557 800 
C 557 467 544 243 506 38 
L 1101 38 
C 1062 250 1050 461 1050 800 
L 1050 3533 
C 1050 3699 1037 4013 1011 4314 
C 1101 4141 1312 3776 1363 3699 
L 3418 614 
C 3590 352 3661 224 3750 38 
L 4448 38 
C 4410 243 4397 435 4397 755 
L 4397 4166 
C 4397 4493 4410 4672 4448 4902 
L 3853 4902 
C 3891 4678 3904 4480 3904 4166 
L 3904 1453 
C 3904 1395 3917 1114 3942 602 
C 3789 877 3597 1190 3526 1299 
L 1504 4326 
C 1318 4614 1235 4755 1178 4902 
L 506 4902 
z
" transform="scale(0.015625)"/>
      <path id="HiraginoSansGB-W3-3001" d="M 480 973 
C 960 576 1331 173 1741 -422 
L 2099 -83 
C 1664 506 1338 851 813 1274 
L 480 973 
z
" transform="scale(0.015625)"/>
      <path id="HiraginoSansGB-W3-745e" d="M 1466 4627 
L 1645 4627 
C 1850 4627 1958 4621 2118 4602 
L 2118 5024 
C 1958 4992 1843 4986 1600 4986 
L 864 4986 
C 614 4986 486 4992 326 5024 
L 326 4595 
C 499 4621 570 4627 838 4627 
L 1082 4627 
L 1082 3123 
L 845 3123 
C 653 3123 550 3130 410 3155 
L 410 2733 
C 550 2758 666 2765 838 2765 
L 1082 2765 
L 1082 1005 
C 531 845 378 806 211 800 
L 320 346 
C 422 390 506 422 704 480 
C 1222 640 1619 781 2138 986 
L 2131 1376 
C 1818 1248 1709 1210 1466 1126 
L 1466 2765 
L 1600 2765 
C 1754 2765 1882 2758 2022 2739 
L 2022 3155 
C 1869 3130 1792 3123 1600 3123 
L 1466 3123 
L 1466 4627 
z
M 4243 4083 
L 4243 4870 
C 4243 5094 4256 5222 4282 5357 
L 3814 5357 
C 3840 5229 3853 5082 3853 4870 
L 3853 4083 
L 2803 4083 
L 2803 4602 
C 2803 4781 2816 4934 2835 5069 
L 2387 5069 
C 2406 4928 2419 4762 2419 4602 
L 2419 4109 
C 2419 3974 2413 3846 2400 3725 
C 2502 3738 2598 3738 2867 3738 
L 5306 3738 
C 5581 3738 5664 3738 5798 3725 
C 5786 3840 5779 3955 5779 4109 
L 5779 4589 
C 5779 4768 5792 4922 5811 5069 
L 5363 5069 
C 5382 4915 5395 4762 5395 4602 
L 5395 4083 
L 4243 4083 
z
M 5478 2842 
C 5792 2842 5952 2835 6125 2810 
L 6125 3232 
C 5971 3206 5792 3194 5478 3194 
L 2835 3194 
C 2528 3194 2362 3200 2195 3232 
L 2195 2810 
C 2381 2835 2522 2842 2835 2842 
L 3802 2842 
C 3731 2650 3610 2406 3469 2170 
L 2982 2170 
C 2694 2170 2496 2176 2304 2202 
C 2323 2035 2330 1862 2330 1542 
L 2330 230 
C 2330 -134 2323 -301 2298 -486 
L 2739 -486 
C 2714 -333 2707 -141 2707 230 
L 2707 1824 
L 3386 1824 
L 3386 301 
C 3386 -6 3379 -173 3360 -326 
L 3782 -326 
C 3757 -173 3750 -19 3750 301 
L 3750 1824 
L 4435 1824 
L 4435 301 
C 4435 -13 4429 -154 4410 -326 
L 4832 -326 
C 4806 -179 4800 -13 4800 301 
L 4800 1824 
L 5504 1824 
L 5504 32 
C 5504 -70 5472 -102 5357 -102 
C 5229 -102 5114 -90 4960 -58 
C 5011 -205 5030 -288 5037 -442 
C 5203 -454 5254 -454 5318 -454 
C 5478 -454 5651 -429 5728 -397 
C 5830 -346 5882 -224 5882 -38 
L 5882 1555 
C 5882 1856 5888 2035 5907 2202 
C 5709 2176 5523 2170 5235 2170 
L 3891 2170 
C 4006 2374 4147 2650 4230 2842 
L 5478 2842 
z
" transform="scale(0.015625)"/>
      <path id="HiraginoSansGB-W3-5229" d="M 1715 3539 
L 1050 3539 
C 742 3539 589 3546 442 3578 
L 442 3142 
C 614 3168 787 3181 1043 3181 
L 1651 3181 
C 1574 2938 1472 2701 1286 2342 
C 1005 1811 730 1453 288 1037 
C 390 934 461 838 550 672 
C 1126 1293 1440 1805 1741 2611 
C 1715 2118 1709 1882 1709 1523 
L 1709 275 
C 1709 -70 1696 -282 1664 -506 
L 2138 -506 
C 2106 -320 2099 -115 2099 275 
L 2099 2528 
C 2131 2490 2208 2394 2637 1843 
C 2810 1619 2810 1619 2925 1434 
L 3232 1702 
C 2880 2157 2765 2278 2099 2970 
L 2099 3181 
L 2714 3181 
C 2970 3181 3123 3174 3283 3149 
L 3283 3571 
C 3117 3546 2950 3539 2726 3539 
L 2099 3539 
L 2099 4538 
C 2419 4627 2643 4704 2938 4813 
C 3053 4851 3053 4851 3194 4902 
L 2906 5242 
C 2797 5171 2720 5133 2490 5056 
C 1760 4794 1248 4672 461 4570 
C 550 4442 595 4352 646 4205 
C 1056 4275 1472 4365 1715 4429 
L 1715 3539 
z
M 3731 4858 
C 3757 4659 3770 4486 3770 4128 
L 3770 1658 
C 3770 1229 3763 1094 3738 915 
L 4211 915 
C 4186 1094 4179 1222 4179 1658 
L 4179 4128 
C 4179 4499 4186 4653 4211 4858 
L 3731 4858 
z
M 5299 5216 
C 5325 5011 5338 4774 5338 4410 
L 5338 218 
C 5338 58 5293 26 5037 26 
C 4813 26 4557 45 4205 83 
C 4275 -77 4307 -173 4339 -339 
C 4557 -352 4794 -358 4986 -358 
C 5606 -358 5754 -250 5754 205 
L 5754 4410 
C 5754 4768 5766 5005 5798 5216 
L 5299 5216 
z
" transform="scale(0.015625)"/>
      <path id="HiraginoSansGB-W3-4e0e" d="M 1837 4429 
C 1907 5210 1907 5210 1933 5363 
L 1466 5363 
C 1472 5280 1472 5242 1472 5190 
C 1472 5005 1453 4634 1427 4301 
C 1370 3590 1312 3187 1210 2682 
C 1402 2694 1734 2707 1798 2707 
L 4960 2707 
C 4922 1760 4858 1190 4730 666 
C 4614 179 4512 77 4128 77 
C 3821 77 3469 109 2880 198 
C 2963 -13 2989 -90 3021 -256 
C 3546 -307 3859 -326 4160 -326 
C 4762 -326 4954 -166 5126 499 
C 5203 794 5306 1453 5338 1875 
C 5395 2778 5408 2918 5434 3110 
C 5306 3091 5056 3078 4749 3078 
L 1715 3078 
C 1766 3520 1773 3578 1811 4045 
L 4858 4045 
C 5126 4045 5293 4038 5459 4013 
L 5459 4461 
C 5286 4435 5146 4429 4845 4429 
L 1837 4429 
z
M 4224 1766 
C 4026 1741 3814 1728 3552 1728 
L 998 1728 
C 717 1728 499 1741 314 1766 
L 314 1312 
C 518 1338 730 1350 998 1350 
L 3552 1350 
C 3808 1350 4026 1338 4224 1312 
L 4224 1766 
z
" transform="scale(0.015625)"/>
      <path id="HiraginoSansGB-W3-4d" d="M 2554 710 
C 2682 422 2758 205 2790 38 
L 3245 38 
C 3296 250 3360 416 3488 704 
L 4794 3578 
C 4915 3840 5005 4096 5069 4358 
C 5043 4096 5024 3750 5024 3571 
L 5024 794 
C 5024 486 5011 256 4973 38 
L 5555 38 
C 5517 269 5504 442 5504 794 
L 5504 4141 
C 5504 4474 5517 4659 5555 4902 
L 4819 4902 
C 4781 4717 4710 4518 4602 4269 
L 3027 742 
L 1446 4269 
C 1350 4480 1274 4710 1235 4902 
L 493 4902 
C 531 4666 544 4461 544 4141 
L 544 794 
C 544 461 531 275 493 38 
L 1075 38 
C 1037 256 1024 454 1024 794 
L 1024 3533 
C 1024 3686 998 4083 979 4358 
C 1101 3968 1171 3770 1267 3565 
L 2554 710 
z
" transform="scale(0.015625)"/>
      <path id="HiraginoSansGB-W3-52" d="M 4410 38 
C 4320 192 4230 384 4122 634 
C 3923 1075 3770 1408 3616 1709 
C 3386 2163 3226 2336 2963 2413 
C 3309 2490 3469 2566 3654 2733 
C 3917 2957 4038 3264 4038 3674 
C 4038 4467 3526 4902 2598 4902 
L 1190 4902 
C 896 4902 717 4909 493 4922 
C 531 4666 544 4461 544 4186 
L 544 755 
C 544 442 531 269 493 38 
L 1088 38 
C 1050 269 1037 435 1037 762 
L 1037 2259 
L 2221 2259 
C 2733 2259 2982 2010 3354 1133 
C 3622 493 3712 230 3731 38 
L 4410 38 
z
M 1037 2701 
L 1037 4461 
L 2592 4461 
C 3200 4461 3520 4166 3520 3622 
C 3520 3347 3443 3136 3277 2976 
C 3104 2803 2842 2701 2554 2701 
L 1037 2701 
z
" transform="scale(0.015625)"/>
      <path id="HiraginoSansGB-W3-43" d="M 4461 3667 
C 4307 4064 4186 4256 3962 4474 
C 3616 4819 3130 4992 2528 4992 
C 1920 4992 1434 4806 1062 4448 
C 589 3981 333 3283 333 2458 
C 333 1658 576 960 1024 512 
C 1389 141 1907 -51 2522 -51 
C 3238 -51 3821 211 4179 691 
C 4333 896 4416 1075 4525 1453 
L 3994 1581 
C 3936 1286 3872 1126 3738 941 
C 3475 595 3046 403 2541 403 
C 1510 403 851 1210 851 2477 
C 851 3750 1504 4544 2541 4544 
C 3008 4544 3392 4384 3648 4083 
C 3782 3930 3853 3795 3949 3520 
L 4461 3667 
z
" transform="scale(0.015625)"/>
      <path id="HiraginoSansGB-W3-5206" d="M 4435 2637 
C 4435 1530 4358 666 4224 275 
C 4179 147 4109 115 3917 115 
C 3661 115 3373 147 3002 218 
C 3066 32 3085 -64 3104 -237 
C 3520 -275 3718 -288 3942 -288 
C 4320 -288 4467 -230 4576 -32 
C 4742 269 4864 1350 4864 2592 
C 4870 2880 4870 2931 4890 3046 
C 4704 3021 4512 3014 4218 3014 
L 2112 3014 
C 1850 3014 1632 3027 1446 3053 
L 1446 2598 
C 1645 2624 1862 2637 2106 2637 
L 2509 2637 
C 2464 2061 2374 1722 2163 1318 
C 1856 736 1370 314 550 -83 
C 685 -211 749 -294 832 -442 
C 1613 -38 2112 397 2445 954 
C 2739 1440 2893 1965 2944 2637 
L 4435 2637 
z
M 2246 5293 
C 2214 5101 2131 4902 1971 4621 
C 1542 3853 992 3264 218 2746 
C 365 2624 448 2528 531 2400 
C 1434 3066 2054 3808 2547 4800 
C 2643 4998 2669 5050 2726 5126 
L 2246 5293 
z
M 3667 5114 
C 3699 5062 3738 4992 3770 4934 
C 4371 3757 4915 3110 5926 2362 
C 6022 2528 6106 2637 6227 2752 
C 5350 3328 4806 3904 4339 4742 
C 4205 4986 4147 5114 4096 5280 
L 3667 5114 
z
" transform="scale(0.015625)"/>
      <path id="HiraginoSansGB-W3-96c6" d="M 3392 1933 
L 5152 1933 
C 5427 1933 5562 1926 5734 1901 
L 5734 2285 
C 5562 2259 5434 2253 5146 2253 
L 3475 2253 
L 3475 2790 
L 4838 2790 
C 5120 2790 5261 2784 5414 2758 
L 5414 3142 
C 5222 3110 5101 3104 4838 3104 
L 3475 3104 
L 3475 3584 
L 4838 3584 
C 5126 3584 5242 3578 5414 3552 
L 5414 3936 
C 5229 3904 5094 3898 4838 3898 
L 3475 3898 
L 3475 4378 
L 5158 4378 
C 5421 4378 5549 4371 5715 4346 
L 5715 4742 
C 5542 4717 5408 4710 5126 4710 
L 3802 4710 
C 3590 5139 3590 5139 3418 5389 
L 3098 5229 
C 3245 5005 3283 4941 3405 4710 
L 1715 4710 
C 1837 4864 1837 4864 2138 5325 
L 1696 5434 
C 1651 5293 1568 5133 1466 4973 
C 1133 4454 749 4070 224 3706 
C 339 3597 403 3526 480 3392 
C 800 3635 960 3789 1190 4051 
C 1171 3853 1165 3654 1165 3424 
L 1165 2349 
C 1165 2176 1158 2016 1146 1920 
C 1280 1933 1350 1933 1587 1933 
L 2995 1933 
L 2995 1466 
L 1082 1466 
C 723 1466 538 1478 378 1504 
L 378 1082 
C 595 1107 794 1120 1082 1120 
L 2662 1120 
C 2432 902 2182 730 1843 550 
C 1357 294 922 147 288 32 
C 403 -96 467 -186 544 -352 
C 1005 -230 1402 -90 1766 90 
C 2272 333 2630 589 3014 992 
C 3008 915 3008 915 3008 806 
C 3002 787 3002 742 3002 678 
C 2995 608 2995 550 2995 506 
L 2995 0 
C 2995 -224 2989 -333 2957 -474 
L 3430 -474 
C 3398 -346 3392 -269 3392 6 
L 3392 506 
C 3392 685 3386 781 3373 992 
C 4013 346 4742 -51 5869 -384 
C 5939 -224 5997 -134 6112 13 
C 5523 134 5037 301 4576 544 
C 4230 723 3917 934 3706 1120 
L 5318 1120 
C 5613 1120 5811 1107 6035 1082 
L 6035 1504 
C 5869 1472 5683 1466 5318 1466 
L 3392 1466 
L 3392 1933 
z
M 1555 3898 
L 1555 4378 
L 3098 4378 
L 3098 3898 
L 1555 3898 
z
M 1555 3584 
L 3098 3584 
L 3098 3104 
L 1555 3104 
L 1555 3584 
z
M 1555 2790 
L 3098 2790 
L 3098 2253 
L 1555 2253 
L 1555 2790 
z
" transform="scale(0.015625)"/>
     </defs>
     <use xlink:href="#HiraginoSansGB-W3-42"/>
     <use xlink:href="#HiraginoSansGB-W3-50" x="71.199982"/>
     <use xlink:href="#HiraginoSansGB-W3-53" x="137.399979"/>
     <use xlink:href="#HiraginoSansGB-W3-4b" x="204.299973"/>
     <use xlink:href="#HiraginoSansGB-W3-20" x="274.999954"/>
     <use xlink:href="#HiraginoSansGB-W3-8bef" x="308.299942"/>
     <use xlink:href="#HiraginoSansGB-W3-7801" x="408.299927"/>
     <use xlink:href="#HiraginoSansGB-W3-7387" x="508.299911"/>
     <use xlink:href="#HiraginoSansGB-W3-ff1a" x="608.299896"/>
     <use xlink:href="#HiraginoSansGB-W3-41" x="708.299881"/>
     <use xlink:href="#HiraginoSansGB-W3-57" x="783.299866"/>
     <use xlink:href="#HiraginoSansGB-W3-47" x="883.899857"/>
     <use xlink:href="#HiraginoSansGB-W3-4e" x="959.29985"/>
     <use xlink:href="#HiraginoSansGB-W3-3001" x="1036.699844"/>
     <use xlink:href="#HiraginoSansGB-W3-745e" x="1136.699829"/>
     <use xlink:href="#HiraginoSansGB-W3-5229" x="1236.699814"/>
     <use xlink:href="#HiraginoSansGB-W3-4e0e" x="1336.699799"/>
     <use xlink:href="#HiraginoSansGB-W3-20" x="1436.699783"/>
     <use xlink:href="#HiraginoSansGB-W3-4d" x="1469.999771"/>
     <use xlink:href="#HiraginoSansGB-W3-52" x="1564.499756"/>
     <use xlink:href="#HiraginoSansGB-W3-43" x="1637.099747"/>
     <use xlink:href="#HiraginoSansGB-W3-20" x="1712.699738"/>
     <use xlink:href="#HiraginoSansGB-W3-5206" x="1745.999725"/>
     <use xlink:href="#HiraginoSansGB-W3-96c6" x="1845.99971"/>
    </g>
   </g>
  </g>
  <g id="legend_1">
   <g id="line2d_31">
    <path d="M 30.394805 294.332344 
L 39.844805 294.332344 
L 49.294805 294.332344 
" style="fill: none; stroke: #2f6fd1; stroke-width: 2; stroke-linecap: square"/>
    <g>
     <use xlink:href="#m9e8cea10ec" x="39.844805" y="294.332344" style="fill: #2f6fd1; stroke: #2f6fd1"/>
    </g>
   </g>
   <g id="text_17">
    <!-- AWGN -->
    <g style="fill: #2b2321" transform="translate(57.694805 298.007344) scale(0.105 -0.105)">
     <use xlink:href="#HiraginoSansGB-W3-41"/>
     <use xlink:href="#HiraginoSansGB-W3-57" x="74.999985"/>
     <use xlink:href="#HiraginoSansGB-W3-47" x="175.599976"/>
     <use xlink:href="#HiraginoSansGB-W3-4e" x="250.999969"/>
    </g>
   </g>
   <g id="line2d_32">
    <path d="M 106.877461 294.332344 
L 116.327461 294.332344 
L 125.777461 294.332344 
" style="fill: none; stroke: #e0552d; stroke-width: 2; stroke-linecap: square"/>
    <g>
     <use xlink:href="#mf165900cb7" x="116.327461" y="294.332344" style="fill: #e0552d; stroke: #e0552d"/>
    </g>
   </g>
   <g id="text_18">
    <!-- 瑞利，单支路 -->
    <g style="fill: #2b2321" transform="translate(134.177461 298.007344) scale(0.105 -0.105)">
     <defs>
      <path id="HiraginoSansGB-W3-ff0c" d="M 1370 691 
L 730 691 
L 730 58 
L 1101 58 
C 1107 -326 1050 -435 794 -550 
L 966 -762 
C 1286 -576 1370 -416 1370 58 
L 1370 691 
z
" transform="scale(0.015625)"/>
      <path id="HiraginoSansGB-W3-5355" d="M 1632 4115 
C 1325 4115 1139 4122 1005 4141 
C 1024 3968 1030 3795 1030 3501 
L 1030 2272 
C 1030 1997 1024 1869 1005 1664 
C 1216 1683 1376 1690 1638 1690 
L 2950 1690 
L 2950 1082 
L 1024 1082 
C 742 1082 550 1094 378 1120 
L 378 672 
C 570 698 768 710 1043 710 
L 2950 710 
L 2950 122 
C 2950 -192 2944 -314 2912 -480 
L 3392 -480 
C 3354 -294 3347 -173 3347 122 
L 3347 710 
L 5344 710 
C 5626 710 5837 698 6016 672 
L 6016 1120 
C 5850 1094 5651 1082 5370 1082 
L 3347 1082 
L 3347 1690 
L 4755 1690 
C 4986 1690 5171 1683 5389 1664 
C 5370 1818 5363 1984 5363 2291 
L 5363 3501 
C 5363 3808 5370 3968 5389 4141 
C 5261 4122 5069 4115 4755 4115 
L 3942 4115 
C 4173 4422 4429 4800 4646 5165 
L 4218 5306 
C 4045 4947 3782 4499 3501 4115 
L 1632 4115 
z
M 3347 3776 
L 4966 3776 
L 4966 3091 
L 3347 3091 
L 3347 3776 
z
M 2950 3776 
L 2950 3091 
L 1427 3091 
L 1427 3776 
L 2950 3776 
z
M 3347 2758 
L 4966 2758 
L 4966 2035 
L 3347 2035 
L 3347 2758 
z
M 2950 2758 
L 2950 2035 
L 1427 2035 
L 1427 2758 
L 2950 2758 
z
M 1722 5152 
C 1965 4870 2157 4576 2336 4211 
L 2714 4390 
C 2451 4838 2317 5037 2093 5306 
L 1722 5152 
z
" transform="scale(0.015625)"/>
     </defs>
     <use xlink:href="#HiraginoSansGB-W3-745e"/>
     <use xlink:href="#HiraginoSansGB-W3-5229" x="99.999985"/>
     <use xlink:href="#HiraginoSansGB-W3-ff0c" x="199.999969"/>
     <use xlink:href="#HiraginoSansGB-W3-5355" x="299.999954"/>
     <use xlink:href="#HiraginoSansGB-W3-652f" x="399.999939"/>
     <use xlink:href="#HiraginoSansGB-W3-8def" x="499.999924"/>
    </g>
   </g>
   <g id="line2d_33">
    <path d="M 211.877461 294.332344 
L 221.327461 294.332344 
L 230.777461 294.332344 
" style="fill: none; stroke: #1f9d55; stroke-width: 2; stroke-linecap: square"/>
    <g>
     <use xlink:href="#m123c47e4c5" x="221.327461" y="294.332344" style="fill: #1f9d55; stroke: #1f9d55"/>
    </g>
   </g>
   <g id="text_19">
    <!-- 瑞利，2 支路 MRC -->
    <g style="fill: #2b2321" transform="translate(239.177461 298.007344) scale(0.105 -0.105)">
     <use xlink:href="#HiraginoSansGB-W3-745e"/>
     <use xlink:href="#HiraginoSansGB-W3-5229" x="99.999985"/>
     <use xlink:href="#HiraginoSansGB-W3-ff0c" x="199.999969"/>
     <use xlink:href="#HiraginoSansGB-W3-32" x="299.999954"/>
     <use xlink:href="#HiraginoSansGB-W3-20" x="365.699951"/>
     <use xlink:href="#HiraginoSansGB-W3-652f" x="398.999939"/>
     <use xlink:href="#HiraginoSansGB-W3-8def" x="498.999924"/>
     <use xlink:href="#HiraginoSansGB-W3-20" x="598.999908"/>
     <use xlink:href="#HiraginoSansGB-W3-4d" x="632.299896"/>
     <use xlink:href="#HiraginoSansGB-W3-52" x="726.799881"/>
     <use xlink:href="#HiraginoSansGB-W3-43" x="799.399872"/>
    </g>
   </g>
   <g id="line2d_34">
    <path d="M 345.75082 294.332344 
L 355.20082 294.332344 
L 364.65082 294.332344 
" style="fill: none; stroke: #9b59b6; stroke-width: 2; stroke-linecap: square"/>
    <g>
     <use xlink:href="#m830338e5bd" x="355.20082" y="294.332344" style="fill: #9b59b6; stroke: #9b59b6"/>
    </g>
   </g>
   <g id="text_20">
    <!-- 瑞利，4 支路 MRC -->
    <g style="fill: #2b2321" transform="translate(373.05082 298.007344) scale(0.105 -0.105)">
     <defs>
      <path id="HiraginoSansGB-W3-34" d="M 198 1254 
C 410 1274 602 1280 960 1280 
L 2675 1280 
L 2675 730 
C 2675 442 2662 262 2624 38 
L 3206 38 
C 3168 275 3155 422 3155 730 
L 3155 1280 
L 3392 1280 
C 3667 1280 3827 1267 4064 1235 
L 4064 1766 
C 3834 1734 3667 1722 3398 1722 
L 3155 1722 
L 3155 3821 
C 3155 4326 3162 4525 3194 4902 
L 2714 4902 
C 2566 4678 2451 4518 2234 4250 
L 614 2227 
C 480 2067 333 1888 198 1734 
L 198 1254 
z
M 2682 1715 
L 768 1715 
L 2240 3571 
C 2426 3808 2586 4019 2720 4211 
C 2688 3885 2682 3680 2682 3341 
L 2682 1715 
z
" transform="scale(0.015625)"/>
     </defs>
     <use xlink:href="#HiraginoSansGB-W3-745e"/>
     <use xlink:href="#HiraginoSansGB-W3-5229" x="99.999985"/>
     <use xlink:href="#HiraginoSansGB-W3-ff0c" x="199.999969"/>
     <use xlink:href="#HiraginoSansGB-W3-34" x="299.999954"/>
     <use xlink:href="#HiraginoSansGB-W3-20" x="366.099945"/>
     <use xlink:href="#HiraginoSansGB-W3-652f" x="399.399933"/>
     <use xlink:href="#HiraginoSansGB-W3-8def" x="499.399918"/>
     <use xlink:href="#HiraginoSansGB-W3-20" x="599.399902"/>
     <use xlink:href="#HiraginoSansGB-W3-4d" x="632.69989"/>
     <use xlink:href="#HiraginoSansGB-W3-52" x="727.199875"/>
     <use xlink:href="#HiraginoSansGB-W3-43" x="799.799866"/>
    </g>
   </g>
  </g>
 </g>
 <defs>
  <clipPath id="p77db5d0b78">
   <rect x="49.43524" y="22.574459" width="436.025692" height="226.104821"/>
  </clipPath>
 </defs>
</svg>
