<?xml version="1.0" encoding="utf-8" standalone="no"?>
<!DOCTYPE svg PUBLIC "-//W3C//DTD SVG 1.1//EN"
  "http://www.w3.org/Graphics/SVG/1.1/DTD/svg11.dtd">
<svg xmlns:xlink="http://www.w3.org/1999/xlink" width="495.36pt" height="309.6pt" viewBox="0 0 495.36 309.6" xmlns="http://www.w3.org/2000/svg" version="1.1">
 <metadata>
  <rdf:RDF xmlns:dc="http://purl.org/dc/elements/1.1/" xmlns:cc="http://creativecommons.org/ns#" xmlns:rdf="http://www.w3.org/1999/02/22-rdf-syntax-ns#">
   <cc:Work>
    <dc:type rdf:resource="http://purl.org/dc/dcmitype/StillImage"/>
    <dc:format>image/svg+xml</dc:format>
   </cc:Work>
  </rdf:RDF>
 </metadata>
 <defs>
  <style type="text/css">*{stroke-linejoin: round; stroke-linecap: butt}</style>
 </defs>
 <g id="figure_1">
  <g id="patch_1">
   <path d="M 0 309.6 
L 495.36 309.6 
L 495.36 0 
L 0 0 
L 0 309.6 
z
" style="fill: none; opacity: 0"/>
  </g>
  <g id="axes_1">
   <g id="patch_2">
    <path d="M 45.351724 274.44476 
L 492.35976 274.44476 
L 492.35976 23.75024 
L 45.351724 23.75024 
L 45.351724 274.44476 
z
" style="fill: none"/>
   </g>
   <g id="matplotlib.axis_1">
    <g id="xtick_1">
     <g id="line2d_1">
      <path d="M 61.907578 274.44476 
L 61.907578 23.75024 
" clip-path="url(#p4529aa8352)" style="fill: none; stroke: #e9e3e0; stroke-width: 0.8; stroke-linecap: square"/>
     </g>
     <g id="line2d_2">
      <defs>
       <path id="ma0b750aba8" d="M 0 0 
L 0 3 
" style="stroke: #5f5552; stroke-width: 0.8"/>
      </defs>
      <g>
       <use xlink:href="#ma0b750aba8" x="61.907578" y="274.44476" style="fill: #5f5552; stroke: #5f5552; stroke-width: 0.8"/>
      </g>
     </g>
     <g id="text_1">
      <!-- $1/16$ -->
      <g style="fill: #5f5552" transform="translate(51.407578 288.81976) scale(0.105 -0.105)">
       <defs>
        <path id="Cmr10-31" d="M 594 0 
L 594 225 
Q 1394 225 1394 428 
L 1394 3788 
Q 1063 3628 556 3628 
L 556 3853 
Q 1341 3853 1741 4263 
L 1831 4263 
Q 1853 4263 1873 4245 
Q 1894 4228 1894 4206 
L 1894 428 
Q 1894 225 2694 225 
L 2694 0 
L 594 0 
z
" transform="scale(0.015625)"/>
        <path id="Cmmi10-3d" d="M 359 -1472 
Q 359 -1453 366 -1447 
L 2591 4722 
Q 2603 4759 2634 4779 
Q 2666 4800 2706 4800 
Q 2763 4800 2798 4765 
Q 2834 4731 2834 4672 
L 2834 4647 
L 609 -1522 
Q 572 -1600 488 -1600 
Q 434 -1600 396 -1562 
Q 359 -1525 359 -1472 
z
" transform="scale(0.015625)"/>
        <path id="Cmr10-36" d="M 1600 -141 
Q 1203 -141 937 70 
Q 672 281 526 617 
Q 381 953 325 1322 
Q 269 1691 269 2069 
Q 269 2575 466 3084 
Q 663 3594 1045 3928 
Q 1428 4263 1953 4263 
Q 2172 4263 2361 4180 
Q 2550 4097 2658 3936 
Q 2766 3775 2766 3547 
Q 2766 3416 2677 3327 
Q 2588 3238 2456 3238 
Q 2331 3238 2240 3328 
Q 2150 3419 2150 3547 
Q 2150 3672 2240 3762 
Q 2331 3853 2456 3853 
L 2491 3853 
Q 2409 3969 2261 4023 
Q 2113 4078 1953 4078 
Q 1759 4078 1595 3993 
Q 1431 3909 1300 3765 
Q 1169 3622 1081 3448 
Q 994 3275 945 3053 
Q 897 2831 884 2637 
Q 872 2444 872 2150 
Q 984 2413 1190 2580 
Q 1397 2747 1656 2747 
Q 1941 2747 2175 2631 
Q 2409 2516 2578 2311 
Q 2747 2106 2836 1843 
Q 2925 1581 2925 1313 
Q 2925 938 2758 598 
Q 2591 259 2287 59 
Q 1984 -141 1600 -141 
z
M 1600 63 
Q 1847 63 1997 175 
Q 2147 288 2217 473 
Q 2288 659 2305 848 
Q 2322 1038 2322 1313 
Q 2322 1675 2287 1931 
Q 2253 2188 2100 2383 
Q 1947 2578 1631 2578 
Q 1372 2578 1205 2403 
Q 1038 2228 961 1961 
Q 884 1694 884 1447 
Q 884 1363 891 1319 
Q 891 1309 889 1303 
Q 888 1297 884 1288 
Q 884 1013 940 731 
Q 997 450 1156 256 
Q 1316 63 1600 63 
z
" transform="scale(0.015625)"/>
       </defs>
       <use xlink:href="#Cmr10-31"/>
       <use xlink:href="#Cmmi10-3d" transform="translate(50 0)"/>
       <use xlink:href="#Cmr10-31" transform="translate(100 0)"/>
       <use xlink:href="#Cmr10-36" transform="translate(150 0)"/>
      </g>
     </g>
    </g>
    <g id="xtick_2">
     <g id="line2d_3">
      <path d="M 103.29721 274.44476 
L 103.29721 23.75024 
" clip-path="url(#p4529aa8352)" style="fill: none; stroke: #e9e3e0; stroke-width: 0.8; stroke-linecap: square"/>
     </g>
     <g id="line2d_4">
      <g>
       <use xlink:href="#ma0b750aba8" x="103.29721" y="274.44476" style="fill: #5f5552; stroke: #5f5552; stroke-width: 0.8"/>
      </g>
     </g>
     <g id="text_2">
      <!-- $1/8$ -->
      <g style="fill: #5f5552" transform="translate(95.42221 288.81976) scale(0.105 -0.105)">
       <defs>
        <path id="Cmr10-38" d="M 269 972 
Q 269 1356 522 1651 
Q 775 1947 1172 2144 
L 934 2297 
Q 716 2441 578 2680 
Q 441 2919 441 3181 
Q 441 3488 602 3734 
Q 763 3981 1030 4122 
Q 1297 4263 1600 4263 
Q 1884 4263 2148 4147 
Q 2413 4031 2583 3815 
Q 2753 3600 2753 3303 
Q 2753 3088 2651 2903 
Q 2550 2719 2373 2572 
Q 2197 2425 1997 2322 
L 2363 2088 
Q 2616 1922 2770 1653 
Q 2925 1384 2925 1088 
Q 2925 741 2739 456 
Q 2553 172 2247 15 
Q 1941 -141 1600 -141 
Q 1269 -141 961 -6 
Q 653 128 461 383 
Q 269 638 269 972 
z
M 616 972 
Q 616 719 755 509 
Q 894 300 1122 181 
Q 1350 63 1600 63 
Q 1972 63 2275 280 
Q 2578 497 2578 856 
Q 2578 978 2529 1098 
Q 2481 1219 2395 1317 
Q 2309 1416 2203 1478 
L 1344 2034 
Q 1144 1928 976 1765 
Q 809 1603 712 1400 
Q 616 1197 616 972 
z
M 1056 2925 
L 1831 2425 
Q 2100 2581 2272 2803 
Q 2444 3025 2444 3303 
Q 2444 3519 2323 3698 
Q 2203 3878 2009 3978 
Q 1816 4078 1594 4078 
Q 1400 4078 1203 4003 
Q 1006 3928 878 3779 
Q 750 3631 750 3431 
Q 750 3131 1056 2925 
z
" transform="scale(0.015625)"/>
       </defs>
       <use xlink:href="#Cmr10-31"/>
       <use xlink:href="#Cmmi10-3d" transform="translate(50 0)"/>
       <use xlink:href="#Cmr10-38" transform="translate(100 0)"/>
      </g>
     </g>
    </g>
    <g id="xtick_3">
     <g id="line2d_5">
      <path d="M 144.686843 274.44476 
L 144.686843 23.75024 
" clip-path="url(#p4529aa8352)" style="fill: none; stroke: #e9e3e0; stroke-width: 0.8; stroke-linecap: square"/>
     </g>
     <g id="line2d_6">
      <g>
       <use xlink:href="#ma0b750aba8" x="144.686843" y="274.44476" style="fill: #5f5552; stroke: #5f5552; stroke-width: 0.8"/>
      </g>
     </g>
     <g id="text_3">
      <!-- $1/4$ -->
      <g style="fill: #5f5552" transform="translate(136.811843 288.81976) scale(0.105 -0.105)">
       <defs>
        <path id="Cmr10-34" d="M 178 1056 
L 178 1281 
L 2156 4231 
Q 2178 4263 2222 4263 
L 2316 4263 
Q 2388 4263 2388 4191 
L 2388 1281 
L 3016 1281 
L 3016 1056 
L 2388 1056 
L 2388 428 
Q 2388 297 2575 261 
Q 2763 225 3009 225 
L 3009 0 
L 1247 0 
L 1247 225 
Q 1494 225 1681 261 
Q 1869 297 1869 428 
L 1869 1056 
L 178 1056 
z
M 391 1281 
L 1906 1281 
L 1906 3547 
L 391 1281 
z
" transform="scale(0.015625)"/>
       </defs>
       <use xlink:href="#Cmr10-31"/>
       <use xlink:href="#Cmmi10-3d" transform="translate(50 0)"/>
       <use xlink:href="#Cmr10-34" transform="translate(100 0)"/>
      </g>
     </g>
    </g>
    <g id="xtick_4">
     <g id="line2d_7">
      <path d="M 186.076476 274.44476 
L 186.076476 23.75024 
" clip-path="url(#p4529aa8352)" style="fill: none; stroke: #e9e3e0; stroke-width: 0.8; stroke-linecap: square"/>
     </g>
     <g id="line2d_8">
      <g>
       <use xlink:href="#ma0b750aba8" x="186.076476" y="274.44476" style="fill: #5f5552; stroke: #5f5552; stroke-width: 0.8"/>
      </g>
     </g>
     <g id="text_4">
      <!-- $1/2$ -->
      <g style="fill: #5f5552" transform="translate(178.201476 288.81976) scale(0.105 -0.105)">
       <defs>
        <path id="Cmr10-32" d="M 319 0 
L 319 172 
Q 319 188 331 206 
L 1325 1306 
Q 1550 1550 1690 1715 
Q 1831 1881 1968 2097 
Q 2106 2313 2186 2536 
Q 2266 2759 2266 3009 
Q 2266 3272 2169 3511 
Q 2072 3750 1880 3894 
Q 1688 4038 1416 4038 
Q 1138 4038 916 3870 
Q 694 3703 603 3438 
Q 628 3444 672 3444 
Q 816 3444 917 3347 
Q 1019 3250 1019 3097 
Q 1019 2950 917 2848 
Q 816 2747 672 2747 
Q 522 2747 420 2851 
Q 319 2956 319 3097 
Q 319 3338 409 3548 
Q 500 3759 670 3923 
Q 841 4088 1055 4175 
Q 1269 4263 1509 4263 
Q 1875 4263 2190 4108 
Q 2506 3953 2690 3670 
Q 2875 3388 2875 3009 
Q 2875 2731 2753 2481 
Q 2631 2231 2440 2026 
Q 2250 1822 1953 1562 
Q 1656 1303 1563 1216 
L 838 519 
L 1453 519 
Q 1906 519 2211 526 
Q 2516 534 2534 550 
Q 2609 631 2688 1141 
L 2875 1141 
L 2694 0 
L 319 0 
z
" transform="scale(0.015625)"/>
       </defs>
       <use xlink:href="#Cmr10-31"/>
       <use xlink:href="#Cmmi10-3d" transform="translate(50 0)"/>
       <use xlink:href="#Cmr10-32" transform="translate(100 0)"/>
      </g>
     </g>
    </g>
    <g id="xtick_5">
     <g id="line2d_9">
      <path d="M 227.466109 274.44476 
L 227.466109 23.75024 
" clip-path="url(#p4529aa8352)" style="fill: none; stroke: #e9e3e0; stroke-width: 0.8; stroke-linecap: square"/>
     </g>
     <g id="line2d_10">
      <g>
       <use xlink:href="#ma0b750aba8" x="227.466109" y="274.44476" style="fill: #5f5552; stroke: #5f5552; stroke-width: 0.8"/>
      </g>
     </g>
     <g id="text_5">
      <!-- $1$ -->
      <g style="fill: #5f5552" transform="translate(224.841109 288.987104) scale(0.105 -0.105)">
       <use xlink:href="#Cmr10-31" transform="translate(0 0.390625)"/>
      </g>
     </g>
    </g>
    <g id="xtick_6">
     <g id="line2d_11">
      <path d="M 268.855742 274.44476 
L 268.855742 23.75024 
" clip-path="url(#p4529aa8352)" style="fill: none; stroke: #e9e3e0; stroke-width: 0.8; stroke-linecap: square"/>
     </g>
     <g id="line2d_12">
      <g>
       <use xlink:href="#ma0b750aba8" x="268.855742" y="274.44476" style="fill: #5f5552; stroke: #5f5552; stroke-width: 0.8"/>
      </g>
     </g>
     <g id="text_6">
      <!-- $2$ -->
      <g style="fill: #5f5552" transform="translate(266.230742 288.987104) scale(0.105 -0.105)">
       <use xlink:href="#Cmr10-32" transform="translate(0 0.390625)"/>
      </g>
     </g>
    </g>
    <g id="xtick_7">
     <g id="line2d_13">
      <path d="M 310.245375 274.44476 
L 310.245375 23.75024 
" clip-path="url(#p4529aa8352)" style="fill: none; stroke: #e9e3e0; stroke-width: 0.8; stroke-linecap: square"/>
     </g>
     <g id="line2d_14">
      <g>
       <use xlink:href="#ma0b750aba8" x="310.245375" y="274.44476" style="fill: #5f5552; stroke: #5f5552; stroke-width: 0.8"/>
      </g>
     </g>
     <g id="text_7">
      <!-- $4$ -->
      <g style="fill: #5f5552" transform="translate(307.620375 288.987104) scale(0.105 -0.105)">
       <use xlink:href="#Cmr10-34" transform="translate(0 0.390625)"/>
      </g>
     </g>
    </g>
    <g id="xtick_8">
     <g id="line2d_15">
      <path d="M 351.635008 274.44476 
L 351.635008 23.75024 
" clip-path="url(#p4529aa8352)" style="fill: none; stroke: #e9e3e0; stroke-width: 0.8; stroke-linecap: square"/>
     </g>
     <g id="line2d_16">
      <g>
       <use xlink:href="#ma0b750aba8" x="351.635008" y="274.44476" style="fill: #5f5552; stroke: #5f5552; stroke-width: 0.8"/>
      </g>
     </g>
     <g id="text_8">
      <!-- $8$ -->
      <g style="fill: #5f5552" transform="translate(349.010008 288.987104) scale(0.105 -0.105)">
       <use xlink:href="#Cmr10-38" transform="translate(0 0.390625)"/>
      </g>
     </g>
    </g>
    <g id="xtick_9">
     <g id="line2d_17">
      <path d="M 393.024641 274.44476 
L 393.024641 23.75024 
" clip-path="url(#p4529aa8352)" style="fill: none; stroke: #e9e3e0; stroke-width: 0.8; stroke-linecap: square"/>
     </g>
     <g id="line2d_18">
      <g>
       <use xlink:href="#ma0b750aba8" x="393.024641" y="274.44476" style="fill: #5f5552; stroke: #5f5552; stroke-width: 0.8"/>
      </g>
     </g>
     <g id="text_9">
      <!-- $16$ -->
      <g style="fill: #5f5552" transform="translate(387.774641 288.987104) scale(0.105 -0.105)">
       <use xlink:href="#Cmr10-31" transform="translate(0 0.390625)"/>
       <use xlink:href="#Cmr10-36" transform="translate(50 0.390625)"/>
      </g>
     </g>
    </g>
    <g id="xtick_10">
     <g id="line2d_19">
      <path d="M 434.414274 274.44476 
L 434.414274 23.75024 
" clip-path="url(#p4529aa8352)" style="fill: none; stroke: #e9e3e0; stroke-width: 0.8; stroke-linecap: square"/>
     </g>
     <g id="line2d_20">
      <g>
       <use xlink:href="#ma0b750aba8" x="434.414274" y="274.44476" style="fill: #5f5552; stroke: #5f5552; stroke-width: 0.8"/>
      </g>
     </g>
     <g id="text_10">
      <!-- $32$ -->
      <g style="fill: #5f5552" transform="translate(429.164274 288.987104) scale(0.105 -0.105)">
       <defs>
        <path id="Cmr10-33" d="M 609 494 
Q 759 275 1012 169 
Q 1266 63 1556 63 
Q 1928 63 2084 380 
Q 2241 697 2241 1100 
Q 2241 1281 2208 1462 
Q 2175 1644 2097 1800 
Q 2019 1956 1883 2050 
Q 1747 2144 1550 2144 
L 1125 2144 
Q 1069 2144 1069 2203 
L 1069 2259 
Q 1069 2309 1125 2309 
L 1478 2338 
Q 1703 2338 1851 2506 
Q 2000 2675 2069 2917 
Q 2138 3159 2138 3378 
Q 2138 3684 1994 3881 
Q 1850 4078 1556 4078 
Q 1313 4078 1091 3986 
Q 869 3894 738 3706 
Q 750 3709 759 3711 
Q 769 3713 781 3713 
Q 925 3713 1022 3613 
Q 1119 3513 1119 3372 
Q 1119 3234 1022 3134 
Q 925 3034 781 3034 
Q 641 3034 541 3134 
Q 441 3234 441 3372 
Q 441 3647 606 3850 
Q 772 4053 1033 4158 
Q 1294 4263 1556 4263 
Q 1750 4263 1965 4205 
Q 2181 4147 2356 4039 
Q 2531 3931 2642 3762 
Q 2753 3594 2753 3378 
Q 2753 3109 2633 2881 
Q 2513 2653 2303 2487 
Q 2094 2322 1844 2241 
Q 2122 2188 2372 2031 
Q 2622 1875 2773 1631 
Q 2925 1388 2925 1106 
Q 2925 753 2731 467 
Q 2538 181 2222 20 
Q 1906 -141 1556 -141 
Q 1256 -141 954 -26 
Q 653 88 461 316 
Q 269 544 269 863 
Q 269 1022 375 1128 
Q 481 1234 641 1234 
Q 744 1234 830 1186 
Q 916 1138 964 1050 
Q 1013 963 1013 863 
Q 1013 706 903 600 
Q 794 494 641 494 
L 609 494 
z
" transform="scale(0.015625)"/>
       </defs>
       <use xlink:href="#Cmr10-33" transform="translate(0 0.390625)"/>
       <use xlink:href="#Cmr10-32" transform="translate(50 0.390625)"/>
      </g>
     </g>
    </g>
    <g id="xtick_11">
     <g id="line2d_21">
      <path d="M 475.803907 274.44476 
L 475.803907 23.75024 
" clip-path="url(#p4529aa8352)" style="fill: none; stroke: #e9e3e0; stroke-width: 0.8; stroke-linecap: square"/>
     </g>
     <g id="line2d_22">
      <g>
       <use xlink:href="#ma0b750aba8" x="475.803907" y="274.44476" style="fill: #5f5552; stroke: #5f5552; stroke-width: 0.8"/>
      </g>
     </g>
     <g id="text_11">
      <!-- $64$ -->
      <g style="fill: #5f5552" transform="translate(470.553907 288.987104) scale(0.105 -0.105)">
       <use xlink:href="#Cmr10-36" transform="translate(0 0.390625)"/>
       <use xlink:href="#Cmr10-34" transform="translate(50 0.390625)"/>
      </g>
     </g>
    </g>
    <g id="text_12">
     <!-- 总功率预算 $P$（每格翻倍） -->
     <g style="fill: #2b2321" transform="translate(199.970742 304.253041) scale(0.115 -0.115)">
      <defs>
       <path id="HiraginoSansGB-W3-603b" d="M 678 -218 
C 1088 339 1248 678 1466 1414 
L 1094 1555 
C 1018 1222 966 1082 813 774 
C 653 454 582 346 333 38 
L 678 -218 
z
M 1990 1613 
C 2022 1389 2029 1280 2029 1024 
L 2029 256 
C 2029 -58 2093 -160 2330 -243 
C 2483 -294 2822 -320 3277 -320 
C 3405 -320 3827 -301 4013 -288 
C 4288 -269 4410 -237 4518 -147 
C 4678 -19 4730 154 4794 800 
C 4595 851 4531 877 4390 954 
C 4371 435 4333 243 4237 173 
C 4115 83 3891 64 3078 64 
C 2822 64 2624 83 2547 109 
C 2458 141 2432 192 2432 333 
L 2432 1024 
C 2432 1325 2438 1414 2470 1613 
L 1990 1613 
z
M 6112 102 
C 5779 762 5587 1069 5178 1606 
L 4845 1434 
C 5280 864 5408 640 5747 -147 
L 6112 102 
z
M 1210 2739 
C 1210 2573 1197 2419 1178 2234 
C 1312 2253 1427 2259 1619 2259 
L 4851 2259 
C 5050 2259 5146 2253 5299 2234 
C 5274 2419 5267 2560 5267 2733 
L 5267 3558 
C 5267 3789 5274 3904 5299 4058 
C 5146 4038 5050 4032 4838 4032 
L 4134 4032 
C 4371 4352 4563 4659 4832 5184 
L 4403 5338 
C 4218 4832 4090 4602 3693 4032 
L 1638 4032 
C 1434 4032 1331 4038 1178 4058 
C 1203 3904 1210 3782 1210 3558 
L 1210 2739 
z
M 1626 3674 
L 4851 3674 
L 4851 2618 
L 1626 2618 
L 1626 3674 
z
M 2630 4326 
C 2406 4736 2336 4832 1952 5312 
L 1581 5126 
C 1939 4723 2054 4550 2259 4134 
L 2630 4326 
z
M 4013 1350 
C 3558 1722 3309 1888 2899 2125 
L 2656 1856 
C 3072 1626 3341 1421 3757 1030 
L 4013 1350 
z
" transform="scale(0.015625)"/>
       <path id="HiraginoSansGB-W3-529f" d="M 3744 3430 
C 3635 2349 3443 1690 3072 1088 
C 2771 608 2419 262 1837 -122 
C 1978 -218 2035 -275 2150 -442 
C 3219 314 3776 1203 4026 2547 
C 4083 2829 4134 3206 4154 3430 
L 5491 3430 
C 5459 1971 5402 1152 5280 518 
C 5210 141 5158 83 4877 83 
C 4640 83 4378 109 4000 179 
C 4064 26 4090 -90 4102 -262 
C 4410 -301 4627 -314 4826 -314 
C 5395 -314 5542 -224 5645 211 
C 5754 640 5862 1754 5894 2726 
C 5920 3648 5920 3661 5939 3821 
C 5824 3802 5664 3795 5376 3795 
L 4179 3795 
C 4198 4109 4205 4262 4211 4768 
C 4211 4973 4224 5088 4250 5267 
L 3757 5267 
C 3789 5062 3795 4934 3795 4691 
C 3795 4371 3789 4147 3770 3795 
L 3117 3795 
C 2829 3795 2688 3808 2528 3834 
L 2528 3398 
C 2656 3424 2822 3430 3142 3430 
L 3744 3430 
z
M 1709 4256 
L 2234 4256 
C 2419 4256 2560 4250 2707 4224 
L 2707 4653 
C 2554 4627 2413 4621 2189 4621 
L 870 4621 
C 646 4621 499 4627 352 4653 
L 352 4224 
C 506 4250 640 4256 832 4256 
L 1306 4256 
L 1306 1434 
C 646 1229 506 1190 288 1165 
L 410 698 
C 486 742 595 787 710 819 
C 1677 1146 2067 1286 2720 1568 
L 2720 1965 
C 2298 1779 2131 1709 1709 1568 
L 1709 4256 
z
" transform="scale(0.015625)"/>
       <path id="HiraginoSansGB-W3-7387" d="M 2848 4448 
C 2714 4224 2637 4109 2477 3910 
C 2298 3680 2202 3610 2016 3546 
L 2099 3226 
C 2202 3232 2202 3232 2317 3251 
C 2490 3270 2490 3270 2726 3283 
C 2861 3290 2970 3302 3200 3322 
C 2835 2906 2630 2701 2419 2534 
C 2182 2355 2093 2310 1862 2253 
L 1939 1914 
C 2080 1926 2080 1926 2246 1952 
C 2643 2016 2720 2022 3078 2054 
C 3558 2099 3558 2099 4102 2163 
C 4179 2054 4224 1971 4371 1722 
L 4691 1971 
C 4512 2246 4205 2630 3802 3059 
L 3507 2835 
C 3693 2675 3757 2611 3885 2464 
C 3552 2413 3437 2400 2714 2336 
C 3078 2669 3270 2861 3437 3066 
C 3962 3699 3962 3699 4173 3949 
L 3834 4154 
C 3648 3885 3552 3750 3482 3661 
C 3277 3642 3277 3642 2989 3616 
C 2790 3597 2790 3597 2630 3578 
C 2906 3885 2906 3885 3302 4448 
L 5427 4448 
C 5677 4448 5875 4435 6061 4416 
L 6061 4858 
C 5882 4832 5683 4819 5395 4819 
L 3437 4819 
C 3283 5101 3270 5114 3059 5382 
L 2720 5222 
C 2816 5107 2893 4998 3002 4819 
L 1069 4819 
C 781 4819 589 4832 403 4858 
L 403 4416 
C 589 4435 794 4448 1037 4448 
L 2848 4448 
z
M 3334 998 
L 5408 998 
C 5677 998 5888 986 6074 960 
L 6074 1414 
C 5901 1389 5670 1370 5440 1370 
L 3334 1370 
L 3334 1472 
C 3334 1658 3341 1773 3360 1888 
L 2899 1888 
C 2918 1766 2925 1651 2925 1478 
L 2925 1370 
L 966 1370 
C 736 1370 486 1389 326 1414 
L 326 960 
C 544 986 723 998 986 998 
L 2925 998 
L 2925 32 
C 2925 -173 2912 -326 2880 -525 
L 3379 -525 
C 3347 -346 3334 -179 3334 32 
L 3334 998 
z
M 634 3942 
C 1030 3642 1171 3501 1523 3078 
L 1818 3347 
C 1510 3686 1293 3885 922 4179 
L 634 3942 
z
M 563 1773 
C 704 1850 736 1869 832 1914 
C 992 1997 1043 2022 1171 2093 
C 1478 2266 1670 2394 2029 2662 
L 1869 2982 
C 1370 2586 864 2310 371 2163 
L 563 1773 
z
M 5293 4205 
C 4973 3834 4717 3603 4282 3322 
L 4550 3059 
C 4979 3360 5261 3603 5594 3962 
L 5293 4205 
z
M 4467 2714 
C 4986 2374 5274 2144 5658 1734 
L 5933 2054 
C 5498 2438 5242 2630 4717 2957 
L 4467 2714 
z
" transform="scale(0.015625)"/>
       <path id="HiraginoSansGB-W3-9884" d="M 1504 3878 
C 1171 4186 1171 4186 960 4339 
L 672 4115 
C 1114 3776 1357 3546 1715 3098 
L 909 3098 
C 659 3098 474 3110 314 3136 
L 314 2707 
C 486 2733 685 2746 922 2746 
L 1331 2746 
L 1331 134 
C 1331 6 1306 -13 1152 -13 
C 909 -13 710 6 454 58 
C 493 -102 512 -205 518 -358 
C 787 -378 934 -384 1114 -384 
C 1632 -384 1728 -314 1728 64 
L 1728 2746 
L 2432 2746 
C 2304 2400 2170 2176 1907 1882 
C 2042 1818 2131 1754 2221 1645 
C 2445 1946 2598 2195 2694 2426 
C 2842 2790 2848 2816 2899 2899 
L 2662 3123 
C 2554 3104 2426 3098 2189 3098 
L 1779 3098 
L 2054 3315 
C 1920 3462 1882 3507 1760 3629 
C 1946 3808 1946 3808 2016 3885 
C 2195 4090 2483 4461 2579 4621 
C 2605 4659 2618 4678 2624 4685 
C 2669 4742 2669 4742 2688 4762 
C 2694 4774 2707 4794 2720 4813 
L 2515 5075 
C 2413 5056 2278 5050 2022 5050 
L 1037 5050 
C 781 5050 595 5062 416 5088 
L 416 4659 
C 595 4685 781 4698 1018 4698 
L 2176 4698 
C 1984 4397 1818 4186 1613 3987 
L 1504 3878 
z
M 4352 4736 
C 4307 4538 4218 4288 4090 4013 
L 3654 4013 
C 3379 4013 3245 4019 3059 4032 
C 3078 3904 3085 3757 3085 3552 
L 3085 1626 
C 3085 1350 3072 1184 3046 986 
L 3494 986 
C 3469 1184 3456 1350 3456 1626 
L 3456 3674 
L 5472 3674 
L 5472 1626 
C 5472 1344 5459 1178 5434 979 
L 5894 979 
C 5869 1178 5856 1344 5856 1626 
L 5856 3584 
C 5856 3795 5862 3923 5882 4032 
C 5702 4019 5555 4013 5254 4013 
L 4506 4013 
C 4678 4435 4710 4512 4781 4736 
L 5530 4736 
C 5786 4736 5933 4730 6118 4704 
L 6118 5120 
C 5978 5094 5811 5082 5510 5082 
L 3514 5082 
C 3213 5082 3085 5088 2899 5120 
L 2899 4710 
C 3046 4730 3187 4736 3501 4736 
L 4352 4736 
z
M 4646 506 
C 5133 218 5491 -51 5939 -467 
L 6182 -122 
C 5786 218 5382 493 4870 794 
L 4646 506 
z
M 4224 3251 
C 4250 3117 4262 2899 4262 2675 
L 4262 1843 
C 4262 1363 4230 1133 4134 909 
C 4026 666 3795 422 3539 288 
C 3206 109 2957 32 2253 -109 
C 2381 -237 2470 -346 2541 -474 
C 2989 -358 3219 -288 3405 -205 
C 3885 -13 4179 211 4384 538 
C 4595 870 4659 1171 4659 1843 
L 4659 2669 
C 4659 2938 4672 3123 4698 3251 
L 4224 3251 
z
" transform="scale(0.015625)"/>
       <path id="HiraginoSansGB-W3-7b97" d="M 1523 4851 
C 1638 5062 1670 5120 1754 5293 
L 1350 5427 
C 1254 5139 1171 4960 986 4698 
C 787 4397 627 4224 326 3955 
C 454 3872 525 3802 627 3674 
C 883 3923 1101 4186 1318 4512 
L 1805 4512 
C 1946 4301 2035 4134 2163 3859 
L 2509 4000 
C 2406 4179 2298 4346 2182 4512 
L 2528 4512 
C 2797 4512 2970 4506 3136 4486 
L 3136 4890 
C 2982 4864 2803 4851 2509 4851 
L 1523 4851 
z
M 3930 4851 
C 4026 5030 4058 5094 4154 5299 
L 3770 5434 
C 3590 4890 3309 4454 2893 4083 
C 3040 4006 3098 3962 3206 3859 
C 3405 4064 3578 4275 3731 4512 
L 4307 4512 
C 4474 4282 4557 4141 4685 3872 
L 5024 4019 
C 4915 4198 4813 4352 4698 4512 
L 5370 4512 
C 5632 4512 5843 4499 6035 4480 
L 6035 4890 
C 5850 4864 5670 4851 5370 4851 
L 3930 4851 
z
M 2061 576 
C 1971 384 1869 275 1677 154 
C 1427 -6 1222 -70 595 -192 
C 723 -320 781 -397 858 -544 
C 1318 -435 1677 -301 1939 -128 
C 2189 45 2355 256 2464 576 
L 3917 576 
L 3917 134 
C 3917 -141 3904 -326 3878 -474 
L 4346 -474 
C 4320 -294 4307 -109 4307 134 
L 4307 576 
L 5344 576 
C 5632 576 5843 563 6048 538 
L 6048 954 
C 5888 928 5683 915 5344 915 
L 4307 915 
L 4307 1370 
L 4531 1370 
C 4864 1370 5069 1363 5242 1344 
C 5222 1485 5216 1645 5216 2010 
L 5216 3110 
C 5216 3424 5222 3616 5235 3814 
C 5037 3795 4915 3789 4570 3789 
L 1869 3789 
C 1568 3789 1434 3795 1248 3808 
C 1261 3629 1267 3443 1267 3149 
L 1267 1997 
C 1267 1651 1261 1504 1242 1344 
C 1414 1363 1619 1370 1952 1370 
L 2182 1370 
C 2176 1107 2170 1062 2150 915 
L 1069 915 
C 736 915 544 928 371 954 
L 371 538 
C 589 563 787 576 1069 576 
L 2061 576 
z
M 3917 1370 
L 3917 915 
L 2547 915 
C 2566 1050 2573 1094 2586 1370 
L 3917 1370 
z
M 1638 3475 
L 4845 3475 
L 4845 3078 
L 1638 3078 
L 1638 3475 
z
M 1638 2778 
L 4845 2778 
L 4845 2381 
L 1638 2381 
L 1638 2778 
z
M 1638 2080 
L 4845 2080 
L 4845 1677 
L 1638 1677 
L 1638 2080 
z
" transform="scale(0.015625)"/>
       <path id="HiraginoSansGB-W3-20" transform="scale(0.015625)"/>
       <path id="Cmmi10-50" d="M 313 0 
Q 250 0 250 84 
Q 253 100 262 139 
Q 272 178 289 201 
Q 306 225 331 225 
Q 722 225 878 269 
Q 959 297 997 441 
L 1875 3956 
Q 1888 4019 1888 4044 
Q 1888 4113 1813 4122 
Q 1691 4147 1350 4147 
Q 1288 4147 1288 4231 
Q 1291 4247 1300 4286 
Q 1309 4325 1326 4348 
Q 1344 4372 1369 4372 
L 3578 4372 
Q 3881 4372 4165 4264 
Q 4450 4156 4631 3934 
Q 4813 3713 4813 3397 
Q 4813 2991 4527 2672 
Q 4241 2353 3814 2175 
Q 3388 1997 2988 1997 
L 1947 1997 
L 1556 416 
Q 1544 353 1544 325 
Q 1544 300 1551 283 
Q 1559 266 1573 261 
Q 1588 256 1619 250 
Q 1741 225 2081 225 
Q 2144 225 2144 141 
Q 2122 50 2109 25 
Q 2097 0 2034 0 
L 313 0 
z
M 1978 2188 
L 2875 2188 
Q 3497 2188 3822 2522 
Q 3988 2688 4092 3000 
Q 4197 3313 4197 3566 
Q 4197 3881 3956 4014 
Q 3716 4147 3359 4147 
L 2747 4147 
Q 2572 4147 2515 4117 
Q 2459 4088 2413 3928 
L 1978 2188 
z
" transform="scale(0.015625)"/>
       <path id="HiraginoSansGB-W3-ff08" d="M 6157 -518 
C 5619 26 5408 314 5184 806 
C 4954 1318 4838 1850 4838 2432 
C 4838 3014 4954 3546 5184 4058 
C 5408 4550 5619 4838 6157 5382 
L 5587 5382 
C 5107 4832 4909 4525 4698 4006 
C 4486 3494 4390 2989 4390 2432 
C 4390 1875 4486 1370 4698 858 
C 4909 339 5107 32 5587 -518 
L 6157 -518 
z
" transform="scale(0.015625)"/>
       <path id="HiraginoSansGB-W3-6bcf" d="M 5094 4333 
C 5440 4333 5651 4320 5901 4294 
L 5901 4749 
C 5677 4717 5466 4704 5094 4704 
L 1888 4704 
C 1914 4755 1933 4781 1958 4832 
C 2118 5152 2144 5197 2221 5325 
L 1773 5440 
C 1741 5318 1683 5184 1594 4992 
C 1267 4339 858 3853 275 3430 
C 397 3322 467 3238 557 3085 
C 1030 3488 1357 3853 1664 4333 
L 5094 4333 
z
M 2752 3104 
C 3098 2790 3142 2746 3424 2374 
L 3731 2624 
C 3462 2944 3386 3021 3046 3315 
L 2752 3104 
z
M 2662 1581 
C 2944 1338 3104 1146 3334 813 
L 3642 1075 
C 3398 1382 3213 1581 2957 1811 
L 2662 1581 
z
M 4966 717 
C 5024 1088 5082 1555 5114 1920 
L 5491 1920 
C 5766 1920 5920 1914 6086 1888 
L 6086 2323 
C 5939 2298 5779 2291 5491 2291 
L 5139 2291 
C 5165 2650 5184 2982 5203 3309 
C 5216 3571 5222 3622 5242 3770 
C 5088 3750 4934 3744 4717 3744 
L 1952 3744 
C 1779 3744 1645 3750 1536 3763 
C 1523 3763 1498 3770 1466 3770 
C 1478 3699 1478 3674 1478 3616 
C 1478 3328 1414 2701 1350 2291 
L 941 2291 
C 627 2291 467 2298 307 2330 
L 307 1882 
C 461 1914 614 1920 922 1920 
L 1280 1920 
C 1120 1158 1024 781 851 326 
C 941 333 941 333 1216 346 
L 4474 346 
C 4435 166 4429 147 4403 83 
C 4358 -19 4262 -64 4102 -64 
C 3910 -64 3718 -45 3366 13 
C 3418 -154 3437 -256 3443 -422 
C 3738 -454 3891 -461 4077 -461 
C 4410 -461 4550 -422 4666 -294 
C 4768 -186 4819 -38 4896 346 
L 5152 346 
C 5440 346 5581 339 5747 314 
L 5747 749 
C 5600 723 5453 717 5165 717 
L 4966 717 
z
M 1382 717 
C 1510 1146 1626 1600 1690 1920 
L 4698 1920 
C 4621 1152 4621 1152 4550 717 
L 1382 717 
z
M 1760 2291 
C 1805 2611 1818 2714 1894 3373 
L 4787 3379 
C 4762 2810 4755 2688 4730 2291 
L 1760 2291 
z
" transform="scale(0.015625)"/>
       <path id="HiraginoSansGB-W3-683c" d="M 2835 147 
C 2835 -173 2829 -339 2803 -493 
L 3226 -493 
L 3226 -122 
L 5216 -122 
L 5216 -493 
L 5638 -493 
C 5613 -352 5606 -173 5606 154 
L 5606 1312 
C 5606 1626 5606 1702 5626 1850 
C 5741 1798 5830 1760 6099 1645 
C 6163 1798 6227 1901 6336 2035 
C 5555 2310 5094 2547 4499 2995 
C 4883 3366 5171 3757 5459 4269 
C 5562 4442 5562 4448 5613 4518 
L 5363 4774 
C 5235 4749 5088 4742 4762 4742 
L 3680 4742 
C 3699 4781 3763 4915 3776 4960 
C 3878 5190 3885 5210 3910 5254 
L 3488 5357 
C 3360 4736 2842 3910 2266 3379 
C 2400 3296 2464 3232 2554 3110 
C 2816 3379 2976 3571 3187 3891 
C 3514 3430 3680 3232 3942 2989 
C 3398 2541 2912 2266 2106 1946 
C 2246 1811 2272 1779 2368 1619 
C 2586 1722 2586 1722 2816 1830 
C 2835 1683 2835 1600 2835 1312 
L 2835 147 
z
M 3334 1850 
C 3059 1850 3027 1850 2874 1862 
C 3456 2157 3859 2426 4224 2739 
C 4621 2400 5126 2080 5600 1862 
C 5510 1856 5344 1850 5101 1850 
L 3334 1850 
z
M 5075 4390 
C 4806 3885 4614 3622 4218 3232 
C 3866 3552 3706 3744 3392 4211 
C 3462 4326 3462 4333 3494 4390 
L 5075 4390 
z
M 3226 1504 
L 5216 1504 
L 5216 230 
L 3226 230 
L 3226 1504 
z
M 1325 4058 
L 934 4058 
C 723 4058 570 4064 467 4083 
L 467 3686 
C 602 3706 730 3712 928 3712 
L 1274 3712 
C 1082 2822 749 2029 320 1446 
C 435 1344 493 1274 589 1114 
C 768 1376 858 1542 986 1856 
C 1152 2240 1222 2477 1363 3046 
C 1338 2586 1325 2266 1325 2048 
L 1325 243 
C 1325 -96 1312 -314 1286 -499 
L 1747 -499 
C 1722 -320 1709 -102 1709 243 
L 1709 2976 
C 2086 2426 2086 2426 2214 2202 
L 2483 2477 
C 2330 2714 2118 2963 1709 3411 
L 1709 3712 
L 2003 3712 
C 2150 3712 2285 3706 2406 3693 
L 2406 4083 
C 2291 4064 2176 4058 1997 4058 
L 1709 4058 
L 1709 4685 
C 1709 4998 1715 5178 1741 5344 
L 1293 5344 
C 1318 5197 1325 5050 1325 4678 
L 1325 4058 
z
" transform="scale(0.015625)"/>
       <path id="HiraginoSansGB-W3-7ffb" d="M 1619 3699 
L 1299 3699 
C 1210 3949 1120 4173 986 4442 
L 685 4326 
C 819 4096 890 3942 973 3699 
L 851 3699 
C 653 3699 474 3712 365 3731 
L 365 3354 
C 480 3373 672 3386 851 3386 
L 1485 3386 
C 1229 3072 1203 3046 979 2842 
C 698 2592 557 2483 192 2253 
C 314 2144 339 2106 416 1958 
C 570 2074 621 2118 685 2170 
C 691 2035 698 1888 698 1696 
L 698 243 
C 698 -26 685 -237 659 -429 
L 1050 -429 
L 1050 -147 
L 2502 -147 
L 2502 -422 
L 2874 -422 
C 2854 -237 2842 6 2842 243 
L 2842 1709 
C 2842 1958 2848 2144 2861 2317 
C 2726 2298 2579 2291 2317 2291 
L 1229 2291 
C 1088 2291 909 2298 838 2298 
C 1242 2662 1376 2816 1638 3200 
C 1632 3130 1626 3008 1619 2848 
L 1619 2694 
C 1619 2630 1606 2509 1600 2438 
L 1958 2438 
C 1952 2490 1939 2630 1939 2694 
L 1939 3053 
C 2438 2758 2739 2554 3014 2310 
L 3181 2598 
C 2906 2797 2637 2963 2304 3136 
C 2093 3245 2067 3258 1939 3322 
L 1939 3386 
L 2662 3386 
C 2835 3386 2957 3379 3059 3360 
L 3059 3725 
C 2970 3706 2854 3699 2662 3699 
L 2534 3699 
C 2675 3910 2771 4077 2944 4435 
L 2618 4576 
C 2490 4198 2394 4006 2195 3699 
L 1939 3699 
L 1939 4691 
C 2291 4755 2534 4819 2880 4934 
L 2624 5261 
C 2093 4992 1408 4864 410 4858 
C 486 4730 525 4640 563 4518 
C 1107 4563 1344 4589 1619 4634 
L 1619 3699 
z
M 1037 1984 
L 1606 1984 
L 1606 1254 
L 1037 1254 
L 1037 1984 
z
M 1920 1984 
L 2509 1984 
L 2509 1254 
L 1920 1254 
L 1920 1984 
z
M 1037 954 
L 1606 954 
L 1606 160 
L 1037 160 
L 1037 954 
z
M 1920 954 
L 2509 954 
L 2509 160 
L 1920 160 
L 1920 954 
z
M 4032 2246 
C 3622 1850 3277 1581 3008 1459 
L 3187 1082 
C 3251 1146 3290 1171 3373 1248 
C 3706 1523 3891 1690 4032 1850 
L 4032 205 
C 4032 96 3974 51 3840 51 
C 3661 51 3418 83 3168 147 
C 3232 -26 3258 -128 3277 -282 
C 3526 -314 3635 -320 3853 -320 
C 4262 -320 4390 -211 4390 141 
L 4390 4474 
C 4390 4704 4397 4851 4416 5018 
C 4294 5005 4173 4998 3968 4998 
L 3514 4998 
C 3283 4998 3168 5005 3034 5030 
L 3034 4614 
C 3174 4640 3296 4646 3482 4646 
L 4032 4646 
L 4032 2246 
z
M 5517 2272 
C 5120 1888 4749 1606 4480 1478 
L 4666 1094 
C 4736 1158 4781 1197 4858 1261 
C 5190 1542 5312 1645 5517 1862 
L 5517 205 
C 5517 90 5466 51 5318 51 
C 5139 51 4902 83 4653 147 
C 4723 -32 4749 -134 4762 -282 
C 5043 -314 5133 -320 5286 -320 
C 5530 -320 5638 -301 5722 -250 
C 5830 -186 5882 -58 5882 141 
L 5882 4474 
C 5882 4704 5888 4864 5907 5018 
C 5786 5005 5670 4998 5459 4998 
L 5030 4998 
C 4800 4998 4685 5005 4550 5030 
L 4550 4614 
C 4691 4640 4813 4646 4998 4646 
L 5517 4646 
L 5517 2272 
z
M 3110 4032 
C 3328 3616 3462 3251 3584 2752 
L 3885 2893 
C 3763 3360 3674 3603 3411 4166 
L 3110 4032 
z
M 4589 4032 
C 4819 3590 4934 3277 5056 2752 
L 5370 2899 
C 5229 3405 5133 3661 4896 4173 
L 4589 4032 
z
" transform="scale(0.015625)"/>
       <path id="HiraginoSansGB-W3-500d" d="M 2310 2880 
C 2022 2880 1875 2886 1734 2912 
L 1734 2477 
C 1894 2502 2048 2509 2317 2509 
L 5446 2509 
C 5754 2509 5907 2502 6067 2477 
L 6067 2912 
C 5920 2886 5734 2880 5440 2880 
L 4653 2880 
C 4883 3238 4992 3437 5216 3910 
L 4813 4045 
C 4634 3571 4461 3226 4237 2880 
L 2310 2880 
z
M 4154 4557 
C 4013 4890 3949 5024 3738 5363 
L 3379 5235 
C 3552 4986 3648 4806 3757 4557 
L 2637 4557 
C 2330 4557 2157 4563 2010 4589 
L 2010 4160 
C 2150 4186 2310 4192 2624 4192 
L 5280 4192 
C 5600 4192 5747 4186 5901 4160 
L 5901 4589 
C 5760 4570 5568 4557 5267 4557 
L 4154 4557 
z
M 992 301 
C 992 -38 979 -237 954 -467 
L 1421 -467 
C 1395 -250 1389 -32 1389 282 
L 1389 3680 
C 1613 4122 1798 4570 1894 4896 
C 1958 5088 1978 5146 2022 5261 
L 1587 5382 
C 1555 5178 1466 4845 1350 4538 
C 1050 3757 666 3130 141 2586 
C 256 2464 301 2406 397 2227 
C 672 2522 813 2720 1018 3091 
C 998 2803 992 2598 992 2323 
L 992 301 
z
M 2598 3923 
C 2778 3603 2880 3360 2989 2957 
L 3373 3110 
C 3245 3494 3130 3750 2957 4058 
L 2598 3923 
z
M 2726 -19 
L 4954 -19 
L 4954 -403 
L 5402 -403 
C 5376 -243 5370 -96 5370 134 
L 5370 1350 
C 5370 1632 5376 1760 5395 1914 
C 5248 1894 5133 1888 4922 1888 
L 2816 1888 
C 2611 1888 2470 1894 2304 1914 
C 2323 1728 2330 1606 2330 1370 
L 2330 179 
C 2330 -83 2323 -243 2298 -403 
L 2726 -403 
L 2726 -19 
z
M 2726 1530 
L 4960 1530 
L 4960 346 
L 2726 346 
L 2726 1530 
z
" transform="scale(0.015625)"/>
       <path id="HiraginoSansGB-W3-ff09" d="M 813 -518 
C 1293 32 1491 339 1702 858 
C 1914 1370 2010 1875 2010 2432 
C 2010 2989 1914 3494 1702 4006 
C 1491 4525 1293 4832 813 5382 
L 243 5382 
C 781 4845 992 4550 1216 4058 
C 1446 3546 1562 3014 1562 2432 
C 1562 1850 1446 1318 1216 806 
C 992 314 781 19 243 -518 
L 813 -518 
z
" transform="scale(0.015625)"/>
      </defs>
      <use xlink:href="#HiraginoSansGB-W3-603b"/>
      <use xlink:href="#HiraginoSansGB-W3-529f" transform="translate(99.999985 0)"/>
      <use xlink:href="#HiraginoSansGB-W3-7387" transform="translate(199.999969 0)"/>
      <use xlink:href="#HiraginoSansGB-W3-9884" transform="translate(299.999954 0)"/>
      <use xlink:href="#HiraginoSansGB-W3-7b97" transform="translate(399.999939 0)"/>
      <use xlink:href="#HiraginoSansGB-W3-20" transform="translate(499.999924 0)"/>
      <use xlink:href="#Cmmi10-50" transform="translate(533.299911 0)"/>
      <use xlink:href="#HiraginoSansGB-W3-ff08" transform="translate(597.508896 0)"/>
      <use xlink:href="#HiraginoSansGB-W3-6bcf" transform="translate(697.508881 0)"/>
      <use xlink:href="#HiraginoSansGB-W3-683c" transform="translate(797.508865 0)"/>
      <use xlink:href="#HiraginoSansGB-W3-7ffb" transform="translate(897.50885 0)"/>
      <use xlink:href="#HiraginoSansGB-W3-500d" transform="translate(997.508835 0)"/>
      <use xlink:href="#HiraginoSansGB-W3-ff09" transform="translate(1097.50882 0)"/>
     </g>
    </g>
   </g>
   <g id="matplotlib.axis_2">
    <g id="ytick_1">
     <g id="line2d_23">
      <path d="M 45.351724 274.44476 
L 492.35976 274.44476 
" clip-path="url(#p4529aa8352)" style="fill: none; stroke: #e9e3e0; stroke-width: 0.8; stroke-linecap: square"/>
     </g>
     <g id="line2d_24">
      <defs>
       <path id="m88843fa882" d="M 0 0 
L -3 0 
" style="stroke: #5f5552; stroke-width: 0.8"/>
      </defs>
      <g>
       <use xlink:href="#m88843fa882" x="45.351724" y="274.44476" style="fill: #5f5552; stroke: #5f5552; stroke-width: 0.8"/>
      </g>
     </g>
     <g id="text_13">
      <!-- 0 -->
      <g style="fill: #5f5552" transform="translate(31.952896 278.465932) scale(0.105 -0.105)">
       <defs>
        <path id="HiraginoSansGB-W3-30" d="M 2099 -58 
C 2688 -58 3136 166 3456 614 
C 3738 1005 3904 1690 3904 2464 
C 3904 2995 3821 3507 3661 3949 
C 3584 4160 3456 4358 3277 4538 
C 2989 4838 2579 4992 2106 4992 
C 1472 4992 979 4723 672 4205 
C 448 3834 301 3142 301 2464 
C 301 1939 384 1434 544 986 
C 621 768 755 570 928 397 
C 1229 96 1626 -58 2099 -58 
z
M 2099 4550 
C 2547 4550 2893 4352 3104 3968 
C 3270 3667 3392 3034 3392 2477 
C 3392 2003 3328 1581 3194 1184 
C 3136 998 3034 832 2893 685 
C 2701 486 2426 384 2106 384 
C 1670 384 1338 570 1114 941 
C 941 1242 813 1869 813 2464 
C 813 2931 877 3366 1011 3757 
C 1062 3917 1165 4077 1299 4224 
C 1504 4442 1766 4550 2099 4550 
z
" transform="scale(0.015625)"/>
       </defs>
       <use xlink:href="#HiraginoSansGB-W3-30"/>
      </g>
     </g>
    </g>
    <g id="ytick_2">
     <g id="line2d_25">
      <path d="M 45.351724 232.66234 
L 492.35976 232.66234 
" clip-path="url(#p4529aa8352)" style="fill: none; stroke: #e9e3e0; stroke-width: 0.8; stroke-linecap: square"/>
     </g>
     <g id="line2d_26">
      <g>
       <use xlink:href="#m88843fa882" x="45.351724" y="232.66234" style="fill: #5f5552; stroke: #5f5552; stroke-width: 0.8"/>
      </g>
     </g>
     <g id="text_14">
      <!-- 20 -->
      <g style="fill: #5f5552" transform="translate(25.054068 236.683512) scale(0.105 -0.105)">
       <defs>
        <path id="HiraginoSansGB-W3-32" d="M 3027 38 
C 3347 38 3558 26 3814 0 
L 3814 538 
C 3571 506 3354 493 3034 493 
L 992 493 
C 1069 800 1158 973 1357 1235 
C 1568 1504 1773 1683 2278 2022 
C 3008 2509 3174 2630 3366 2848 
C 3616 3123 3744 3430 3744 3757 
C 3744 4512 3123 4998 2157 4998 
C 1594 4998 1158 4832 870 4506 
C 659 4269 563 4045 467 3584 
L 1005 3494 
C 1050 3814 1107 3968 1229 4141 
C 1421 4416 1734 4557 2157 4557 
C 2810 4557 3219 4243 3219 3757 
C 3219 3366 3008 3085 2374 2656 
C 1632 2150 1619 2144 1395 1952 
C 992 1606 723 1254 563 851 
C 467 608 448 512 378 6 
C 582 32 678 38 1082 38 
L 3027 38 
z
" transform="scale(0.015625)"/>
       </defs>
       <use xlink:href="#HiraginoSansGB-W3-32"/>
       <use xlink:href="#HiraginoSansGB-W3-30" x="65.699997"/>
      </g>
     </g>
    </g>
    <g id="ytick_3">
     <g id="line2d_27">
      <path d="M 45.351724 190.87992 
L 492.35976 190.87992 
" clip-path="url(#p4529aa8352)" style="fill: none; stroke: #e9e3e0; stroke-width: 0.8; stroke-linecap: square"/>
     </g>
     <g id="line2d_28">
      <g>
       <use xlink:href="#m88843fa882" x="45.351724" y="190.87992" style="fill: #5f5552; stroke: #5f5552; stroke-width: 0.8"/>
      </g>
     </g>
     <g id="text_15">
      <!-- 40 -->
      <g style="fill: #5f5552" transform="translate(25.013053 194.901092) scale(0.105 -0.105)">
       <defs>
        <path id="HiraginoSansGB-W3-34" d="M 198 1254 
C 410 1274 602 1280 960 1280 
L 2675 1280 
L 2675 730 
C 2675 442 2662 262 2624 38 
L 3206 38 
C 3168 275 3155 422 3155 730 
L 3155 1280 
L 3392 1280 
C 3667 1280 3827 1267 4064 1235 
L 4064 1766 
C 3834 1734 3667 1722 3398 1722 
L 3155 1722 
L 3155 3821 
C 3155 4326 3162 4525 3194 4902 
L 2714 4902 
C 2566 4678 2451 4518 2234 4250 
L 614 2227 
C 480 2067 333 1888 198 1734 
L 198 1254 
z
M 2682 1715 
L 768 1715 
L 2240 3571 
C 2426 3808 2586 4019 2720 4211 
C 2688 3885 2682 3680 2682 3341 
L 2682 1715 
z
" transform="scale(0.015625)"/>
       </defs>
       <use xlink:href="#HiraginoSansGB-W3-34"/>
       <use xlink:href="#HiraginoSansGB-W3-30" x="66.099991"/>
      </g>
     </g>
    </g>
    <g id="ytick_4">
     <g id="line2d_29">
      <path d="M 45.351724 149.0975 
L 492.35976 149.0975 
" clip-path="url(#p4529aa8352)" style="fill: none; stroke: #e9e3e0; stroke-width: 0.8; stroke-linecap: square"/>
     </g>
     <g id="line2d_30">
      <g>
       <use xlink:href="#m88843fa882" x="45.351724" y="149.0975" style="fill: #5f5552; stroke: #5f5552; stroke-width: 0.8"/>
      </g>
     </g>
     <g id="text_16">
      <!-- 60 -->
      <g style="fill: #5f5552" transform="translate(25.054068 153.118672) scale(0.105 -0.105)">
       <defs>
        <path id="HiraginoSansGB-W3-36" d="M 3725 4006 
C 3539 4390 3411 4563 3187 4723 
C 2944 4896 2598 4992 2214 4992 
C 1658 4992 1203 4755 864 4294 
C 557 3878 378 3162 378 2362 
C 378 1453 608 736 1024 352 
C 1299 96 1728 -51 2182 -51 
C 3194 -51 3859 602 3859 1594 
C 3859 2579 3245 3194 2253 3194 
C 1811 3194 1472 3072 1171 2803 
C 1030 2682 966 2592 851 2394 
C 896 3091 954 3386 1120 3770 
C 1350 4294 1728 4563 2227 4563 
C 2547 4563 2797 4454 2989 4243 
C 3085 4134 3130 4045 3213 3840 
L 3725 4006 
z
M 3354 1581 
C 3354 1331 3290 1069 3187 902 
C 2989 582 2605 384 2189 384 
C 1498 384 979 896 979 1587 
C 979 1907 1088 2189 1299 2400 
C 1523 2624 1862 2765 2182 2765 
C 2931 2765 3354 2336 3354 1581 
z
" transform="scale(0.015625)"/>
       </defs>
       <use xlink:href="#HiraginoSansGB-W3-36"/>
       <use xlink:href="#HiraginoSansGB-W3-30" x="65.699997"/>
      </g>
     </g>
    </g>
    <g id="ytick_5">
     <g id="line2d_31">
      <path d="M 45.351724 107.31508 
L 492.35976 107.31508 
" clip-path="url(#p4529aa8352)" style="fill: none; stroke: #e9e3e0; stroke-width: 0.8; stroke-linecap: square"/>
     </g>
     <g id="line2d_32">
      <g>
       <use xlink:href="#m88843fa882" x="45.351724" y="107.31508" style="fill: #5f5552; stroke: #5f5552; stroke-width: 0.8"/>
      </g>
     </g>
     <g id="text_17">
      <!-- 80 -->
      <g style="fill: #5f5552" transform="translate(25.054068 111.336252) scale(0.105 -0.105)">
       <defs>
        <path id="HiraginoSansGB-W3-38" d="M 2752 2586 
C 3322 2694 3680 3142 3680 3738 
C 3680 4525 3078 5005 2099 5005 
C 1133 5005 525 4512 525 3738 
C 525 3142 890 2688 1453 2586 
C 1216 2547 1075 2496 877 2368 
C 493 2118 307 1766 307 1306 
C 307 422 954 -64 2125 -64 
C 3251 -64 3891 429 3891 1306 
C 3891 1734 3731 2074 3411 2310 
C 3200 2470 3021 2547 2752 2586 
z
M 2099 4576 
C 2758 4576 3181 4237 3181 3699 
C 3181 3130 2778 2784 2106 2784 
C 1434 2784 1024 3130 1024 3699 
C 1024 4230 1446 4576 2099 4576 
z
M 2099 2342 
C 2886 2342 3366 1965 3366 1338 
C 3366 1075 3283 851 3123 704 
C 2906 486 2541 371 2093 371 
C 1299 371 832 730 832 1338 
C 832 1958 1312 2342 2099 2342 
z
" transform="scale(0.015625)"/>
       </defs>
       <use xlink:href="#HiraginoSansGB-W3-38"/>
       <use xlink:href="#HiraginoSansGB-W3-30" x="65.699997"/>
      </g>
     </g>
    </g>
    <g id="ytick_6">
     <g id="line2d_33">
      <path d="M 45.351724 65.53266 
L 492.35976 65.53266 
" clip-path="url(#p4529aa8352)" style="fill: none; stroke: #e9e3e0; stroke-width: 0.8; stroke-linecap: square"/>
     </g>
     <g id="line2d_34">
      <g>
       <use xlink:href="#m88843fa882" x="45.351724" y="65.53266" style="fill: #5f5552; stroke: #5f5552; stroke-width: 0.8"/>
      </g>
     </g>
     <g id="text_18">
      <!-- 100 -->
      <g style="fill: #5f5552" transform="translate(18.15524 69.553832) scale(0.105 -0.105)">
       <defs>
        <path id="HiraginoSansGB-W3-31" d="M 1030 4429 
C 1216 4454 1382 4467 1587 4467 
L 1933 4467 
L 1933 762 
C 1933 467 1920 262 1882 38 
L 2490 38 
C 2451 275 2438 461 2438 762 
L 2438 3872 
C 2438 4218 2458 4544 2496 4934 
C 2285 4909 2182 4902 1965 4902 
L 1562 4902 
C 1318 4902 1197 4909 1030 4934 
L 1030 4429 
z
" transform="scale(0.015625)"/>
       </defs>
       <use xlink:href="#HiraginoSansGB-W3-31"/>
       <use xlink:href="#HiraginoSansGB-W3-30" x="65.699997"/>
       <use xlink:href="#HiraginoSansGB-W3-30" x="131.399994"/>
      </g>
     </g>
    </g>
    <g id="ytick_7">
     <g id="line2d_35">
      <path d="M 45.351724 23.75024 
L 492.35976 23.75024 
" clip-path="url(#p4529aa8352)" style="fill: none; stroke: #e9e3e0; stroke-width: 0.8; stroke-linecap: square"/>
     </g>
     <g id="line2d_36">
      <g>
       <use xlink:href="#m88843fa882" x="45.351724" y="23.75024" style="fill: #5f5552; stroke: #5f5552; stroke-width: 0.8"/>
      </g>
     </g>
     <g id="text_19">
      <!-- 120 -->
      <g style="fill: #5f5552" transform="translate(18.15524 27.771412) scale(0.105 -0.105)">
       <use xlink:href="#HiraginoSansGB-W3-31"/>
       <use xlink:href="#HiraginoSansGB-W3-32" x="65.699997"/>
       <use xlink:href="#HiraginoSansGB-W3-30" x="131.399994"/>
      </g>
     </g>
    </g>
    <g id="text_20">
     <!-- 注水速率比均分高出（%） -->
     <g style="fill: #2b2321" transform="translate(11.808521 217.402109) rotate(-90) scale(0.115 -0.115)">
      <defs>
       <path id="HiraginoSansGB-W3-6ce8" d="M 4102 3520 
L 5254 3520 
C 5504 3520 5734 3507 5920 3488 
L 5920 3930 
C 5754 3904 5542 3891 5254 3891 
L 2714 3891 
C 2426 3891 2227 3904 2042 3930 
L 2042 3488 
C 2266 3514 2451 3520 2714 3520 
L 3686 3520 
L 3686 2182 
L 2893 2182 
C 2624 2182 2400 2195 2234 2221 
L 2234 1786 
C 2426 1805 2662 1818 2899 1818 
L 3686 1818 
L 3686 198 
L 2470 198 
C 2176 198 1946 211 1773 237 
L 1773 -211 
C 1971 -192 2202 -179 2477 -179 
L 5382 -179 
C 5645 -179 5901 -192 6086 -211 
L 6086 237 
C 5926 211 5677 198 5382 198 
L 4102 198 
L 4102 1818 
L 5062 1818 
C 5299 1818 5536 1805 5722 1786 
L 5722 2221 
C 5555 2195 5331 2182 5062 2182 
L 4102 2182 
L 4102 3520 
z
M 666 4928 
C 1126 4627 1382 4416 1741 4006 
L 2003 4346 
C 1632 4710 1370 4922 928 5210 
L 666 4928 
z
M 346 3386 
C 794 3117 1062 2899 1459 2483 
L 1702 2842 
C 1306 3213 1050 3405 589 3686 
L 346 3386 
z
M 1434 1869 
C 1069 928 710 275 371 -90 
L 742 -422 
C 851 -230 851 -230 909 -141 
C 1267 467 1446 832 1773 1626 
L 1434 1869 
z
M 2995 4998 
C 3558 4717 3910 4486 4326 4115 
L 4602 4454 
C 4109 4826 3846 4998 3264 5299 
L 2995 4998 
z
" transform="scale(0.015625)"/>
       <path id="HiraginoSansGB-W3-6c34" d="M 3411 4614 
C 3411 4845 3424 5050 3462 5254 
L 2957 5254 
C 2989 5043 3002 4838 3002 4608 
L 3002 237 
C 3002 83 2963 51 2784 51 
C 2534 51 2285 77 1926 141 
C 1990 -26 2016 -115 2029 -301 
C 2336 -333 2598 -346 2829 -346 
C 3296 -346 3424 -237 3424 166 
L 3424 2061 
C 3424 2400 3411 2752 3373 3309 
C 3494 2938 3558 2784 3712 2496 
C 3923 2099 4154 1760 4435 1434 
C 4838 960 5286 576 5811 262 
C 5920 442 5990 525 6150 666 
C 5626 934 5286 1184 4902 1562 
C 4634 1824 4365 2157 4147 2477 
C 4538 2790 4538 2790 4691 2925 
C 4922 3136 5363 3584 5517 3763 
C 5613 3878 5613 3878 5696 3962 
L 5299 4275 
C 5094 3872 4678 3418 3949 2803 
C 3891 2893 3846 2989 3789 3098 
C 3565 3552 3482 3782 3411 4173 
L 3411 4614 
z
M 2426 3731 
C 2304 3712 2157 3706 1818 3706 
L 1133 3706 
C 832 3706 672 3712 512 3738 
L 512 3270 
C 666 3296 851 3309 1120 3309 
L 2176 3309 
C 1984 2618 1741 2131 1331 1594 
C 998 1165 685 870 269 595 
C 435 480 506 422 627 275 
C 1536 973 2189 1939 2534 3098 
C 2611 3341 2618 3366 2669 3494 
L 2426 3731 
z
" transform="scale(0.015625)"/>
       <path id="HiraginoSansGB-W3-901f" d="M 4096 1702 
C 4608 1446 5235 1062 5830 640 
L 6035 966 
C 5440 1376 4947 1651 4096 2048 
L 4096 2202 
L 5101 2202 
C 5402 2202 5562 2195 5715 2176 
C 5696 2349 5690 2490 5690 2778 
L 5690 3194 
C 5690 3462 5696 3597 5715 3770 
C 5530 3744 5357 3738 5114 3738 
L 4096 3738 
L 4096 4275 
L 5472 4275 
C 5734 4275 5850 4269 6016 4237 
L 6016 4672 
C 5850 4640 5728 4634 5434 4634 
L 4096 4634 
L 4096 4858 
C 4096 5037 4109 5171 4134 5312 
L 3680 5312 
C 3706 5184 3718 5018 3718 4845 
L 3718 4634 
L 2592 4634 
C 2285 4634 2150 4640 1984 4672 
L 1984 4237 
C 2138 4269 2278 4275 2560 4275 
L 3718 4275 
L 3718 3738 
L 2835 3738 
C 2579 3738 2406 3744 2214 3770 
C 2234 3571 2240 3418 2240 3162 
L 2240 2765 
C 2240 2515 2234 2368 2214 2176 
C 2381 2195 2541 2202 2829 2202 
L 3565 2202 
C 3379 2003 3290 1920 3142 1798 
C 2739 1472 2406 1274 1869 1043 
C 1990 922 2035 864 2118 710 
C 2579 947 2797 1088 3104 1338 
C 3366 1542 3501 1677 3744 1971 
C 3725 1805 3718 1683 3718 1421 
L 3718 864 
C 3718 659 3706 506 3680 346 
L 4134 346 
C 4109 512 4096 659 4096 864 
L 4096 1702 
z
M 3718 3398 
L 3718 2541 
L 2624 2541 
L 2624 3398 
L 3718 3398 
z
M 4096 3398 
L 5306 3398 
L 5306 2541 
L 4096 2541 
L 4096 3398 
z
M 1645 2221 
C 1645 2509 1651 2688 1677 2867 
C 1517 2842 1402 2835 1197 2835 
L 858 2835 
C 608 2835 506 2842 365 2867 
L 365 2451 
C 512 2477 614 2483 832 2483 
L 1261 2483 
L 1261 838 
C 1178 813 1082 755 909 634 
C 768 531 525 307 243 13 
L 525 -320 
C 851 141 1216 486 1376 486 
C 1427 486 1498 448 1549 390 
C 1690 237 1766 154 1786 134 
C 1888 38 2029 -51 2182 -122 
C 2470 -243 3034 -307 3834 -307 
C 4723 -307 5414 -294 6035 -262 
C 6074 -51 6118 83 6189 205 
C 5843 154 5722 141 5446 128 
C 5024 109 4410 90 4013 90 
C 3258 90 2662 128 2438 186 
C 2170 262 2010 371 1766 646 
C 1709 710 1677 749 1645 774 
L 1645 2221 
z
M 448 4928 
C 864 4525 1101 4256 1440 3757 
L 1766 4045 
C 1408 4512 1171 4774 742 5184 
L 448 4928 
z
" transform="scale(0.015625)"/>
       <path id="HiraginoSansGB-W3-6bd4" d="M 1254 2880 
L 2477 2880 
C 2739 2880 2906 2867 3053 2842 
L 3053 3302 
C 2899 3270 2758 3264 2477 3264 
L 1254 3264 
L 1254 4493 
C 1254 4781 1267 4954 1293 5133 
L 794 5133 
C 826 4934 832 4762 832 4493 
L 826 448 
C 826 282 774 186 646 122 
L 826 -288 
C 1203 -154 1286 -128 1997 90 
C 2323 186 2541 256 3008 403 
L 3046 845 
C 2413 621 2176 544 1254 288 
L 1254 2880 
z
M 3789 2317 
C 4499 2688 5222 3187 5728 3648 
C 5798 3718 5882 3789 5971 3866 
L 5645 4211 
C 5523 4032 5414 3917 5216 3738 
C 4845 3405 4506 3168 3789 2752 
L 3789 4512 
C 3789 4781 3802 4966 3827 5152 
L 3334 5152 
C 3360 4992 3373 4826 3373 4512 
L 3373 205 
C 3373 -38 3443 -160 3622 -218 
C 3834 -288 4000 -301 4570 -301 
C 5005 -301 5229 -294 5376 -269 
C 5594 -230 5722 -173 5798 -77 
C 5946 115 6016 448 6067 1248 
C 5907 1293 5818 1338 5664 1434 
C 5651 710 5606 352 5504 224 
C 5421 115 5261 96 4563 96 
C 3878 96 3789 122 3789 294 
L 3789 2317 
z
" transform="scale(0.015625)"/>
       <path id="HiraginoSansGB-W3-5747" d="M 1146 3578 
L 864 3578 
C 595 3578 467 3584 307 3616 
L 307 3174 
C 467 3206 595 3213 864 3213 
L 1146 3213 
L 1146 1139 
C 691 966 429 877 262 851 
L 384 429 
C 474 467 589 512 704 557 
C 1485 864 1760 992 2342 1312 
L 2323 1715 
C 1984 1523 1882 1466 1549 1312 
L 1549 3213 
L 1683 3213 
C 1914 3213 2054 3206 2195 3187 
L 2195 3610 
C 2074 3584 1946 3578 1690 3578 
L 1549 3578 
L 1549 4653 
C 1549 4915 1555 5069 1587 5261 
L 1107 5261 
C 1133 5062 1146 4902 1146 4640 
L 1146 3578 
z
M 5434 3955 
C 5427 2074 5357 1114 5197 474 
C 5114 141 5024 58 4774 58 
C 4557 58 4218 96 3866 166 
C 3942 -19 3968 -122 3981 -282 
C 4358 -320 4525 -333 4723 -333 
C 5011 -333 5165 -301 5280 -230 
C 5446 -115 5562 173 5664 742 
C 5786 1466 5843 2458 5843 3859 
C 5843 4122 5850 4237 5869 4365 
C 5754 4352 5754 4352 5293 4339 
L 3386 4339 
C 3501 4627 3546 4742 3616 4973 
C 3667 5114 3680 5165 3712 5235 
L 3270 5350 
C 3226 5037 3091 4621 2906 4211 
C 2675 3712 2464 3418 2067 3014 
C 2202 2931 2227 2912 2323 2797 
C 2330 2778 2349 2758 2374 2726 
C 2758 3149 2970 3462 3213 3955 
L 5434 3955 
z
M 4922 2048 
C 4301 1664 3776 1414 3066 1158 
C 2867 1088 2771 1062 2611 1030 
L 2778 582 
C 2848 621 2899 640 3066 710 
C 3936 1069 4314 1248 4998 1626 
L 4922 2048 
z
M 4608 2451 
C 4122 2746 3866 2874 3104 3200 
L 2867 2893 
C 3731 2509 3930 2400 4384 2093 
L 4608 2451 
z
" transform="scale(0.015625)"/>
       <path id="HiraginoSansGB-W3-5206" d="M 4435 2637 
C 4435 1530 4358 666 4224 275 
C 4179 147 4109 115 3917 115 
C 3661 115 3373 147 3002 218 
C 3066 32 3085 -64 3104 -237 
C 3520 -275 3718 -288 3942 -288 
C 4320 -288 4467 -230 4576 -32 
C 4742 269 4864 1350 4864 2592 
C 4870 2880 4870 2931 4890 3046 
C 4704 3021 4512 3014 4218 3014 
L 2112 3014 
C 1850 3014 1632 3027 1446 3053 
L 1446 2598 
C 1645 2624 1862 2637 2106 2637 
L 2509 2637 
C 2464 2061 2374 1722 2163 1318 
C 1856 736 1370 314 550 -83 
C 685 -211 749 -294 832 -442 
C 1613 -38 2112 397 2445 954 
C 2739 1440 2893 1965 2944 2637 
L 4435 2637 
z
M 2246 5293 
C 2214 5101 2131 4902 1971 4621 
C 1542 3853 992 3264 218 2746 
C 365 2624 448 2528 531 2400 
C 1434 3066 2054 3808 2547 4800 
C 2643 4998 2669 5050 2726 5126 
L 2246 5293 
z
M 3667 5114 
C 3699 5062 3738 4992 3770 4934 
C 4371 3757 4915 3110 5926 2362 
C 6022 2528 6106 2637 6227 2752 
C 5350 3328 4806 3904 4339 4742 
C 4205 4986 4147 5114 4096 5280 
L 3667 5114 
z
" transform="scale(0.015625)"/>
       <path id="HiraginoSansGB-W3-9ad8" d="M 3443 4806 
C 3187 5197 3181 5197 3034 5382 
L 2675 5178 
C 2835 4986 2886 4922 2970 4806 
L 1050 4806 
C 774 4806 589 4819 403 4845 
L 403 4422 
C 602 4448 787 4454 1037 4454 
L 5344 4454 
C 5600 4454 5773 4448 5978 4422 
L 5978 4845 
C 5779 4819 5613 4806 5344 4806 
L 3443 4806 
z
M 1466 3226 
C 1466 2976 1459 2861 1446 2726 
C 1651 2746 1779 2752 2022 2752 
L 4384 2752 
C 4659 2752 4787 2746 4973 2726 
C 4954 2867 4954 2944 4954 3226 
L 4954 3571 
C 4954 3789 4960 3878 4973 4064 
C 4794 4045 4678 4038 4429 4038 
L 2054 4038 
C 1779 4038 1613 4045 1446 4064 
C 1459 3930 1466 3782 1466 3578 
L 1466 3226 
z
M 1856 3706 
L 4563 3706 
L 4563 3078 
L 1856 3078 
L 1856 3706 
z
M 614 141 
C 614 -109 602 -333 576 -506 
L 1050 -506 
C 1018 -288 1011 -134 1011 147 
L 1011 1990 
L 5395 1990 
L 5395 115 
C 5395 -19 5370 -32 5139 -32 
C 4902 -32 4666 -13 4410 26 
C 4461 -122 4480 -198 4493 -371 
C 4851 -390 4934 -390 5088 -390 
C 5434 -390 5536 -378 5638 -307 
C 5747 -230 5786 -122 5786 96 
L 5786 1792 
C 5786 2016 5792 2157 5811 2355 
C 5645 2336 5504 2330 5190 2330 
L 1222 2330 
C 954 2330 774 2336 589 2355 
C 608 2163 614 2003 614 1779 
L 614 141 
z
M 4467 1158 
C 4467 1370 4474 1466 4486 1594 
C 4320 1581 4166 1574 3923 1574 
L 2387 1574 
C 2150 1574 2016 1581 1869 1594 
C 1882 1459 1888 1344 1888 1126 
L 1888 800 
C 1888 576 1882 467 1869 282 
C 1939 294 2253 307 2387 307 
L 3898 307 
C 4122 307 4320 301 4486 288 
C 4474 416 4467 512 4467 742 
L 4467 1158 
z
M 2266 1254 
L 4096 1254 
L 4096 627 
L 2266 627 
L 2266 1254 
z
" transform="scale(0.015625)"/>
       <path id="HiraginoSansGB-W3-51fa" d="M 2944 3091 
L 1382 3091 
L 1382 4294 
C 1382 4493 1389 4634 1408 4768 
L 928 4768 
C 947 4589 960 4435 960 4275 
L 960 3008 
C 960 2899 954 2803 947 2682 
C 1082 2688 1229 2694 1344 2694 
L 2944 2694 
L 2944 294 
L 1120 294 
L 1120 1568 
C 1120 1818 1126 1958 1152 2118 
L 666 2118 
C 691 1958 698 1792 698 1549 
L 698 339 
C 698 154 691 26 672 -134 
C 826 -115 973 -109 1178 -109 
L 5280 -109 
L 5280 -480 
L 5741 -480 
C 5715 -314 5702 -173 5702 58 
L 5702 1549 
C 5702 1798 5709 1952 5734 2118 
L 5248 2118 
C 5274 1958 5280 1798 5280 1574 
L 5280 294 
L 3373 294 
L 3373 2694 
L 5094 2694 
C 5216 2694 5363 2688 5491 2682 
C 5485 2790 5478 2880 5478 3008 
L 5478 4282 
C 5478 4461 5485 4582 5510 4768 
L 5030 4768 
C 5050 4621 5056 4480 5056 4301 
L 5056 3091 
L 3373 3091 
L 3373 4710 
C 3373 4979 3386 5114 3418 5293 
L 2899 5293 
C 2931 5146 2944 4998 2944 4710 
L 2944 3091 
z
" transform="scale(0.015625)"/>
       <path id="HiraginoSansGB-W3-25" d="M 1382 2266 
C 1683 2266 1946 2368 2138 2554 
C 2368 2778 2490 3155 2490 3629 
C 2490 4493 2080 4992 1382 4992 
C 678 4992 269 4486 269 3629 
C 269 3155 390 2778 621 2554 
C 813 2368 1075 2266 1382 2266 
z
M 1382 4614 
C 1818 4614 2061 4262 2061 3629 
C 2061 3002 1811 2643 1382 2643 
C 947 2643 698 3002 698 3629 
C 698 4256 941 4614 1382 4614 
z
M 736 134 
L 1005 -83 
L 4883 4826 
L 4614 5030 
L 736 134 
z
M 4243 -45 
C 4544 -45 4806 58 4998 243 
C 5229 467 5350 838 5350 1312 
C 5350 2176 4947 2675 4243 2675 
C 3539 2675 3130 2176 3130 1312 
C 3130 845 3251 467 3482 243 
C 3674 51 3936 -45 4243 -45 
z
M 4243 2298 
C 4678 2298 4922 1946 4922 1312 
C 4922 691 4672 333 4243 333 
C 3808 333 3558 691 3558 1312 
C 3558 1946 3802 2298 4243 2298 
z
" transform="scale(0.015625)"/>
      </defs>
      <use xlink:href="#HiraginoSansGB-W3-6ce8"/>
      <use xlink:href="#HiraginoSansGB-W3-6c34" x="99.999985"/>
      <use xlink:href="#HiraginoSansGB-W3-901f" x="199.999969"/>
      <use xlink:href="#HiraginoSansGB-W3-7387" x="299.999954"/>
      <use xlink:href="#HiraginoSansGB-W3-6bd4" x="399.999939"/>
      <use xlink:href="#HiraginoSansGB-W3-5747" x="499.999924"/>
      <use xlink:href="#HiraginoSansGB-W3-5206" x="599.999908"/>
      <use xlink:href="#HiraginoSansGB-W3-9ad8" x="699.999893"/>
      <use xlink:href="#HiraginoSansGB-W3-51fa" x="799.999878"/>
      <use xlink:href="#HiraginoSansGB-W3-ff08" x="899.999863"/>
      <use xlink:href="#HiraginoSansGB-W3-25" x="999.999847"/>
      <use xlink:href="#HiraginoSansGB-W3-ff09" x="1087.899841"/>
     </g>
    </g>
   </g>
   <g id="patch_3">
    <path d="M 45.351724 274.44476 
L 45.351724 23.75024 
" style="fill: none; stroke: #b9aeab; stroke-width: 0.8; stroke-linejoin: miter; stroke-linecap: square"/>
   </g>
   <g id="patch_4">
    <path d="M 45.351724 274.44476 
L 492.35976 274.44476 
" style="fill: none; stroke: #b9aeab; stroke-width: 0.8; stroke-linejoin: miter; stroke-linecap: square"/>
   </g>
   <g id="line2d_37">
    <path d="M 61.907578 42.970153 
L 103.29721 70.755463 
L 144.686843 110.448762 
L 186.076476 158.08072 
L 227.466109 204.459206 
L 268.855742 232.66234 
L 310.245375 250.837693 
L 351.635008 265.252628 
L 393.024641 271.728903 
L 434.414274 273.818024 
L 475.803907 274.235848 
" clip-path="url(#p4529aa8352)" style="fill: none; stroke: #2f6fd1; stroke-width: 2; stroke-linecap: square"/>
    <defs>
     <path id="m9e8cea10ec" d="M 0 2 
C 0.530406 2 1.03916 1.789267 1.414214 1.414214 
C 1.789267 1.03916 2 0.530406 2 0 
C 2 -0.530406 1.789267 -1.03916 1.414214 -1.414214 
C 1.03916 -1.789267 0.530406 -2 0 -2 
C -0.530406 -2 -1.03916 -1.789267 -1.414214 -1.414214 
C -1.789267 -1.03916 -2 -0.530406 -2 0 
C -2 0.530406 -1.789267 1.03916 -1.414214 1.414214 
C -1.03916 1.789267 -0.530406 2 0 2 
z
" style="stroke: #2f6fd1"/>
    </defs>
    <g clip-path="url(#p4529aa8352)">
     <use xlink:href="#m9e8cea10ec" x="61.907578" y="42.970153" style="fill: #2f6fd1; stroke: #2f6fd1"/>
     <use xlink:href="#m9e8cea10ec" x="103.29721" y="70.755463" style="fill: #2f6fd1; stroke: #2f6fd1"/>
     <use xlink:href="#m9e8cea10ec" x="144.686843" y="110.448762" style="fill: #2f6fd1; stroke: #2f6fd1"/>
     <use xlink:href="#m9e8cea10ec" x="186.076476" y="158.08072" style="fill: #2f6fd1; stroke: #2f6fd1"/>
     <use xlink:href="#m9e8cea10ec" x="227.466109" y="204.459206" style="fill: #2f6fd1; stroke: #2f6fd1"/>
     <use xlink:href="#m9e8cea10ec" x="268.855742" y="232.66234" style="fill: #2f6fd1; stroke: #2f6fd1"/>
     <use xlink:href="#m9e8cea10ec" x="310.245375" y="250.837693" style="fill: #2f6fd1; stroke: #2f6fd1"/>
     <use xlink:href="#m9e8cea10ec" x="351.635008" y="265.252628" style="fill: #2f6fd1; stroke: #2f6fd1"/>
     <use xlink:href="#m9e8cea10ec" x="393.024641" y="271.728903" style="fill: #2f6fd1; stroke: #2f6fd1"/>
     <use xlink:href="#m9e8cea10ec" x="434.414274" y="273.818024" style="fill: #2f6fd1; stroke: #2f6fd1"/>
     <use xlink:href="#m9e8cea10ec" x="475.803907" y="274.235848" style="fill: #2f6fd1; stroke: #2f6fd1"/>
    </g>
   </g>
   <g id="text_21">
    <!-- 三载波注水比均分多出的速率（$\gamma=4$、$1$、$0.25$） -->
    <g style="fill: #2b2321" transform="translate(45.351724 13.75024) scale(0.125 -0.125)">
     <defs>
      <path id="HiraginoSansGB-W3-4e09" d="M 922 4378 
C 1126 4403 1318 4416 1658 4416 
L 4723 4416 
C 5069 4416 5274 4403 5491 4378 
L 5491 4883 
C 5286 4851 5082 4838 4723 4838 
L 1658 4838 
C 1306 4838 1114 4851 922 4883 
L 922 4378 
z
M 1312 2304 
C 1491 2330 1670 2336 1984 2336 
L 4422 2336 
C 4723 2336 4890 2330 5088 2304 
L 5088 2797 
C 4909 2771 4730 2758 4422 2758 
L 1978 2758 
C 1670 2758 1478 2771 1312 2797 
L 1312 2304 
z
M 5958 499 
C 5741 474 5542 461 5210 461 
L 1216 461 
C 870 461 659 474 442 499 
L 442 -13 
C 666 19 883 32 1222 32 
L 5216 32 
C 5568 32 5754 19 5958 -13 
L 5958 499 
z
" transform="scale(0.015625)"/>
      <path id="HiraginoSansGB-W3-8f7d" d="M 5408 3098 
C 5325 2547 5133 2010 4800 1402 
C 4621 2061 4557 2579 4518 3622 
L 5414 3622 
C 5677 3622 5824 3616 6048 3584 
L 6048 3994 
C 5843 3968 5683 3955 5414 3955 
L 4512 3955 
C 4506 4115 4506 4288 4506 4448 
C 4506 4979 4506 5037 4544 5254 
L 4077 5254 
C 4102 5120 4109 5005 4115 4749 
L 4128 3955 
L 2342 3955 
L 2342 4442 
L 3078 4442 
C 3354 4442 3475 4435 3629 4410 
L 3629 4800 
C 3475 4774 3360 4768 3078 4768 
L 2342 4768 
L 2342 4890 
C 2342 5088 2349 5171 2381 5312 
L 1946 5312 
C 1978 5178 1984 5101 1984 4890 
L 1984 4768 
L 1274 4768 
C 992 4768 870 4774 717 4800 
L 717 4410 
C 864 4435 992 4442 1274 4442 
L 1984 4442 
L 1984 3955 
L 973 3955 
C 704 3955 544 3968 339 3994 
L 339 3584 
C 557 3616 717 3622 973 3622 
L 4141 3622 
C 4205 2272 4282 1760 4531 979 
C 4115 410 3846 147 3238 -256 
C 3398 -346 3456 -390 3578 -525 
C 4115 -122 4333 96 4691 570 
C 4838 256 4928 102 5062 -64 
C 5254 -326 5440 -454 5613 -454 
C 5882 -454 6035 -147 6182 672 
C 6035 755 5984 794 5843 934 
C 5798 570 5766 403 5715 243 
C 5658 58 5626 -6 5587 -6 
C 5549 -6 5440 96 5338 224 
C 5197 410 5094 595 4954 954 
C 5293 1510 5427 1818 5690 2586 
C 5766 2810 5811 2938 5824 2963 
L 5408 3098 
z
M 5805 4365 
C 5549 4704 5427 4826 5056 5133 
L 4774 4954 
C 5139 4646 5261 4512 5523 4147 
L 5805 4365 
z
M 1229 2586 
C 1120 2246 1056 2093 986 1952 
C 902 1786 870 1754 762 1715 
L 870 1363 
C 1024 1395 1094 1402 1184 1402 
L 2208 1402 
L 2208 730 
C 1837 678 1011 621 698 621 
C 659 621 646 621 550 621 
C 518 627 512 627 403 627 
L 499 173 
C 589 205 634 218 768 230 
C 806 237 851 237 890 243 
C 966 256 973 256 1082 262 
C 1370 282 1920 339 2208 378 
L 2208 166 
C 2208 -83 2202 -186 2182 -365 
C 2176 -403 2176 -416 2170 -467 
L 2592 -467 
C 2554 -224 2554 -179 2554 166 
L 2554 435 
C 3155 531 3334 557 3923 659 
L 3917 998 
C 3558 922 3411 896 2554 781 
L 2554 1402 
L 3123 1402 
C 3309 1402 3424 1395 3674 1363 
L 3674 1760 
C 3501 1734 3360 1722 3123 1722 
L 2554 1722 
L 2554 1837 
C 2554 2048 2560 2138 2586 2336 
L 2170 2336 
C 2202 2144 2208 2029 2208 1837 
L 2208 1722 
L 1286 1722 
L 1638 2586 
L 3334 2586 
C 3578 2586 3706 2579 3872 2547 
L 3872 2963 
C 3750 2931 3680 2925 3328 2925 
L 1754 2925 
C 1760 2931 1805 3040 1901 3258 
C 1920 3302 1933 3322 1952 3360 
L 1517 3475 
C 1485 3277 1459 3187 1370 2925 
L 870 2925 
C 627 2925 486 2938 333 2976 
L 333 2534 
C 506 2573 672 2586 864 2586 
L 1229 2586 
z
" transform="scale(0.015625)"/>
      <path id="HiraginoSansGB-W3-6ce2" d="M 4192 2906 
L 4192 4147 
L 5530 4147 
C 5402 3846 5306 3680 5107 3418 
C 5280 3366 5338 3341 5472 3264 
C 5638 3526 5741 3712 5926 4083 
C 5978 4192 6016 4262 6054 4314 
L 5830 4544 
C 5722 4518 5581 4512 5242 4512 
L 4192 4512 
L 4192 4742 
C 4192 5075 4205 5248 4230 5376 
L 3770 5376 
C 3795 5235 3808 5062 3808 4742 
L 3808 4512 
L 2835 4512 
C 2534 4512 2349 4518 2214 4544 
C 2234 4346 2240 4154 2240 3744 
C 2240 2400 2170 1613 2003 979 
C 1882 512 1741 218 1485 -141 
C 1645 -218 1722 -275 1837 -390 
C 2323 326 2547 1178 2618 2554 
L 2931 2554 
C 3168 1894 3501 1344 3936 902 
C 3802 781 3629 640 3443 518 
C 3078 262 2803 122 2349 -51 
C 2470 -186 2534 -275 2592 -410 
C 3245 -128 3770 218 4211 640 
C 4634 243 5190 -96 5894 -390 
C 5971 -230 6016 -160 6150 -6 
C 5453 243 4922 531 4474 909 
C 4902 1395 5165 1798 5434 2413 
C 5504 2560 5523 2605 5574 2701 
L 5344 2938 
C 5242 2912 5094 2906 4832 2906 
L 4192 2906 
z
M 3808 2906 
L 2630 2906 
C 2643 3514 2643 3565 2643 3686 
L 2643 4147 
L 3808 4147 
L 3808 2906 
z
M 5069 2554 
C 4819 1952 4608 1613 4198 1165 
C 3962 1408 3795 1619 3635 1894 
C 3507 2106 3494 2125 3322 2554 
L 5069 2554 
z
M 1946 4352 
C 1587 4710 1331 4922 928 5203 
L 659 4915 
C 1075 4640 1350 4410 1677 4051 
L 1946 4352 
z
M 326 3366 
C 781 3091 1030 2893 1382 2547 
L 1626 2899 
C 1261 3219 998 3411 557 3680 
L 326 3366 
z
M 1274 1882 
C 1082 1248 883 774 634 333 
C 525 154 480 90 365 -32 
L 730 -358 
C 762 -294 787 -256 800 -224 
C 1190 486 1338 838 1600 1632 
L 1274 1882 
z
" transform="scale(0.015625)"/>
      <path id="HiraginoSansGB-W3-591a" d="M 4781 4896 
C 4627 4877 4448 4864 4186 4864 
L 2970 4864 
C 3059 4960 3098 5011 3174 5101 
C 3309 5261 3315 5274 3379 5344 
L 2918 5459 
C 2829 5280 2701 5114 2470 4877 
C 1939 4326 1331 3910 576 3578 
C 685 3475 749 3392 826 3258 
C 1568 3629 2086 3981 2656 4531 
L 4390 4531 
C 3981 4026 3738 3789 3174 3354 
C 2957 3526 2675 3718 2330 3930 
L 2029 3693 
C 2381 3488 2630 3309 2848 3117 
C 2131 2624 1389 2285 550 2061 
C 659 1926 730 1818 774 1683 
C 1517 1933 2042 2170 2618 2509 
C 3277 2906 3917 3418 4422 3968 
C 4557 4109 4602 4166 4998 4653 
L 4781 4896 
z
M 3962 2547 
C 4102 2688 4154 2746 4397 3021 
L 3981 3181 
C 3846 2944 3616 2694 3283 2413 
C 2765 1971 2125 1626 1274 1338 
C 1376 1235 1427 1165 1517 992 
C 2022 1190 2458 1402 2835 1632 
C 3117 1805 3245 1901 3610 2214 
L 5331 2214 
C 4915 1690 4563 1350 4102 1024 
C 3789 1280 3584 1421 3226 1645 
L 2899 1408 
C 3251 1210 3501 1030 3693 858 
C 3744 813 3744 813 3757 800 
C 2995 333 2022 -6 1037 -154 
C 1165 -326 1190 -371 1267 -557 
C 2477 -256 3136 -13 3866 410 
C 4621 845 5158 1325 5741 2093 
C 5850 2234 5850 2234 5926 2330 
L 5696 2579 
C 5542 2560 5363 2547 5094 2547 
L 3962 2547 
z
" transform="scale(0.015625)"/>
      <path id="HiraginoSansGB-W3-7684" d="M 1651 4333 
C 1747 4544 1862 4864 1978 5210 
L 1523 5299 
C 1472 4966 1376 4646 1248 4333 
L 1120 4333 
C 800 4333 685 4339 550 4352 
C 570 4192 576 4045 576 3744 
L 576 499 
C 576 122 570 -115 544 -282 
L 973 -282 
L 973 282 
L 2221 282 
L 2221 -128 
L 2643 -128 
C 2624 26 2611 243 2611 531 
L 2611 3789 
C 2611 4019 2618 4186 2630 4352 
C 2573 4346 2387 4339 2067 4333 
L 1651 4333 
z
M 973 3981 
L 2221 3981 
L 2221 2554 
L 973 2554 
L 973 3981 
z
M 973 2202 
L 2221 2202 
L 2221 640 
L 973 640 
L 973 2202 
z
M 3846 4339 
C 3949 4595 4013 4768 4090 4992 
C 4128 5107 4160 5197 4179 5235 
L 3738 5318 
C 3725 5178 3661 4941 3571 4698 
C 3334 4045 3021 3501 2630 3085 
C 2739 3014 2854 2906 2938 2797 
C 3270 3226 3456 3520 3674 3962 
L 5517 3962 
C 5510 3021 5504 2579 5472 2067 
C 5427 1210 5344 595 5235 301 
C 5152 96 5069 38 4832 38 
C 4602 38 4314 70 3923 147 
C 3994 -13 4019 -122 4032 -307 
C 4429 -339 4614 -352 4845 -352 
C 5229 -352 5434 -237 5562 58 
C 5792 570 5875 1427 5933 3962 
C 5939 4198 5939 4250 5958 4365 
C 5830 4346 5651 4339 5395 4339 
L 3846 4339 
z
M 4742 1549 
C 4403 2234 4134 2656 3731 3142 
L 3405 2944 
C 3776 2496 4019 2093 4378 1325 
L 4742 1549 
z
" transform="scale(0.015625)"/>
      <path id="Cmmi10-b0" d="M 1888 -1253 
Q 1888 -1109 1952 -834 
Q 2016 -559 2108 -248 
Q 2200 63 2266 263 
Q 2291 581 2291 744 
Q 2291 1156 2209 1511 
Q 2128 1866 1903 2105 
Q 1678 2344 1275 2344 
Q 1063 2344 852 2253 
Q 641 2163 489 2000 
Q 338 1838 281 1631 
Q 269 1594 231 1594 
L 153 1594 
Q 103 1594 103 1650 
L 103 1672 
Q 175 1959 358 2226 
Q 541 2494 805 2661 
Q 1069 2828 1363 2828 
Q 1663 2828 1881 2625 
Q 2100 2422 2231 2109 
Q 2363 1797 2420 1478 
Q 2478 1159 2478 878 
Q 2800 1753 3200 2534 
L 3297 2741 
Q 3316 2759 3341 2759 
L 3419 2759 
Q 3469 2759 3469 2700 
Q 3469 2688 3456 2663 
L 3359 2463 
Q 3081 1909 2848 1340 
Q 2616 772 2450 244 
Q 2425 28 2354 -347 
Q 2284 -722 2184 -1045 
Q 2084 -1369 1984 -1381 
Q 1888 -1381 1888 -1253 
z
" transform="scale(0.015625)"/>
      <path id="Cmr10-3d" d="M 481 850 
Q 428 850 393 890 
Q 359 931 359 978 
Q 359 1031 393 1068 
Q 428 1106 481 1106 
L 4500 1106 
Q 4547 1106 4581 1068 
Q 4616 1031 4616 978 
Q 4616 931 4581 890 
Q 4547 850 4500 850 
L 481 850 
z
M 481 2094 
Q 428 2094 393 2131 
Q 359 2169 359 2222 
Q 359 2269 393 2309 
Q 428 2350 481 2350 
L 4500 2350 
Q 4547 2350 4581 2309 
Q 4616 2269 4616 2222 
Q 4616 2169 4581 2131 
Q 4547 2094 4500 2094 
L 481 2094 
z
" transform="scale(0.015625)"/>
      <path id="HiraginoSansGB-W3-3001" d="M 480 973 
C 960 576 1331 173 1741 -422 
L 2099 -83 
C 1664 506 1338 851 813 1274 
L 480 973 
z
" transform="scale(0.015625)"/>
      <path id="Cmr10-30" d="M 1600 -141 
Q 816 -141 533 504 
Q 250 1150 250 2041 
Q 250 2597 351 3087 
Q 453 3578 754 3920 
Q 1056 4263 1600 4263 
Q 2022 4263 2290 4056 
Q 2559 3850 2700 3523 
Q 2841 3197 2892 2823 
Q 2944 2450 2944 2041 
Q 2944 1491 2842 1011 
Q 2741 531 2444 195 
Q 2147 -141 1600 -141 
z
M 1600 25 
Q 1956 25 2131 390 
Q 2306 756 2347 1200 
Q 2388 1644 2388 2144 
Q 2388 2625 2347 3031 
Q 2306 3438 2132 3767 
Q 1959 4097 1600 4097 
Q 1238 4097 1063 3765 
Q 888 3434 847 3029 
Q 806 2625 806 2144 
Q 806 1788 823 1472 
Q 841 1156 916 820 
Q 991 484 1158 254 
Q 1325 25 1600 25 
z
" transform="scale(0.015625)"/>
      <path id="Cmmi10-3a" d="M 538 353 
Q 538 497 644 600 
Q 750 703 891 703 
Q 978 703 1062 656 
Q 1147 609 1194 525 
Q 1241 441 1241 353 
Q 1241 213 1137 106 
Q 1034 0 891 0 
Q 750 0 644 106 
Q 538 213 538 353 
z
" transform="scale(0.015625)"/>
      <path id="Cmr10-35" d="M 556 728 
Q 622 541 758 387 
Q 894 234 1080 148 
Q 1266 63 1466 63 
Q 1928 63 2103 422 
Q 2278 781 2278 1294 
Q 2278 1516 2270 1667 
Q 2263 1819 2228 1959 
Q 2169 2184 2020 2353 
Q 1872 2522 1656 2522 
Q 1441 2522 1286 2456 
Q 1131 2391 1034 2303 
Q 938 2216 863 2119 
Q 788 2022 769 2016 
L 697 2016 
Q 681 2016 657 2036 
Q 634 2056 634 2075 
L 634 4213 
Q 634 4228 654 4245 
Q 675 4263 697 4263 
L 716 4263 
Q 1147 4056 1631 4056 
Q 2106 4056 2547 4263 
L 2566 4263 
Q 2588 4263 2606 4247 
Q 2625 4231 2625 4213 
L 2625 4153 
Q 2625 4122 2613 4122 
Q 2394 3831 2064 3668 
Q 1734 3506 1381 3506 
Q 1125 3506 856 3578 
L 856 2369 
Q 1069 2541 1236 2614 
Q 1403 2688 1663 2688 
Q 2016 2688 2295 2484 
Q 2575 2281 2725 1954 
Q 2875 1628 2875 1288 
Q 2875 903 2686 575 
Q 2497 247 2172 53 
Q 1847 -141 1466 -141 
Q 1150 -141 886 21 
Q 622 184 470 459 
Q 319 734 319 1044 
Q 319 1188 412 1278 
Q 506 1369 647 1369 
Q 788 1369 883 1276 
Q 978 1184 978 1044 
Q 978 906 883 811 
Q 788 716 647 716 
Q 625 716 597 720 
Q 569 725 556 728 
z
" transform="scale(0.015625)"/>
     </defs>
     <use xlink:href="#HiraginoSansGB-W3-4e09" transform="translate(0 0.703125)"/>
     <use xlink:href="#HiraginoSansGB-W3-8f7d" transform="translate(99.999985 0.703125)"/>
     <use xlink:href="#HiraginoSansGB-W3-6ce2" transform="translate(199.999969 0.703125)"/>
     <use xlink:href="#HiraginoSansGB-W3-6ce8" transform="translate(299.999954 0.703125)"/>
     <use xlink:href="#HiraginoSansGB-W3-6c34" transform="translate(399.999939 0.703125)"/>
     <use xlink:href="#HiraginoSansGB-W3-6bd4" transform="translate(499.999924 0.703125)"/>
     <use xlink:href="#HiraginoSansGB-W3-5747" transform="translate(599.999908 0.703125)"/>
     <use xlink:href="#HiraginoSansGB-W3-5206" transform="translate(699.999893 0.703125)"/>
     <use xlink:href="#HiraginoSansGB-W3-591a" transform="translate(799.999878 0.703125)"/>
     <use xlink:href="#HiraginoSansGB-W3-51fa" transform="translate(899.999863 0.703125)"/>
     <use xlink:href="#HiraginoSansGB-W3-7684" transform="translate(999.999847 0.703125)"/>
     <use xlink:href="#HiraginoSansGB-W3-901f" transform="translate(1099.999832 0.703125)"/>
     <use xlink:href="#HiraginoSansGB-W3-7387" transform="translate(1199.999817 0.703125)"/>
     <use xlink:href="#HiraginoSansGB-W3-ff08" transform="translate(1299.999802 0.703125)"/>
     <use xlink:href="#Cmmi10-b0" transform="translate(1399.999786 0.703125)"/>
     <use xlink:href="#Cmr10-3d" transform="translate(1469.267365 0.703125)"/>
     <use xlink:href="#Cmr10-34" transform="translate(1564.511505 0.703125)"/>
     <use xlink:href="#HiraginoSansGB-W3-3001" transform="translate(1614.511505 0.703125)"/>
     <use xlink:href="#Cmr10-31" transform="translate(1714.51149 0.703125)"/>
     <use xlink:href="#HiraginoSansGB-W3-3001" transform="translate(1764.51149 0.703125)"/>
     <use xlink:href="#Cmr10-30" transform="translate(1864.511475 0.703125)"/>
     <use xlink:href="#Cmmi10-3a" transform="translate(1914.511475 0.703125)"/>
     <use xlink:href="#Cmr10-32" transform="translate(1942.197021 0.703125)"/>
     <use xlink:href="#Cmr10-35" transform="translate(1992.197021 0.703125)"/>
     <use xlink:href="#HiraginoSansGB-W3-ff09" transform="translate(2042.197021 0.703125)"/>
    </g>
   </g>
  </g>
 </g>
 <defs>
  <clipPath id="p4529aa8352">
   <rect x="45.351724" y="23.75024" width="447.008036" height="250.69452"/>
  </clipPath>
 </defs>
</svg>
