<?xml version="1.0" encoding="utf-8" standalone="no"?>
<!DOCTYPE svg PUBLIC "-//W3C//DTD SVG 1.1//EN"
  "http://www.w3.org/Graphics/SVG/1.1/DTD/svg11.dtd">
<svg xmlns:xlink="http://www.w3.org/1999/xlink" width="495.36pt" height="309.6pt" viewBox="0 0 495.36 309.6" xmlns="http://www.w3.org/2000/svg" version="1.1">
 <metadata>
  <rdf:RDF xmlns:dc="http://purl.org/dc/elements/1.1/" xmlns:cc="http://creativecommons.org/ns#" xmlns:rdf="http://www.w3.org/1999/02/22-rdf-syntax-ns#">
   <cc:Work>
    <dc:type rdf:resource="http://purl.org/dc/dcmitype/StillImage"/>
    <dc:format>image/svg+xml</dc:format>
   </cc:Work>
  </rdf:RDF>
 </metadata>
 <defs>
  <style type="text/css">*{stroke-linejoin: round; stroke-linecap: butt}</style>
 </defs>
 <g id="figure_1">
  <g id="patch_1">
   <path d="M 0 309.6 
L 495.36 309.6 
L 495.36 0 
L 0 0 
L 0 309.6 
z
" style="fill: none; opacity: 0"/>
  </g>
  <g id="axes_1">
   <g id="patch_2">
    <path d="M 47.871724 248.17928 
L 492.35976 248.17928 
L 492.35976 22.574459 
L 47.871724 22.574459 
L 47.871724 248.17928 
z
" style="fill: none"/>
   </g>
   <g id="matplotlib.axis_1">
    <g id="xtick_1">
     <g id="line2d_1">
      <path d="M 74.018079 248.17928 
L 74.018079 22.574459 
" clip-path="url(#pbe093f46d0)" style="fill: none; stroke: #e9e3e0; stroke-width: 0.8; stroke-linecap: square"/>
     </g>
     <g id="line2d_2">
      <defs>
       <path id="ma0b750aba8" d="M 0 0 
L 0 3 
" style="stroke: #5f5552; stroke-width: 0.8"/>
      </defs>
      <g>
       <use xlink:href="#ma0b750aba8" x="74.018079" y="248.17928" style="fill: #5f5552; stroke: #5f5552; stroke-width: 0.8"/>
      </g>
     </g>
     <g id="text_1">
      <!-- $1/4$ -->
      <g style="fill: #5f5552" transform="translate(66.143079 262.55428) scale(0.105 -0.105)">
       <defs>
        <path id="Cmr10-31" d="M 594 0 
L 594 225 
Q 1394 225 1394 428 
L 1394 3788 
Q 1063 3628 556 3628 
L 556 3853 
Q 1341 3853 1741 4263 
L 1831 4263 
Q 1853 4263 1873 4245 
Q 1894 4228 1894 4206 
L 1894 428 
Q 1894 225 2694 225 
L 2694 0 
L 594 0 
z
" transform="scale(0.015625)"/>
        <path id="Cmmi10-3d" d="M 359 -1472 
Q 359 -1453 366 -1447 
L 2591 4722 
Q 2603 4759 2634 4779 
Q 2666 4800 2706 4800 
Q 2763 4800 2798 4765 
Q 2834 4731 2834 4672 
L 2834 4647 
L 609 -1522 
Q 572 -1600 488 -1600 
Q 434 -1600 396 -1562 
Q 359 -1525 359 -1472 
z
" transform="scale(0.015625)"/>
        <path id="Cmr10-34" d="M 178 1056 
L 178 1281 
L 2156 4231 
Q 2178 4263 2222 4263 
L 2316 4263 
Q 2388 4263 2388 4191 
L 2388 1281 
L 3016 1281 
L 3016 1056 
L 2388 1056 
L 2388 428 
Q 2388 297 2575 261 
Q 2763 225 3009 225 
L 3009 0 
L 1247 0 
L 1247 225 
Q 1494 225 1681 261 
Q 1869 297 1869 428 
L 1869 1056 
L 178 1056 
z
M 391 1281 
L 1906 1281 
L 1906 3547 
L 391 1281 
z
" transform="scale(0.015625)"/>
       </defs>
       <use xlink:href="#Cmr10-31"/>
       <use xlink:href="#Cmmi10-3d" transform="translate(50 0)"/>
       <use xlink:href="#Cmr10-34" transform="translate(100 0)"/>
      </g>
     </g>
    </g>
    <g id="xtick_2">
     <g id="line2d_3">
      <path d="M 139.383967 248.17928 
L 139.383967 22.574459 
" clip-path="url(#pbe093f46d0)" style="fill: none; stroke: #e9e3e0; stroke-width: 0.8; stroke-linecap: square"/>
     </g>
     <g id="line2d_4">
      <g>
       <use xlink:href="#ma0b750aba8" x="139.383967" y="248.17928" style="fill: #5f5552; stroke: #5f5552; stroke-width: 0.8"/>
      </g>
     </g>
     <g id="text_2">
      <!-- $1/2$ -->
      <g style="fill: #5f5552" transform="translate(131.508967 262.55428) scale(0.105 -0.105)">
       <defs>
        <path id="Cmr10-32" d="M 319 0 
L 319 172 
Q 319 188 331 206 
L 1325 1306 
Q 1550 1550 1690 1715 
Q 1831 1881 1968 2097 
Q 2106 2313 2186 2536 
Q 2266 2759 2266 3009 
Q 2266 3272 2169 3511 
Q 2072 3750 1880 3894 
Q 1688 4038 1416 4038 
Q 1138 4038 916 3870 
Q 694 3703 603 3438 
Q 628 3444 672 3444 
Q 816 3444 917 3347 
Q 1019 3250 1019 3097 
Q 1019 2950 917 2848 
Q 816 2747 672 2747 
Q 522 2747 420 2851 
Q 319 2956 319 3097 
Q 319 3338 409 3548 
Q 500 3759 670 3923 
Q 841 4088 1055 4175 
Q 1269 4263 1509 4263 
Q 1875 4263 2190 4108 
Q 2506 3953 2690 3670 
Q 2875 3388 2875 3009 
Q 2875 2731 2753 2481 
Q 2631 2231 2440 2026 
Q 2250 1822 1953 1562 
Q 1656 1303 1563 1216 
L 838 519 
L 1453 519 
Q 1906 519 2211 526 
Q 2516 534 2534 550 
Q 2609 631 2688 1141 
L 2875 1141 
L 2694 0 
L 319 0 
z
" transform="scale(0.015625)"/>
       </defs>
       <use xlink:href="#Cmr10-31"/>
       <use xlink:href="#Cmmi10-3d" transform="translate(50 0)"/>
       <use xlink:href="#Cmr10-32" transform="translate(100 0)"/>
      </g>
     </g>
    </g>
    <g id="xtick_3">
     <g id="line2d_5">
      <path d="M 204.749855 248.17928 
L 204.749855 22.574459 
" clip-path="url(#pbe093f46d0)" style="fill: none; stroke: #e9e3e0; stroke-width: 0.8; stroke-linecap: square"/>
     </g>
     <g id="line2d_6">
      <g>
       <use xlink:href="#ma0b750aba8" x="204.749855" y="248.17928" style="fill: #5f5552; stroke: #5f5552; stroke-width: 0.8"/>
      </g>
     </g>
     <g id="text_3">
      <!-- $1$ -->
      <g style="fill: #5f5552" transform="translate(202.124855 262.721624) scale(0.105 -0.105)">
       <use xlink:href="#Cmr10-31" transform="translate(0 0.390625)"/>
      </g>
     </g>
    </g>
    <g id="xtick_4">
     <g id="line2d_7">
      <path d="M 270.115742 248.17928 
L 270.115742 22.574459 
" clip-path="url(#pbe093f46d0)" style="fill: none; stroke: #e9e3e0; stroke-width: 0.8; stroke-linecap: square"/>
     </g>
     <g id="line2d_8">
      <g>
       <use xlink:href="#ma0b750aba8" x="270.115742" y="248.17928" style="fill: #5f5552; stroke: #5f5552; stroke-width: 0.8"/>
      </g>
     </g>
     <g id="text_4">
      <!-- $2$ -->
      <g style="fill: #5f5552" transform="translate(267.490742 262.721624) scale(0.105 -0.105)">
       <use xlink:href="#Cmr10-32" transform="translate(0 0.390625)"/>
      </g>
     </g>
    </g>
    <g id="xtick_5">
     <g id="line2d_9">
      <path d="M 335.48163 248.17928 
L 335.48163 22.574459 
" clip-path="url(#pbe093f46d0)" style="fill: none; stroke: #e9e3e0; stroke-width: 0.8; stroke-linecap: square"/>
     </g>
     <g id="line2d_10">
      <g>
       <use xlink:href="#ma0b750aba8" x="335.48163" y="248.17928" style="fill: #5f5552; stroke: #5f5552; stroke-width: 0.8"/>
      </g>
     </g>
     <g id="text_5">
      <!-- $4$ -->
      <g style="fill: #5f5552" transform="translate(332.85663 262.721624) scale(0.105 -0.105)">
       <use xlink:href="#Cmr10-34" transform="translate(0 0.390625)"/>
      </g>
     </g>
    </g>
    <g id="xtick_6">
     <g id="line2d_11">
      <path d="M 400.847517 248.17928 
L 400.847517 22.574459 
" clip-path="url(#pbe093f46d0)" style="fill: none; stroke: #e9e3e0; stroke-width: 0.8; stroke-linecap: square"/>
     </g>
     <g id="line2d_12">
      <g>
       <use xlink:href="#ma0b750aba8" x="400.847517" y="248.17928" style="fill: #5f5552; stroke: #5f5552; stroke-width: 0.8"/>
      </g>
     </g>
     <g id="text_6">
      <!-- $8$ -->
      <g style="fill: #5f5552" transform="translate(398.222517 262.721624) scale(0.105 -0.105)">
       <defs>
        <path id="Cmr10-38" d="M 269 972 
Q 269 1356 522 1651 
Q 775 1947 1172 2144 
L 934 2297 
Q 716 2441 578 2680 
Q 441 2919 441 3181 
Q 441 3488 602 3734 
Q 763 3981 1030 4122 
Q 1297 4263 1600 4263 
Q 1884 4263 2148 4147 
Q 2413 4031 2583 3815 
Q 2753 3600 2753 3303 
Q 2753 3088 2651 2903 
Q 2550 2719 2373 2572 
Q 2197 2425 1997 2322 
L 2363 2088 
Q 2616 1922 2770 1653 
Q 2925 1384 2925 1088 
Q 2925 741 2739 456 
Q 2553 172 2247 15 
Q 1941 -141 1600 -141 
Q 1269 -141 961 -6 
Q 653 128 461 383 
Q 269 638 269 972 
z
M 616 972 
Q 616 719 755 509 
Q 894 300 1122 181 
Q 1350 63 1600 63 
Q 1972 63 2275 280 
Q 2578 497 2578 856 
Q 2578 978 2529 1098 
Q 2481 1219 2395 1317 
Q 2309 1416 2203 1478 
L 1344 2034 
Q 1144 1928 976 1765 
Q 809 1603 712 1400 
Q 616 1197 616 972 
z
M 1056 2925 
L 1831 2425 
Q 2100 2581 2272 2803 
Q 2444 3025 2444 3303 
Q 2444 3519 2323 3698 
Q 2203 3878 2009 3978 
Q 1816 4078 1594 4078 
Q 1400 4078 1203 4003 
Q 1006 3928 878 3779 
Q 750 3631 750 3431 
Q 750 3131 1056 2925 
z
" transform="scale(0.015625)"/>
       </defs>
       <use xlink:href="#Cmr10-38" transform="translate(0 0.390625)"/>
      </g>
     </g>
    </g>
    <g id="xtick_7">
     <g id="line2d_13">
      <path d="M 466.213405 248.17928 
L 466.213405 22.574459 
" clip-path="url(#pbe093f46d0)" style="fill: none; stroke: #e9e3e0; stroke-width: 0.8; stroke-linecap: square"/>
     </g>
     <g id="line2d_14">
      <g>
       <use xlink:href="#ma0b750aba8" x="466.213405" y="248.17928" style="fill: #5f5552; stroke: #5f5552; stroke-width: 0.8"/>
      </g>
     </g>
     <g id="text_7">
      <!-- $16$ -->
      <g style="fill: #5f5552" transform="translate(460.963405 262.721624) scale(0.105 -0.105)">
       <defs>
        <path id="Cmr10-36" d="M 1600 -141 
Q 1203 -141 937 70 
Q 672 281 526 617 
Q 381 953 325 1322 
Q 269 1691 269 2069 
Q 269 2575 466 3084 
Q 663 3594 1045 3928 
Q 1428 4263 1953 4263 
Q 2172 4263 2361 4180 
Q 2550 4097 2658 3936 
Q 2766 3775 2766 3547 
Q 2766 3416 2677 3327 
Q 2588 3238 2456 3238 
Q 2331 3238 2240 3328 
Q 2150 3419 2150 3547 
Q 2150 3672 2240 3762 
Q 2331 3853 2456 3853 
L 2491 3853 
Q 2409 3969 2261 4023 
Q 2113 4078 1953 4078 
Q 1759 4078 1595 3993 
Q 1431 3909 1300 3765 
Q 1169 3622 1081 3448 
Q 994 3275 945 3053 
Q 897 2831 884 2637 
Q 872 2444 872 2150 
Q 984 2413 1190 2580 
Q 1397 2747 1656 2747 
Q 1941 2747 2175 2631 
Q 2409 2516 2578 2311 
Q 2747 2106 2836 1843 
Q 2925 1581 2925 1313 
Q 2925 938 2758 598 
Q 2591 259 2287 59 
Q 1984 -141 1600 -141 
z
M 1600 63 
Q 1847 63 1997 175 
Q 2147 288 2217 473 
Q 2288 659 2305 848 
Q 2322 1038 2322 1313 
Q 2322 1675 2287 1931 
Q 2253 2188 2100 2383 
Q 1947 2578 1631 2578 
Q 1372 2578 1205 2403 
Q 1038 2228 961 1961 
Q 884 1694 884 1447 
Q 884 1363 891 1319 
Q 891 1309 889 1303 
Q 888 1297 884 1288 
Q 884 1013 940 731 
Q 997 450 1156 256 
Q 1316 63 1600 63 
z
" transform="scale(0.015625)"/>
       </defs>
       <use xlink:href="#Cmr10-31" transform="translate(0 0.390625)"/>
       <use xlink:href="#Cmr10-36" transform="translate(50 0.390625)"/>
      </g>
     </g>
    </g>
    <g id="text_8">
     <!-- 公平参数 $\alpha$（按对数等距排开） -->
     <g style="fill: #2b2321" transform="translate(189.730742 277.987561) scale(0.115 -0.115)">
      <defs>
       <path id="HiraginoSansGB-W3-516c" d="M 902 -147 
C 947 -134 1120 -115 1242 -109 
C 2938 -19 4122 90 4928 218 
C 5037 26 5094 -83 5261 -416 
L 5645 -166 
C 5222 614 4710 1370 4070 2157 
L 3725 1939 
C 4096 1491 4352 1146 4531 864 
C 4672 640 4672 640 4723 563 
C 4026 448 3046 371 1491 314 
C 2054 1056 2093 1114 2374 1562 
C 2630 1984 2963 2592 3155 2982 
C 3206 3091 3219 3117 3270 3181 
L 2784 3360 
C 2778 3315 2778 3315 2694 3091 
C 2598 2822 2458 2515 2234 2112 
C 1920 1530 1421 787 1107 429 
C 1024 365 966 346 813 320 
L 902 -147 
z
M 2246 5152 
C 2214 4941 2106 4685 1869 4301 
C 1472 3635 973 3123 211 2611 
C 346 2496 422 2406 518 2253 
C 1427 2938 2067 3699 2547 4659 
C 2650 4877 2669 4909 2726 4986 
L 2246 5152 
z
M 3642 5107 
C 3680 5043 3699 5005 3744 4922 
C 4365 3680 4838 3091 5914 2234 
C 6003 2400 6074 2490 6214 2630 
C 5574 3078 5171 3456 4800 3949 
C 4448 4403 4166 4915 4070 5267 
L 3642 5107 
z
" transform="scale(0.015625)"/>
       <path id="HiraginoSansGB-W3-5e73" d="M 3386 4710 
L 5133 4710 
C 5414 4710 5606 4698 5805 4672 
L 5805 5133 
C 5613 5107 5421 5094 5126 5094 
L 1293 5094 
C 998 5094 800 5107 614 5133 
L 614 4672 
C 813 4698 1005 4710 1286 4710 
L 2950 4710 
L 2950 2336 
L 1037 2336 
C 710 2336 518 2349 339 2381 
L 339 1901 
C 512 1933 717 1946 1043 1946 
L 2950 1946 
L 2950 179 
C 2950 -64 2938 -288 2906 -518 
L 3430 -518 
C 3398 -294 3386 -58 3386 179 
L 3386 1946 
L 5363 1946 
C 5696 1946 5894 1933 6061 1901 
L 6061 2381 
C 5894 2349 5690 2336 5376 2336 
L 3386 2336 
L 3386 4710 
z
M 1024 4230 
C 1370 3699 1555 3322 1811 2637 
L 2214 2842 
C 1939 3488 1747 3859 1389 4403 
L 1024 4230 
z
M 4966 4410 
C 4704 3674 4506 3309 4064 2752 
L 4448 2560 
C 4883 3162 5082 3520 5357 4224 
L 4966 4410 
z
" transform="scale(0.015625)"/>
       <path id="HiraginoSansGB-W3-53c2" d="M 1069 3398 
C 742 3398 531 3411 371 3437 
L 371 3014 
C 557 3034 768 3046 1075 3046 
L 2157 3046 
C 1658 2579 1146 2310 269 2042 
C 390 1933 442 1869 531 1702 
C 1536 2080 2093 2432 2650 3046 
L 3661 3046 
C 4102 2451 4883 1958 5926 1606 
C 5990 1760 6061 1862 6170 1978 
C 5261 2208 4512 2598 4128 3046 
L 5338 3046 
C 5645 3046 5856 3034 6029 3014 
L 6029 3437 
C 5869 3411 5664 3398 5331 3398 
L 2938 3398 
C 3040 3533 3110 3642 3226 3821 
L 2771 3917 
C 2707 3744 2624 3603 2470 3398 
L 1069 3398 
z
M 1747 4262 
C 2074 4486 2362 4710 3034 5267 
L 2624 5459 
C 2074 4896 1901 4742 1472 4448 
C 1293 4339 1171 4294 1050 4294 
C 1037 4294 998 4301 960 4307 
L 1043 3891 
C 1184 3904 1702 3923 2413 3949 
C 3296 3968 4262 4019 4666 4058 
C 4787 4070 4794 4070 4902 4083 
C 5011 3987 5094 3898 5299 3680 
L 5587 3974 
C 5050 4480 4749 4723 4077 5178 
L 3776 4960 
C 4122 4736 4250 4640 4557 4390 
C 3949 4333 2432 4262 1894 4262 
L 1747 4262 
z
M 4915 1306 
C 4781 1133 4544 941 4224 742 
C 3424 256 2470 -45 1274 -186 
C 1389 -326 1440 -422 1485 -570 
C 2368 -403 2816 -288 3398 -64 
C 4026 173 4538 454 5101 883 
C 5210 960 5229 973 5306 1024 
L 4915 1306 
z
M 3411 2694 
C 3296 2573 3168 2470 2995 2355 
C 2451 1997 1888 1779 1088 1626 
C 1190 1510 1229 1446 1286 1286 
C 2048 1478 2496 1651 3021 1958 
C 3245 2086 3334 2144 3757 2438 
L 3411 2694 
z
M 4141 2022 
C 4045 1894 3866 1760 3590 1594 
C 2867 1165 2144 915 1146 762 
C 1254 640 1286 589 1357 403 
C 2534 640 3437 1011 4243 1587 
C 4442 1728 4442 1728 4493 1760 
L 4141 2022 
z
" transform="scale(0.015625)"/>
       <path id="HiraginoSansGB-W3-6570" d="M 6138 4115 
C 5965 4083 5837 4077 5542 4077 
L 4186 4077 
C 4294 4422 4314 4486 4397 4819 
C 4480 5133 4480 5133 4512 5222 
L 4077 5318 
C 4051 4915 3930 4410 3750 3942 
C 3526 3347 3296 2950 2963 2560 
C 3104 2483 3168 2438 3283 2310 
C 3501 2592 3597 2739 3750 3053 
C 3878 2285 4058 1760 4410 1171 
C 4019 634 3507 230 2752 -134 
C 2861 -243 2938 -339 3014 -493 
C 3731 -102 4211 288 4640 826 
C 5018 307 5478 -102 6061 -442 
C 6144 -262 6195 -173 6298 -45 
C 5690 275 5242 659 4877 1165 
C 5318 1875 5530 2618 5594 3712 
C 5888 3712 5997 3706 6138 3680 
L 6138 4115 
z
M 5197 3712 
C 5165 3136 5126 2867 5005 2451 
C 4909 2099 4813 1850 4640 1536 
C 4448 1875 4314 2195 4186 2643 
C 4096 2957 4096 2957 3994 3571 
C 4000 3590 4006 3597 4026 3642 
C 4032 3661 4038 3680 4051 3712 
L 5197 3712 
z
M 3014 314 
C 2765 474 2714 499 2445 640 
C 2803 1101 2957 1389 3162 2029 
C 2880 2016 2726 2010 2694 2010 
L 1798 2010 
C 1843 2099 1875 2176 1978 2426 
L 1587 2515 
C 1510 2259 1466 2150 1395 2010 
L 832 2010 
C 602 2010 486 2016 371 2042 
L 371 1638 
C 493 1664 614 1670 832 1670 
L 1222 1670 
C 1056 1382 986 1274 762 979 
C 1331 768 1498 698 1818 544 
C 1434 262 966 58 333 -96 
C 429 -218 480 -307 538 -448 
C 1350 -186 1830 51 2176 358 
C 2419 224 2515 160 2790 -38 
L 3014 314 
z
M 2650 1670 
C 2547 1389 2349 1075 2106 806 
C 1786 954 1670 1005 1299 1146 
C 1485 1427 1542 1517 1626 1670 
L 2650 1670 
z
M 2112 4019 
L 2112 4877 
C 2112 5056 2118 5165 2144 5306 
L 1715 5306 
C 1741 5158 1747 5043 1747 4877 
L 1747 4019 
L 915 4019 
C 666 4019 531 4026 397 4051 
L 397 3654 
C 531 3680 666 3686 902 3686 
L 1491 3686 
C 1338 3469 1325 3450 1235 3354 
C 979 3072 736 2893 288 2624 
C 410 2528 480 2451 570 2317 
C 1197 2765 1446 3021 1773 3578 
C 1754 3398 1747 3328 1747 3206 
L 1747 2848 
C 1747 2758 1741 2669 1722 2586 
L 2138 2586 
C 2118 2669 2112 2758 2112 2854 
L 2112 3245 
C 2157 3219 2182 3206 2240 3174 
C 2547 2995 2618 2944 2899 2701 
L 3117 3014 
C 2662 3302 2662 3302 2112 3565 
L 2112 3686 
L 2950 3686 
C 3168 3686 3270 3680 3386 3661 
L 3386 4045 
C 3277 4026 3181 4019 2957 4019 
L 2112 4019 
z
M 589 5030 
C 800 4742 915 4538 1050 4192 
L 1395 4333 
C 1248 4666 1133 4864 915 5178 
L 589 5030 
z
M 2931 5197 
C 2790 4832 2650 4589 2400 4282 
L 2720 4122 
C 2944 4410 3059 4608 3277 5037 
L 2931 5197 
z
" transform="scale(0.015625)"/>
       <path id="HiraginoSansGB-W3-20" transform="scale(0.015625)"/>
       <path id="Cmmi10-ae" d="M 1288 -72 
Q 984 -72 748 72 
Q 513 216 384 459 
Q 256 703 256 1013 
Q 256 1447 498 1872 
Q 741 2297 1142 2562 
Q 1544 2828 1984 2828 
Q 2309 2828 2556 2658 
Q 2803 2488 2931 2205 
Q 3059 1922 3059 1600 
L 3066 1172 
Q 3284 1475 3436 1801 
Q 3588 2128 3669 2478 
Q 3681 2516 3719 2516 
L 3794 2516 
Q 3853 2516 3853 2456 
Q 3853 2450 3847 2438 
Q 3772 2144 3659 1873 
Q 3547 1603 3395 1350 
Q 3244 1097 3066 891 
Q 3066 97 3250 97 
Q 3369 97 3445 167 
Q 3522 238 3580 341 
Q 3638 444 3653 447 
L 3731 447 
Q 3781 447 3781 384 
Q 3781 225 3598 76 
Q 3416 -72 3238 -72 
Q 3006 -72 2853 78 
Q 2700 228 2644 469 
Q 2344 213 1994 70 
Q 1644 -72 1288 -72 
z
M 1300 97 
Q 1984 97 2613 659 
Q 2609 697 2603 751 
Q 2597 806 2597 813 
L 2597 1503 
Q 2597 2663 1972 2663 
Q 1597 2663 1315 2342 
Q 1034 2022 892 1576 
Q 750 1131 750 763 
Q 750 484 892 290 
Q 1034 97 1300 97 
z
" transform="scale(0.015625)"/>
       <path id="HiraginoSansGB-W3-ff08" d="M 6157 -518 
C 5619 26 5408 314 5184 806 
C 4954 1318 4838 1850 4838 2432 
C 4838 3014 4954 3546 5184 4058 
C 5408 4550 5619 4838 6157 5382 
L 5587 5382 
C 5107 4832 4909 4525 4698 4006 
C 4486 3494 4390 2989 4390 2432 
C 4390 1875 4486 1370 4698 858 
C 4909 339 5107 32 5587 -518 
L 6157 -518 
z
" transform="scale(0.015625)"/>
       <path id="HiraginoSansGB-W3-6309" d="M 5965 -38 
C 5370 346 4902 614 4461 845 
C 4685 1088 4838 1318 4986 1606 
C 5126 1894 5178 2042 5274 2483 
L 5536 2483 
C 5798 2483 5971 2470 6157 2445 
L 6157 2880 
C 5990 2854 5818 2842 5536 2842 
L 3718 2842 
C 3814 3072 3866 3187 3866 3187 
C 4019 3597 4102 3808 4102 3821 
L 3648 3885 
C 3616 3661 3514 3328 3315 2842 
L 2765 2842 
C 2490 2842 2317 2854 2144 2880 
L 2144 2515 
C 1926 2438 1715 2368 1510 2304 
L 1510 3718 
L 1638 3718 
C 1862 3718 1946 3712 2106 3693 
L 2106 4109 
C 1978 4083 1856 4077 1632 4077 
L 1510 4077 
L 1510 4678 
C 1510 4947 1523 5114 1555 5318 
L 1069 5318 
C 1101 5126 1114 4941 1114 4672 
L 1114 4077 
L 832 4077 
C 646 4077 518 4090 352 4115 
L 352 3693 
C 499 3712 646 3718 826 3718 
L 1114 3718 
L 1114 2195 
C 755 2086 454 2022 256 2010 
L 352 1568 
C 422 1600 531 1638 704 1683 
C 838 1722 1005 1773 1114 1805 
L 1114 115 
C 1114 -13 1062 -38 845 -38 
C 717 -38 550 -26 352 6 
C 410 -154 422 -243 435 -397 
C 634 -410 691 -410 762 -410 
C 1370 -410 1510 -320 1510 58 
L 1510 1926 
C 1786 2016 1894 2054 2189 2170 
L 2182 2451 
C 2342 2470 2534 2483 2765 2483 
L 3155 2483 
C 2918 1978 2778 1722 2515 1344 
C 3200 1050 3443 941 3789 762 
C 3238 346 2675 122 1824 -26 
C 1933 -160 1990 -250 2054 -416 
C 2970 -211 3590 70 4166 557 
C 4698 269 5094 13 5702 -410 
L 5965 -38 
z
M 4858 2483 
C 4781 2099 4698 1869 4531 1587 
C 4416 1389 4243 1171 4096 1024 
C 3629 1254 3558 1286 3053 1510 
C 3251 1843 3430 2176 3565 2483 
L 4858 2483 
z
M 4435 4435 
C 4288 4749 4179 4941 3930 5306 
L 3597 5139 
C 3770 4896 3859 4736 3994 4435 
L 2931 4435 
C 2554 4435 2413 4442 2246 4461 
C 2272 4314 2278 4179 2278 3981 
L 2278 3642 
C 2278 3430 2272 3315 2253 3187 
L 2662 3187 
L 2662 4077 
L 5632 4077 
L 5632 3206 
L 6048 3206 
C 6029 3347 6022 3469 6022 3667 
L 6022 3981 
C 6022 4179 6029 4282 6048 4467 
C 5837 4448 5619 4435 5363 4435 
L 4435 4435 
z
" transform="scale(0.015625)"/>
       <path id="HiraginoSansGB-W3-5bf9" d="M 5267 3853 
L 5267 4493 
C 5267 4800 5280 5024 5306 5248 
L 4819 5248 
C 4851 5043 4864 4806 4864 4499 
L 4864 3853 
L 3661 3853 
C 3398 3853 3168 3866 2995 3891 
L 2995 3450 
C 3155 3475 3405 3488 3667 3488 
L 4864 3488 
L 4864 186 
C 4864 38 4813 13 4544 13 
C 4301 13 4090 32 3808 77 
C 3878 -96 3891 -147 3917 -339 
C 4179 -358 4352 -365 4550 -365 
C 5146 -365 5267 -282 5267 128 
L 5267 3488 
L 5510 3488 
C 5741 3488 5933 3475 6112 3456 
L 6112 3891 
C 5946 3866 5760 3853 5504 3853 
L 5267 3853 
z
M 3091 973 
C 2822 1363 2637 1619 2298 2074 
C 2554 2733 2733 3475 2829 4275 
C 2861 4531 2861 4538 2893 4723 
C 2733 4710 2598 4704 2387 4704 
L 947 4704 
C 704 4704 550 4710 390 4736 
L 390 4288 
C 550 4314 704 4320 941 4320 
L 2419 4320 
C 2304 3475 2195 2976 2003 2451 
C 1664 2861 1229 3341 883 3693 
L 582 3437 
C 1210 2803 1485 2496 1837 2029 
C 1741 1811 1594 1530 1459 1325 
C 1126 787 800 448 218 6 
C 371 -134 384 -154 499 -352 
C 1248 218 1670 742 2118 1651 
C 2330 1357 2515 1082 2758 678 
L 3091 973 
z
M 4314 1498 
C 4064 2042 3878 2355 3456 2950 
L 3136 2746 
C 3514 2227 3686 1914 3955 1286 
L 4314 1498 
z
" transform="scale(0.015625)"/>
       <path id="HiraginoSansGB-W3-7b49" d="M 1766 4474 
C 1933 4179 2010 4019 2118 3693 
L 2490 3827 
C 2362 4122 2266 4307 2150 4474 
L 2554 4474 
C 2803 4474 2963 4467 3142 4448 
L 3142 4858 
C 2976 4832 2803 4819 2509 4819 
L 1536 4819 
C 1619 4966 1645 5018 1754 5222 
L 1344 5344 
C 1171 4806 806 4307 294 3904 
C 416 3834 506 3757 602 3642 
C 909 3923 1069 4115 1318 4474 
L 1766 4474 
z
M 4243 4480 
C 4454 4128 4499 4045 4634 3718 
L 4998 3866 
C 4896 4077 4781 4275 4672 4435 
C 4659 4461 4659 4461 4646 4480 
L 5357 4480 
C 5626 4480 5830 4474 6029 4448 
L 6029 4858 
C 5856 4832 5645 4819 5350 4819 
L 3974 4819 
C 4141 5126 4141 5126 4205 5254 
L 3821 5376 
C 3648 4883 3366 4461 2970 4115 
C 3123 4038 3187 3994 3283 3885 
C 3482 4090 3622 4256 3770 4480 
L 4243 4480 
z
M 1632 3482 
C 1344 3482 1158 3494 986 3520 
L 986 3098 
C 1165 3123 1357 3136 1632 3136 
L 2918 3136 
L 2918 2502 
L 1082 2502 
C 787 2502 589 2515 422 2541 
L 422 2118 
C 614 2144 819 2157 1088 2157 
L 4205 2157 
L 4205 1530 
L 1414 1530 
C 1139 1530 934 1542 755 1568 
L 755 1146 
C 947 1171 1146 1184 1414 1184 
L 4205 1184 
L 4205 109 
C 4205 -32 4154 -58 3904 -58 
C 3590 -58 3373 -45 3078 -6 
C 3136 -147 3168 -237 3194 -410 
C 3424 -422 3622 -429 3821 -429 
C 4461 -429 4608 -339 4608 38 
L 4608 1184 
L 5056 1184 
C 5318 1184 5523 1171 5715 1146 
L 5715 1568 
C 5530 1542 5331 1530 5056 1530 
L 4608 1530 
L 4608 2157 
L 5370 2157 
C 5638 2157 5850 2144 6029 2118 
L 6029 2541 
C 5862 2515 5664 2502 5370 2502 
L 3302 2502 
L 3302 3136 
L 4838 3136 
C 5094 3136 5306 3123 5478 3098 
L 5478 3520 
C 5306 3494 5126 3482 4832 3482 
L 3302 3482 
C 3302 3635 3315 3757 3341 3878 
L 2880 3878 
C 2906 3750 2912 3693 2918 3482 
L 1632 3482 
z
M 1587 806 
C 2042 474 2150 371 2554 -102 
L 2874 192 
C 2426 653 2355 717 1875 1075 
L 1587 806 
z
" transform="scale(0.015625)"/>
       <path id="HiraginoSansGB-W3-8ddd" d="M 1555 3078 
L 1555 390 
C 1427 358 1203 301 1037 262 
L 1037 1971 
C 1037 2170 1043 2323 1062 2490 
L 640 2490 
C 659 2304 672 2138 672 1958 
L 672 186 
C 448 141 326 128 198 122 
L 314 -326 
C 429 -288 550 -250 730 -205 
C 1754 51 2138 166 2861 410 
L 2854 794 
C 2464 653 2349 614 1933 493 
L 1933 1786 
L 2272 1786 
C 2502 1786 2650 1779 2822 1754 
L 2822 2176 
C 2662 2144 2528 2138 2278 2138 
L 1933 2138 
L 1933 3078 
L 2170 3078 
C 2400 3078 2560 3072 2688 3059 
C 2675 3181 2675 3309 2675 3680 
L 2675 4435 
C 2675 4730 2682 4909 2694 5069 
C 2496 5043 2330 5037 2093 5037 
L 1171 5037 
C 941 5037 774 5043 589 5069 
C 602 4896 614 4698 614 4422 
L 614 3674 
C 614 3398 602 3232 589 3053 
C 768 3072 915 3078 1120 3078 
L 1555 3078 
z
M 992 4691 
L 2304 4691 
L 2304 3418 
L 992 3418 
L 992 4691 
z
M 3565 1517 
L 5210 1517 
C 5402 1517 5542 1510 5734 1498 
C 5722 1626 5722 1722 5722 2035 
L 5722 3046 
C 5722 3270 5722 3392 5741 3565 
C 5594 3546 5434 3539 5184 3539 
L 3565 3539 
L 3565 4659 
L 5395 4659 
C 5645 4659 5824 4646 6022 4621 
L 6022 5075 
C 5824 5043 5645 5030 5382 5030 
L 3738 5030 
C 3462 5030 3309 5037 3136 5050 
C 3155 4890 3168 4672 3168 4429 
L 3168 480 
C 3168 147 3162 -38 3142 -205 
C 3341 -186 3462 -179 3642 -179 
L 5472 -179 
C 5741 -179 5920 -192 6106 -218 
L 6106 237 
C 5920 205 5715 192 5466 192 
L 3565 192 
L 3565 1517 
z
M 3565 1882 
L 3565 3174 
L 5331 3174 
L 5331 1882 
L 3565 1882 
z
" transform="scale(0.015625)"/>
       <path id="HiraginoSansGB-W3-6392" d="M 1517 4019 
L 1517 4634 
C 1517 4915 1530 5101 1555 5299 
L 1075 5299 
C 1101 5101 1114 4902 1114 4634 
L 1114 4019 
L 819 4019 
C 627 4019 512 4026 365 4051 
L 365 3635 
C 518 3661 640 3667 819 3667 
L 1114 3667 
L 1114 2221 
C 678 2054 461 1984 301 1965 
L 410 1542 
C 525 1600 544 1606 666 1651 
C 832 1709 870 1722 1030 1792 
C 1082 1811 1082 1811 1114 1824 
L 1114 83 
C 1114 -38 1082 -64 922 -64 
C 806 -64 666 -51 461 -19 
C 512 -160 538 -243 557 -410 
C 704 -422 800 -429 915 -429 
C 1376 -429 1517 -320 1517 19 
L 1517 2003 
C 1683 2080 1773 2125 2080 2285 
L 2042 2643 
C 1811 2522 1786 2509 1517 2387 
L 1517 3667 
L 1606 3667 
C 1798 3667 1888 3661 2029 3642 
L 2029 4051 
C 1901 4026 1811 4019 1606 4019 
L 1517 4019 
z
M 3245 4262 
L 2643 4262 
C 2400 4262 2285 4269 2144 4294 
L 2144 3866 
C 2291 3891 2413 3898 2643 3898 
L 3245 3898 
L 3245 2842 
L 2701 2842 
C 2470 2842 2355 2848 2214 2874 
L 2214 2458 
C 2355 2483 2483 2490 2701 2490 
L 3245 2490 
L 3245 1395 
L 2426 1395 
C 2182 1395 2061 1402 1920 1427 
L 1920 998 
C 2067 1024 2189 1030 2426 1030 
L 3245 1030 
L 3245 314 
C 3245 -32 3232 -224 3200 -448 
L 3686 -448 
C 3654 -243 3642 -26 3642 314 
L 3642 4634 
C 3642 4960 3654 5133 3680 5293 
L 3213 5293 
C 3232 5094 3245 4877 3245 4614 
L 3245 4262 
z
M 4685 4269 
L 4685 4634 
C 4685 4960 4698 5133 4723 5293 
L 4256 5293 
C 4275 5094 4288 4883 4288 4614 
L 4288 320 
C 4288 -32 4275 -224 4243 -448 
L 4730 -448 
C 4698 -243 4685 -26 4685 320 
L 4685 1037 
L 5594 1037 
C 5798 1037 5984 1024 6150 998 
L 6150 1440 
C 5997 1414 5862 1408 5594 1408 
L 4685 1408 
L 4685 2490 
L 5472 2490 
C 5715 2490 5843 2483 5990 2458 
L 5990 2880 
C 5869 2854 5766 2848 5472 2848 
L 4685 2848 
L 4685 3898 
L 5574 3898 
C 5766 3898 5920 3891 6106 3866 
L 6106 4307 
C 5965 4275 5837 4269 5568 4269 
L 4685 4269 
z
" transform="scale(0.015625)"/>
       <path id="HiraginoSansGB-W3-5f00" d="M 4429 4397 
L 5056 4397 
C 5344 4397 5530 4384 5715 4358 
L 5715 4826 
C 5536 4800 5325 4787 5056 4787 
L 1434 4787 
C 1165 4787 954 4800 781 4826 
L 781 4358 
C 960 4384 1158 4397 1440 4397 
L 2061 4397 
L 2061 2867 
C 2061 2790 2061 2790 2061 2758 
L 1133 2758 
C 858 2758 646 2771 474 2797 
L 474 2330 
C 666 2355 864 2368 1126 2368 
L 2048 2368 
C 2003 1158 1613 582 461 38 
C 582 -70 666 -179 755 -339 
C 1472 45 1843 371 2106 851 
C 2323 1261 2438 1747 2458 2368 
L 4006 2368 
L 4006 422 
C 4006 102 3994 -109 3962 -333 
L 4474 -333 
C 4442 -102 4429 90 4429 429 
L 4429 2368 
L 5344 2368 
C 5619 2368 5830 2355 6010 2330 
L 6010 2797 
C 5837 2771 5626 2758 5344 2758 
L 4429 2758 
L 4429 4397 
z
M 4006 4397 
L 4006 2758 
L 2470 2758 
C 2470 2771 2470 2771 2470 2848 
L 2470 4397 
L 4006 4397 
z
" transform="scale(0.015625)"/>
       <path id="HiraginoSansGB-W3-ff09" d="M 813 -518 
C 1293 32 1491 339 1702 858 
C 1914 1370 2010 1875 2010 2432 
C 2010 2989 1914 3494 1702 4006 
C 1491 4525 1293 4832 813 5382 
L 243 5382 
C 781 4845 992 4550 1216 4058 
C 1446 3546 1562 3014 1562 2432 
C 1562 1850 1446 1318 1216 806 
C 992 314 781 19 243 -518 
L 813 -518 
z
" transform="scale(0.015625)"/>
      </defs>
      <use xlink:href="#HiraginoSansGB-W3-516c" transform="translate(0 0.703125)"/>
      <use xlink:href="#HiraginoSansGB-W3-5e73" transform="translate(99.999985 0.703125)"/>
      <use xlink:href="#HiraginoSansGB-W3-53c2" transform="translate(199.999969 0.703125)"/>
      <use xlink:href="#HiraginoSansGB-W3-6570" transform="translate(299.999954 0.703125)"/>
      <use xlink:href="#HiraginoSansGB-W3-20" transform="translate(399.999939 0.703125)"/>
      <use xlink:href="#Cmmi10-ae" transform="translate(433.299927 0.703125)"/>
      <use xlink:href="#HiraginoSansGB-W3-ff08" transform="translate(497.215942 0.703125)"/>
      <use xlink:href="#HiraginoSansGB-W3-6309" transform="translate(597.215927 0.703125)"/>
      <use xlink:href="#HiraginoSansGB-W3-5bf9" transform="translate(697.215912 0.703125)"/>
      <use xlink:href="#HiraginoSansGB-W3-6570" transform="translate(797.215897 0.703125)"/>
      <use xlink:href="#HiraginoSansGB-W3-7b49" transform="translate(897.215881 0.703125)"/>
      <use xlink:href="#HiraginoSansGB-W3-8ddd" transform="translate(997.215866 0.703125)"/>
      <use xlink:href="#HiraginoSansGB-W3-6392" transform="translate(1097.215851 0.703125)"/>
      <use xlink:href="#HiraginoSansGB-W3-5f00" transform="translate(1197.215836 0.703125)"/>
      <use xlink:href="#HiraginoSansGB-W3-ff09" transform="translate(1297.21582 0.703125)"/>
     </g>
    </g>
   </g>
   <g id="matplotlib.axis_2">
    <g id="ytick_1">
     <g id="line2d_15">
      <path d="M 47.871724 248.17928 
L 492.35976 248.17928 
" clip-path="url(#pbe093f46d0)" style="fill: none; stroke: #e9e3e0; stroke-width: 0.8; stroke-linecap: square"/>
     </g>
     <g id="line2d_16">
      <defs>
       <path id="m88843fa882" d="M 0 0 
L -3 0 
" style="stroke: #5f5552; stroke-width: 0.8"/>
      </defs>
      <g>
       <use xlink:href="#m88843fa882" x="47.871724" y="248.17928" style="fill: #5f5552; stroke: #5f5552; stroke-width: 0.8"/>
      </g>
     </g>
     <g id="text_9">
      <!-- 0.00 -->
      <g style="fill: #5f5552" transform="translate(18.15524 252.200452) scale(0.105 -0.105)">
       <defs>
        <path id="HiraginoSansGB-W3-30" d="M 2099 -58 
C 2688 -58 3136 166 3456 614 
C 3738 1005 3904 1690 3904 2464 
C 3904 2995 3821 3507 3661 3949 
C 3584 4160 3456 4358 3277 4538 
C 2989 4838 2579 4992 2106 4992 
C 1472 4992 979 4723 672 4205 
C 448 3834 301 3142 301 2464 
C 301 1939 384 1434 544 986 
C 621 768 755 570 928 397 
C 1229 96 1626 -58 2099 -58 
z
M 2099 4550 
C 2547 4550 2893 4352 3104 3968 
C 3270 3667 3392 3034 3392 2477 
C 3392 2003 3328 1581 3194 1184 
C 3136 998 3034 832 2893 685 
C 2701 486 2426 384 2106 384 
C 1670 384 1338 570 1114 941 
C 941 1242 813 1869 813 2464 
C 813 2931 877 3366 1011 3757 
C 1062 3917 1165 4077 1299 4224 
C 1504 4442 1766 4550 2099 4550 
z
" transform="scale(0.015625)"/>
        <path id="HiraginoSansGB-W3-2e" d="M 448 672 
L 448 38 
L 1082 38 
L 1082 672 
L 448 672 
z
" transform="scale(0.015625)"/>
       </defs>
       <use xlink:href="#HiraginoSansGB-W3-30"/>
       <use xlink:href="#HiraginoSansGB-W3-2e" x="65.699997"/>
       <use xlink:href="#HiraginoSansGB-W3-30" x="89.699982"/>
       <use xlink:href="#HiraginoSansGB-W3-30" x="155.399979"/>
      </g>
     </g>
    </g>
    <g id="ytick_2">
     <g id="line2d_17">
      <path d="M 47.871724 219.978677 
L 492.35976 219.978677 
" clip-path="url(#pbe093f46d0)" style="fill: none; stroke: #e9e3e0; stroke-width: 0.8; stroke-linecap: square"/>
     </g>
     <g id="line2d_18">
      <g>
       <use xlink:href="#m88843fa882" x="47.871724" y="219.978677" style="fill: #5f5552; stroke: #5f5552; stroke-width: 0.8"/>
      </g>
     </g>
     <g id="text_10">
      <!-- 0.25 -->
      <g style="fill: #5f5552" transform="translate(18.15524 223.999849) scale(0.105 -0.105)">
       <defs>
        <path id="HiraginoSansGB-W3-32" d="M 3027 38 
C 3347 38 3558 26 3814 0 
L 3814 538 
C 3571 506 3354 493 3034 493 
L 992 493 
C 1069 800 1158 973 1357 1235 
C 1568 1504 1773 1683 2278 2022 
C 3008 2509 3174 2630 3366 2848 
C 3616 3123 3744 3430 3744 3757 
C 3744 4512 3123 4998 2157 4998 
C 1594 4998 1158 4832 870 4506 
C 659 4269 563 4045 467 3584 
L 1005 3494 
C 1050 3814 1107 3968 1229 4141 
C 1421 4416 1734 4557 2157 4557 
C 2810 4557 3219 4243 3219 3757 
C 3219 3366 3008 3085 2374 2656 
C 1632 2150 1619 2144 1395 1952 
C 992 1606 723 1254 563 851 
C 467 608 448 512 378 6 
C 582 32 678 38 1082 38 
L 3027 38 
z
" transform="scale(0.015625)"/>
        <path id="HiraginoSansGB-W3-35" d="M 1261 4461 
L 2765 4461 
C 3066 4461 3270 4448 3514 4410 
L 3514 4954 
C 3258 4915 3110 4902 2765 4902 
L 1446 4902 
C 1069 4902 966 4909 768 4934 
C 781 4774 781 4749 781 4659 
C 781 4538 774 4461 762 4275 
L 621 2829 
C 595 2554 576 2419 525 2170 
L 1005 2125 
C 1075 2298 1146 2387 1299 2509 
C 1530 2688 1811 2778 2138 2778 
C 2816 2778 3258 2317 3258 1613 
C 3258 877 2778 390 2061 390 
C 1690 390 1370 525 1152 768 
C 1056 877 1011 960 947 1139 
L 422 986 
C 576 678 666 544 826 384 
C 1133 96 1549 -51 2048 -51 
C 3104 -51 3776 608 3776 1638 
C 3776 2112 3635 2490 3347 2765 
C 3059 3046 2662 3200 2195 3200 
C 1754 3200 1382 3053 1075 2758 
C 1114 2931 1114 2931 1126 3046 
L 1261 4461 
z
" transform="scale(0.015625)"/>
       </defs>
       <use xlink:href="#HiraginoSansGB-W3-30"/>
       <use xlink:href="#HiraginoSansGB-W3-2e" x="65.699997"/>
       <use xlink:href="#HiraginoSansGB-W3-32" x="89.699982"/>
       <use xlink:href="#HiraginoSansGB-W3-35" x="155.399979"/>
      </g>
     </g>
    </g>
    <g id="ytick_3">
     <g id="line2d_19">
      <path d="M 47.871724 191.778075 
L 492.35976 191.778075 
" clip-path="url(#pbe093f46d0)" style="fill: none; stroke: #e9e3e0; stroke-width: 0.8; stroke-linecap: square"/>
     </g>
     <g id="line2d_20">
      <g>
       <use xlink:href="#m88843fa882" x="47.871724" y="191.778075" style="fill: #5f5552; stroke: #5f5552; stroke-width: 0.8"/>
      </g>
     </g>
     <g id="text_11">
      <!-- 0.50 -->
      <g style="fill: #5f5552" transform="translate(18.15524 195.799247) scale(0.105 -0.105)">
       <use xlink:href="#HiraginoSansGB-W3-30"/>
       <use xlink:href="#HiraginoSansGB-W3-2e" x="65.699997"/>
       <use xlink:href="#HiraginoSansGB-W3-35" x="89.699982"/>
       <use xlink:href="#HiraginoSansGB-W3-30" x="155.399979"/>
      </g>
     </g>
    </g>
    <g id="ytick_4">
     <g id="line2d_21">
      <path d="M 47.871724 163.577472 
L 492.35976 163.577472 
" clip-path="url(#pbe093f46d0)" style="fill: none; stroke: #e9e3e0; stroke-width: 0.8; stroke-linecap: square"/>
     </g>
     <g id="line2d_22">
      <g>
       <use xlink:href="#m88843fa882" x="47.871724" y="163.577472" style="fill: #5f5552; stroke: #5f5552; stroke-width: 0.8"/>
      </g>
     </g>
     <g id="text_12">
      <!-- 0.75 -->
      <g style="fill: #5f5552" transform="translate(18.15524 167.598644) scale(0.105 -0.105)">
       <defs>
        <path id="HiraginoSansGB-W3-37" d="M 3789 4934 
C 3565 4909 3424 4902 3046 4902 
L 1126 4902 
C 819 4902 646 4915 397 4947 
L 397 4403 
C 640 4435 819 4448 1120 4448 
L 3200 4448 
C 2630 3674 2355 3232 2048 2592 
C 1651 1773 1478 1197 1274 38 
L 1882 38 
C 1984 781 2054 1107 2221 1638 
C 2470 2419 2739 2963 3315 3853 
C 3565 4237 3674 4378 3789 4467 
L 3789 4934 
z
" transform="scale(0.015625)"/>
       </defs>
       <use xlink:href="#HiraginoSansGB-W3-30"/>
       <use xlink:href="#HiraginoSansGB-W3-2e" x="65.699997"/>
       <use xlink:href="#HiraginoSansGB-W3-37" x="89.699982"/>
       <use xlink:href="#HiraginoSansGB-W3-35" x="155.399979"/>
      </g>
     </g>
    </g>
    <g id="ytick_5">
     <g id="line2d_23">
      <path d="M 47.871724 135.376869 
L 492.35976 135.376869 
" clip-path="url(#pbe093f46d0)" style="fill: none; stroke: #e9e3e0; stroke-width: 0.8; stroke-linecap: square"/>
     </g>
     <g id="line2d_24">
      <g>
       <use xlink:href="#m88843fa882" x="47.871724" y="135.376869" style="fill: #5f5552; stroke: #5f5552; stroke-width: 0.8"/>
      </g>
     </g>
     <g id="text_13">
      <!-- 1.00 -->
      <g style="fill: #5f5552" transform="translate(18.15524 139.398041) scale(0.105 -0.105)">
       <defs>
        <path id="HiraginoSansGB-W3-31" d="M 1030 4429 
C 1216 4454 1382 4467 1587 4467 
L 1933 4467 
L 1933 762 
C 1933 467 1920 262 1882 38 
L 2490 38 
C 2451 275 2438 461 2438 762 
L 2438 3872 
C 2438 4218 2458 4544 2496 4934 
C 2285 4909 2182 4902 1965 4902 
L 1562 4902 
C 1318 4902 1197 4909 1030 4934 
L 1030 4429 
z
" transform="scale(0.015625)"/>
       </defs>
       <use xlink:href="#HiraginoSansGB-W3-31"/>
       <use xlink:href="#HiraginoSansGB-W3-2e" x="65.699997"/>
       <use xlink:href="#HiraginoSansGB-W3-30" x="89.699982"/>
       <use xlink:href="#HiraginoSansGB-W3-30" x="155.399979"/>
      </g>
     </g>
    </g>
    <g id="ytick_6">
     <g id="line2d_25">
      <path d="M 47.871724 107.176267 
L 492.35976 107.176267 
" clip-path="url(#pbe093f46d0)" style="fill: none; stroke: #e9e3e0; stroke-width: 0.8; stroke-linecap: square"/>
     </g>
     <g id="line2d_26">
      <g>
       <use xlink:href="#m88843fa882" x="47.871724" y="107.176267" style="fill: #5f5552; stroke: #5f5552; stroke-width: 0.8"/>
      </g>
     </g>
     <g id="text_14">
      <!-- 1.25 -->
      <g style="fill: #5f5552" transform="translate(18.15524 111.197439) scale(0.105 -0.105)">
       <use xlink:href="#HiraginoSansGB-W3-31"/>
       <use xlink:href="#HiraginoSansGB-W3-2e" x="65.699997"/>
       <use xlink:href="#HiraginoSansGB-W3-32" x="89.699982"/>
       <use xlink:href="#HiraginoSansGB-W3-35" x="155.399979"/>
      </g>
     </g>
    </g>
    <g id="ytick_7">
     <g id="line2d_27">
      <path d="M 47.871724 78.975664 
L 492.35976 78.975664 
" clip-path="url(#pbe093f46d0)" style="fill: none; stroke: #e9e3e0; stroke-width: 0.8; stroke-linecap: square"/>
     </g>
     <g id="line2d_28">
      <g>
       <use xlink:href="#m88843fa882" x="47.871724" y="78.975664" style="fill: #5f5552; stroke: #5f5552; stroke-width: 0.8"/>
      </g>
     </g>
     <g id="text_15">
      <!-- 1.50 -->
      <g style="fill: #5f5552" transform="translate(18.15524 82.996836) scale(0.105 -0.105)">
       <use xlink:href="#HiraginoSansGB-W3-31"/>
       <use xlink:href="#HiraginoSansGB-W3-2e" x="65.699997"/>
       <use xlink:href="#HiraginoSansGB-W3-35" x="89.699982"/>
       <use xlink:href="#HiraginoSansGB-W3-30" x="155.399979"/>
      </g>
     </g>
    </g>
    <g id="ytick_8">
     <g id="line2d_29">
      <path d="M 47.871724 50.775061 
L 492.35976 50.775061 
" clip-path="url(#pbe093f46d0)" style="fill: none; stroke: #e9e3e0; stroke-width: 0.8; stroke-linecap: square"/>
     </g>
     <g id="line2d_30">
      <g>
       <use xlink:href="#m88843fa882" x="47.871724" y="50.775061" style="fill: #5f5552; stroke: #5f5552; stroke-width: 0.8"/>
      </g>
     </g>
     <g id="text_16">
      <!-- 1.75 -->
      <g style="fill: #5f5552" transform="translate(18.15524 54.796233) scale(0.105 -0.105)">
       <use xlink:href="#HiraginoSansGB-W3-31"/>
       <use xlink:href="#HiraginoSansGB-W3-2e" x="65.699997"/>
       <use xlink:href="#HiraginoSansGB-W3-37" x="89.699982"/>
       <use xlink:href="#HiraginoSansGB-W3-35" x="155.399979"/>
      </g>
     </g>
    </g>
    <g id="ytick_9">
     <g id="line2d_31">
      <path d="M 47.871724 22.574459 
L 492.35976 22.574459 
" clip-path="url(#pbe093f46d0)" style="fill: none; stroke: #e9e3e0; stroke-width: 0.8; stroke-linecap: square"/>
     </g>
     <g id="line2d_32">
      <g>
       <use xlink:href="#m88843fa882" x="47.871724" y="22.574459" style="fill: #5f5552; stroke: #5f5552; stroke-width: 0.8"/>
      </g>
     </g>
     <g id="text_17">
      <!-- 2.00 -->
      <g style="fill: #5f5552" transform="translate(18.15524 26.595631) scale(0.105 -0.105)">
       <use xlink:href="#HiraginoSansGB-W3-32"/>
       <use xlink:href="#HiraginoSansGB-W3-2e" x="65.699997"/>
       <use xlink:href="#HiraginoSansGB-W3-30" x="89.699982"/>
       <use xlink:href="#HiraginoSansGB-W3-30" x="155.399979"/>
      </g>
     </g>
    </g>
    <g id="text_18">
     <!-- 速率 -->
     <g style="fill: #2b2321" transform="translate(11.808521 146.876869) rotate(-90) scale(0.115 -0.115)">
      <defs>
       <path id="HiraginoSansGB-W3-901f" d="M 4096 1702 
C 4608 1446 5235 1062 5830 640 
L 6035 966 
C 5440 1376 4947 1651 4096 2048 
L 4096 2202 
L 5101 2202 
C 5402 2202 5562 2195 5715 2176 
C 5696 2349 5690 2490 5690 2778 
L 5690 3194 
C 5690 3462 5696 3597 5715 3770 
C 5530 3744 5357 3738 5114 3738 
L 4096 3738 
L 4096 4275 
L 5472 4275 
C 5734 4275 5850 4269 6016 4237 
L 6016 4672 
C 5850 4640 5728 4634 5434 4634 
L 4096 4634 
L 4096 4858 
C 4096 5037 4109 5171 4134 5312 
L 3680 5312 
C 3706 5184 3718 5018 3718 4845 
L 3718 4634 
L 2592 4634 
C 2285 4634 2150 4640 1984 4672 
L 1984 4237 
C 2138 4269 2278 4275 2560 4275 
L 3718 4275 
L 3718 3738 
L 2835 3738 
C 2579 3738 2406 3744 2214 3770 
C 2234 3571 2240 3418 2240 3162 
L 2240 2765 
C 2240 2515 2234 2368 2214 2176 
C 2381 2195 2541 2202 2829 2202 
L 3565 2202 
C 3379 2003 3290 1920 3142 1798 
C 2739 1472 2406 1274 1869 1043 
C 1990 922 2035 864 2118 710 
C 2579 947 2797 1088 3104 1338 
C 3366 1542 3501 1677 3744 1971 
C 3725 1805 3718 1683 3718 1421 
L 3718 864 
C 3718 659 3706 506 3680 346 
L 4134 346 
C 4109 512 4096 659 4096 864 
L 4096 1702 
z
M 3718 3398 
L 3718 2541 
L 2624 2541 
L 2624 3398 
L 3718 3398 
z
M 4096 3398 
L 5306 3398 
L 5306 2541 
L 4096 2541 
L 4096 3398 
z
M 1645 2221 
C 1645 2509 1651 2688 1677 2867 
C 1517 2842 1402 2835 1197 2835 
L 858 2835 
C 608 2835 506 2842 365 2867 
L 365 2451 
C 512 2477 614 2483 832 2483 
L 1261 2483 
L 1261 838 
C 1178 813 1082 755 909 634 
C 768 531 525 307 243 13 
L 525 -320 
C 851 141 1216 486 1376 486 
C 1427 486 1498 448 1549 390 
C 1690 237 1766 154 1786 134 
C 1888 38 2029 -51 2182 -122 
C 2470 -243 3034 -307 3834 -307 
C 4723 -307 5414 -294 6035 -262 
C 6074 -51 6118 83 6189 205 
C 5843 154 5722 141 5446 128 
C 5024 109 4410 90 4013 90 
C 3258 90 2662 128 2438 186 
C 2170 262 2010 371 1766 646 
C 1709 710 1677 749 1645 774 
L 1645 2221 
z
M 448 4928 
C 864 4525 1101 4256 1440 3757 
L 1766 4045 
C 1408 4512 1171 4774 742 5184 
L 448 4928 
z
" transform="scale(0.015625)"/>
       <path id="HiraginoSansGB-W3-7387" d="M 2848 4448 
C 2714 4224 2637 4109 2477 3910 
C 2298 3680 2202 3610 2016 3546 
L 2099 3226 
C 2202 3232 2202 3232 2317 3251 
C 2490 3270 2490 3270 2726 3283 
C 2861 3290 2970 3302 3200 3322 
C 2835 2906 2630 2701 2419 2534 
C 2182 2355 2093 2310 1862 2253 
L 1939 1914 
C 2080 1926 2080 1926 2246 1952 
C 2643 2016 2720 2022 3078 2054 
C 3558 2099 3558 2099 4102 2163 
C 4179 2054 4224 1971 4371 1722 
L 4691 1971 
C 4512 2246 4205 2630 3802 3059 
L 3507 2835 
C 3693 2675 3757 2611 3885 2464 
C 3552 2413 3437 2400 2714 2336 
C 3078 2669 3270 2861 3437 3066 
C 3962 3699 3962 3699 4173 3949 
L 3834 4154 
C 3648 3885 3552 3750 3482 3661 
C 3277 3642 3277 3642 2989 3616 
C 2790 3597 2790 3597 2630 3578 
C 2906 3885 2906 3885 3302 4448 
L 5427 4448 
C 5677 4448 5875 4435 6061 4416 
L 6061 4858 
C 5882 4832 5683 4819 5395 4819 
L 3437 4819 
C 3283 5101 3270 5114 3059 5382 
L 2720 5222 
C 2816 5107 2893 4998 3002 4819 
L 1069 4819 
C 781 4819 589 4832 403 4858 
L 403 4416 
C 589 4435 794 4448 1037 4448 
L 2848 4448 
z
M 3334 998 
L 5408 998 
C 5677 998 5888 986 6074 960 
L 6074 1414 
C 5901 1389 5670 1370 5440 1370 
L 3334 1370 
L 3334 1472 
C 3334 1658 3341 1773 3360 1888 
L 2899 1888 
C 2918 1766 2925 1651 2925 1478 
L 2925 1370 
L 966 1370 
C 736 1370 486 1389 326 1414 
L 326 960 
C 544 986 723 998 986 998 
L 2925 998 
L 2925 32 
C 2925 -173 2912 -326 2880 -525 
L 3379 -525 
C 3347 -346 3334 -179 3334 32 
L 3334 998 
z
M 634 3942 
C 1030 3642 1171 3501 1523 3078 
L 1818 3347 
C 1510 3686 1293 3885 922 4179 
L 634 3942 
z
M 563 1773 
C 704 1850 736 1869 832 1914 
C 992 1997 1043 2022 1171 2093 
C 1478 2266 1670 2394 2029 2662 
L 1869 2982 
C 1370 2586 864 2310 371 2163 
L 563 1773 
z
M 5293 4205 
C 4973 3834 4717 3603 4282 3322 
L 4550 3059 
C 4979 3360 5261 3603 5594 3962 
L 5293 4205 
z
M 4467 2714 
C 4986 2374 5274 2144 5658 1734 
L 5933 2054 
C 5498 2438 5242 2630 4717 2957 
L 4467 2714 
z
" transform="scale(0.015625)"/>
      </defs>
      <use xlink:href="#HiraginoSansGB-W3-901f"/>
      <use xlink:href="#HiraginoSansGB-W3-7387" x="99.999985"/>
     </g>
    </g>
   </g>
   <g id="patch_3">
    <path d="M 47.871724 248.17928 
L 47.871724 22.574459 
" style="fill: none; stroke: #b9aeab; stroke-width: 0.8; stroke-linejoin: miter; stroke-linecap: square"/>
   </g>
   <g id="patch_4">
    <path d="M 47.871724 248.17928 
L 492.35976 248.17928 
" style="fill: none; stroke: #b9aeab; stroke-width: 0.8; stroke-linejoin: miter; stroke-linecap: square"/>
   </g>
   <g id="line2d_33">
    <path d="M 74.018079 29.229801 
L 139.383967 45.134941 
L 204.749855 60.137661 
L 270.115742 69.274657 
L 335.48163 74.12516 
L 400.847517 76.494011 
L 466.213405 77.734838 
" clip-path="url(#pbe093f46d0)" style="fill: none; stroke: #2f6fd1; stroke-width: 2; stroke-linecap: square"/>
    <defs>
     <path id="m9e8cea10ec" d="M 0 2 
C 0.530406 2 1.03916 1.789267 1.414214 1.414214 
C 1.789267 1.03916 2 0.530406 2 0 
C 2 -0.530406 1.789267 -1.03916 1.414214 -1.414214 
C 1.03916 -1.789267 0.530406 -2 0 -2 
C -0.530406 -2 -1.03916 -1.789267 -1.414214 -1.414214 
C -1.789267 -1.03916 -2 -0.530406 -2 0 
C -2 0.530406 -1.789267 1.03916 -1.414214 1.414214 
C -1.03916 1.789267 -0.530406 2 0 2 
z
" style="stroke: #2f6fd1"/>
    </defs>
    <g clip-path="url(#pbe093f46d0)">
     <use xlink:href="#m9e8cea10ec" x="74.018079" y="29.229801" style="fill: #2f6fd1; stroke: #2f6fd1"/>
     <use xlink:href="#m9e8cea10ec" x="139.383967" y="45.134941" style="fill: #2f6fd1; stroke: #2f6fd1"/>
     <use xlink:href="#m9e8cea10ec" x="204.749855" y="60.137661" style="fill: #2f6fd1; stroke: #2f6fd1"/>
     <use xlink:href="#m9e8cea10ec" x="270.115742" y="69.274657" style="fill: #2f6fd1; stroke: #2f6fd1"/>
     <use xlink:href="#m9e8cea10ec" x="335.48163" y="74.12516" style="fill: #2f6fd1; stroke: #2f6fd1"/>
     <use xlink:href="#m9e8cea10ec" x="400.847517" y="76.494011" style="fill: #2f6fd1; stroke: #2f6fd1"/>
     <use xlink:href="#m9e8cea10ec" x="466.213405" y="77.734838" style="fill: #2f6fd1; stroke: #2f6fd1"/>
    </g>
   </g>
   <g id="line2d_34">
    <path d="M 74.018079 241.523938 
L 139.383967 225.618798 
L 204.749855 210.616077 
L 270.115742 201.479082 
L 335.48163 196.628578 
L 400.847517 194.259728 
L 466.213405 193.018901 
" clip-path="url(#pbe093f46d0)" style="fill: none; stroke: #e0552d; stroke-width: 2; stroke-linecap: square"/>
    <defs>
     <path id="mf165900cb7" d="M 0 2 
C 0.530406 2 1.03916 1.789267 1.414214 1.414214 
C 1.789267 1.03916 2 0.530406 2 0 
C 2 -0.530406 1.789267 -1.03916 1.414214 -1.414214 
C 1.03916 -1.789267 0.530406 -2 0 -2 
C -0.530406 -2 -1.03916 -1.789267 -1.414214 -1.414214 
C -1.789267 -1.03916 -2 -0.530406 -2 0 
C -2 0.530406 -1.789267 1.03916 -1.414214 1.414214 
C -1.03916 1.789267 -0.530406 2 0 2 
z
" style="stroke: #e0552d"/>
    </defs>
    <g clip-path="url(#pbe093f46d0)">
     <use xlink:href="#mf165900cb7" x="74.018079" y="241.523938" style="fill: #e0552d; stroke: #e0552d"/>
     <use xlink:href="#mf165900cb7" x="139.383967" y="225.618798" style="fill: #e0552d; stroke: #e0552d"/>
     <use xlink:href="#mf165900cb7" x="204.749855" y="210.616077" style="fill: #e0552d; stroke: #e0552d"/>
     <use xlink:href="#mf165900cb7" x="270.115742" y="201.479082" style="fill: #e0552d; stroke: #e0552d"/>
     <use xlink:href="#mf165900cb7" x="335.48163" y="196.628578" style="fill: #e0552d; stroke: #e0552d"/>
     <use xlink:href="#mf165900cb7" x="400.847517" y="194.259728" style="fill: #e0552d; stroke: #e0552d"/>
     <use xlink:href="#mf165900cb7" x="466.213405" y="193.018901" style="fill: #e0552d; stroke: #e0552d"/>
    </g>
   </g>
   <g id="line2d_35">
    <path d="M 74.018079 248.17928 
L 139.383967 247.051256 
L 204.749855 237.914261 
L 270.115742 221.106701 
L 335.48163 207.570412 
L 400.847517 199.787046 
L 466.213405 195.838961 
" clip-path="url(#pbe093f46d0)" style="fill: none; stroke: #1f9d55; stroke-width: 2; stroke-linecap: square"/>
    <defs>
     <path id="m123c47e4c5" d="M 0 2 
C 0.530406 2 1.03916 1.789267 1.414214 1.414214 
C 1.789267 1.03916 2 0.530406 2 0 
C 2 -0.530406 1.789267 -1.03916 1.414214 -1.414214 
C 1.03916 -1.789267 0.530406 -2 0 -2 
C -0.530406 -2 -1.03916 -1.789267 -1.414214 -1.414214 
C -1.789267 -1.03916 -2 -0.530406 -2 0 
C -2 0.530406 -1.789267 1.03916 -1.414214 1.414214 
C -1.03916 1.789267 -0.530406 2 0 2 
z
" style="stroke: #1f9d55"/>
    </defs>
    <g clip-path="url(#pbe093f46d0)">
     <use xlink:href="#m123c47e4c5" x="74.018079" y="248.17928" style="fill: #1f9d55; stroke: #1f9d55"/>
     <use xlink:href="#m123c47e4c5" x="139.383967" y="247.051256" style="fill: #1f9d55; stroke: #1f9d55"/>
     <use xlink:href="#m123c47e4c5" x="204.749855" y="237.914261" style="fill: #1f9d55; stroke: #1f9d55"/>
     <use xlink:href="#m123c47e4c5" x="270.115742" y="221.106701" style="fill: #1f9d55; stroke: #1f9d55"/>
     <use xlink:href="#m123c47e4c5" x="335.48163" y="207.570412" style="fill: #1f9d55; stroke: #1f9d55"/>
     <use xlink:href="#m123c47e4c5" x="400.847517" y="199.787046" style="fill: #1f9d55; stroke: #1f9d55"/>
     <use xlink:href="#m123c47e4c5" x="466.213405" y="195.838961" style="fill: #1f9d55; stroke: #1f9d55"/>
    </g>
   </g>
   <g id="text_19">
    <!-- 一长 $n$ 短网络：把 $\alpha$ 从效率拧到公平（$c=1$） -->
    <g style="fill: #2b2321" transform="translate(47.871724 12.574459) scale(0.125 -0.125)">
     <defs>
      <path id="HiraginoSansGB-W3-4e00" d="M 6016 2771 
C 5824 2739 5549 2726 5171 2726 
L 1229 2726 
C 858 2726 582 2739 378 2771 
L 378 2240 
C 582 2272 877 2285 1229 2285 
L 5171 2285 
C 5568 2285 5786 2272 6016 2240 
L 6016 2771 
z
" transform="scale(0.015625)"/>
      <path id="HiraginoSansGB-W3-957f" d="M 3213 2387 
C 3373 1990 3616 1562 3878 1222 
C 4339 608 4896 166 5850 -352 
C 5933 -211 6054 -70 6163 26 
C 5382 378 4941 672 4467 1158 
C 4122 1504 3917 1811 3635 2387 
L 5446 2387 
C 5696 2387 5888 2374 6054 2349 
L 6054 2790 
C 5875 2765 5702 2752 5427 2752 
L 2157 2752 
L 2157 4595 
C 2157 4838 2170 5024 2195 5171 
L 1702 5171 
C 1734 4998 1741 4890 1741 4595 
L 1741 2752 
L 992 2752 
C 723 2752 512 2765 358 2790 
L 358 2349 
C 550 2374 730 2387 992 2387 
L 1741 2387 
L 1747 454 
C 1747 333 1722 160 1696 102 
C 1677 51 1645 19 1568 -45 
L 1709 -410 
C 1901 -346 1907 -339 2202 -262 
C 2733 -122 2733 -122 2976 -58 
C 3450 64 3450 64 3693 128 
L 3731 525 
C 3059 333 2835 275 2157 122 
L 2157 2387 
L 3213 2387 
z
M 5050 4998 
C 4947 4858 4704 4659 4365 4442 
C 3770 4058 3226 3808 2650 3635 
C 2778 3514 2822 3450 2912 3277 
C 3443 3494 3814 3667 4192 3878 
C 4474 4038 4998 4378 5229 4557 
C 5338 4640 5338 4640 5395 4678 
L 5050 4998 
z
" transform="scale(0.015625)"/>
      <path id="Cmmi10-6e" d="M 494 109 
Q 494 147 500 166 
L 978 2075 
Q 1025 2253 1025 2388 
Q 1025 2663 838 2663 
Q 638 2663 541 2423 
Q 444 2184 353 1819 
Q 353 1800 334 1789 
Q 316 1778 300 1778 
L 225 1778 
Q 203 1778 187 1801 
Q 172 1825 172 1844 
Q 241 2122 305 2315 
Q 369 2509 505 2668 
Q 641 2828 844 2828 
Q 1084 2828 1268 2676 
Q 1453 2525 1453 2291 
Q 1644 2541 1900 2684 
Q 2156 2828 2444 2828 
Q 2672 2828 2837 2750 
Q 3003 2672 3095 2514 
Q 3188 2356 3188 2138 
Q 3188 1875 3070 1503 
Q 2953 1131 2778 672 
Q 2688 463 2688 288 
Q 2688 97 2834 97 
Q 3084 97 3251 365 
Q 3419 634 3488 941 
Q 3500 978 3541 978 
L 3616 978 
Q 3641 978 3658 962 
Q 3675 947 3675 922 
Q 3675 916 3669 903 
Q 3581 541 3364 234 
Q 3147 -72 2822 -72 
Q 2597 -72 2437 83 
Q 2278 238 2278 459 
Q 2278 578 2328 709 
Q 2409 919 2514 1209 
Q 2619 1500 2686 1765 
Q 2753 2031 2753 2234 
Q 2753 2413 2679 2538 
Q 2606 2663 2431 2663 
Q 2197 2663 2000 2559 
Q 1803 2456 1656 2286 
Q 1509 2116 1388 1881 
L 953 141 
Q 931 53 854 -9 
Q 778 -72 684 -72 
Q 606 -72 550 -22 
Q 494 28 494 109 
z
" transform="scale(0.015625)"/>
      <path id="HiraginoSansGB-W3-77ed" d="M 1504 4070 
C 1498 3296 1498 3258 1466 2848 
L 870 2848 
C 634 2848 493 2861 326 2886 
L 326 2432 
C 499 2458 659 2470 877 2470 
L 1421 2470 
C 1274 1363 947 730 243 134 
C 371 38 435 -38 531 -186 
C 1107 339 1446 909 1664 1677 
C 1907 1395 2195 992 2522 467 
L 2810 742 
C 2438 1299 2131 1690 1754 2074 
C 1766 2163 1779 2259 1805 2470 
L 2259 2470 
C 2451 2470 2611 2458 2758 2438 
L 2758 2880 
C 2605 2854 2464 2848 2253 2848 
L 1843 2848 
C 1875 3334 1882 3418 1882 4070 
L 2106 4070 
C 2336 4070 2490 4064 2643 4045 
L 2643 4461 
C 2515 4435 2368 4429 2112 4429 
L 1178 4429 
C 1242 4627 1299 4832 1331 4966 
C 1376 5139 1376 5152 1414 5248 
L 992 5338 
C 992 5286 992 5286 979 5190 
C 979 5120 941 4941 902 4794 
C 749 4218 563 3840 224 3398 
C 339 3347 442 3277 563 3162 
C 794 3494 896 3686 1050 4070 
L 1504 4070 
z
M 3091 224 
C 2829 224 2694 230 2515 256 
L 2515 -186 
C 2707 -160 2829 -154 3091 -154 
L 5574 -154 
C 5830 -154 5958 -160 6144 -186 
L 6144 256 
C 5965 230 5837 224 5574 224 
L 4864 224 
C 4998 467 5139 794 5485 1658 
L 5082 1805 
C 4992 1466 4954 1363 4717 794 
C 4608 538 4608 538 4454 224 
L 3091 224 
z
M 2758 4544 
C 2925 4570 3085 4576 3334 4576 
L 5459 4576 
C 5709 4576 5862 4570 6029 4544 
L 6029 4986 
C 5869 4960 5728 4954 5459 4954 
L 3334 4954 
C 3066 4954 2925 4960 2758 4986 
L 2758 4544 
z
M 5664 3418 
C 5664 3622 5670 3731 5690 3898 
C 5530 3878 5376 3872 5133 3872 
L 3539 3872 
C 3296 3872 3142 3878 2982 3898 
C 3002 3731 3008 3603 3008 3418 
L 3008 2426 
C 3008 2240 3002 2118 2982 1952 
C 3149 1971 3302 1978 3526 1978 
L 5139 1978 
C 5370 1978 5523 1971 5690 1952 
C 5670 2118 5664 2227 5664 2426 
L 5664 3418 
z
M 3398 3514 
L 5267 3514 
L 5267 2336 
L 3398 2336 
L 3398 3514 
z
M 4064 595 
C 3891 1107 3782 1344 3507 1792 
L 3162 1645 
C 3443 1197 3565 915 3699 442 
L 4064 595 
z
" transform="scale(0.015625)"/>
      <path id="HiraginoSansGB-W3-7f51" d="M 5210 1389 
C 4947 1798 4794 2016 4576 2291 
C 4531 2349 4525 2362 4499 2394 
C 4621 2848 4698 3277 4806 4154 
L 4384 4211 
C 4333 3533 4288 3206 4192 2778 
C 3846 3187 3718 3328 3354 3693 
L 3066 3462 
C 3482 3046 3802 2688 4070 2336 
C 3910 1818 3763 1510 3494 1101 
C 3328 851 3238 749 3002 531 
C 3155 448 3200 410 3347 262 
C 3661 640 3808 832 3968 1120 
C 4134 1408 4262 1677 4358 1958 
C 4576 1664 4717 1440 4902 1101 
L 5210 1389 
z
M 3398 1459 
C 3110 1894 3059 1958 2669 2464 
C 2803 3014 2854 3315 2963 4224 
L 2554 4262 
C 2515 3648 2470 3296 2368 2822 
C 1920 3360 1920 3360 1600 3667 
L 1325 3437 
C 1709 3072 1824 2938 2266 2394 
C 2022 1587 1728 1114 1133 602 
C 1280 512 1357 448 1466 320 
C 2016 890 2310 1357 2541 2035 
C 2842 1619 2893 1536 3104 1171 
L 3398 1459 
z
M 634 294 
C 634 -6 621 -230 595 -461 
L 1062 -461 
C 1037 -262 1030 -77 1030 294 
L 1030 4653 
L 5427 4653 
L 5427 205 
C 5427 58 5389 38 5114 38 
C 4794 38 4538 58 4128 122 
C 4192 -32 4211 -115 4230 -294 
C 4627 -326 4806 -333 5062 -333 
C 5690 -333 5824 -250 5824 141 
L 5824 4352 
C 5824 4653 5830 4851 5850 5050 
C 5638 5024 5472 5018 5114 5018 
L 1370 5018 
C 998 5018 838 5024 608 5050 
C 627 4838 634 4653 634 4365 
L 634 294 
z
" transform="scale(0.015625)"/>
      <path id="HiraginoSansGB-W3-7edc" d="M 5555 4768 
C 5427 4742 5286 4736 4960 4736 
L 3981 4736 
C 4032 4838 4064 4902 4096 4973 
C 4211 5210 4211 5210 4237 5261 
L 3808 5370 
C 3782 5222 3731 5075 3642 4896 
C 3379 4358 3066 3987 2496 3546 
C 2598 3475 2701 3373 2778 3258 
C 3142 3578 3270 3706 3475 3962 
C 3706 3552 3846 3373 4128 3078 
C 3680 2714 3187 2432 2592 2195 
C 2682 2074 2739 1965 2778 1824 
C 3475 2144 3846 2374 4397 2822 
C 4851 2419 5312 2138 6035 1824 
C 6093 1997 6138 2086 6246 2234 
C 5792 2387 5549 2496 5210 2701 
C 5005 2816 4806 2957 4672 3072 
C 5024 3398 5184 3603 5581 4218 
C 5632 4307 5677 4371 5709 4410 
C 5766 4486 5766 4486 5786 4512 
L 5555 4768 
z
M 5248 4390 
C 4934 3891 4691 3590 4397 3315 
C 4045 3674 3898 3872 3699 4269 
C 3718 4301 3725 4307 3744 4333 
C 3770 4365 3770 4365 3782 4390 
L 5248 4390 
z
M 531 1338 
C 717 1402 1178 1498 1683 1574 
C 2214 1664 2214 1664 2419 1702 
L 2464 2106 
C 2067 2010 1894 1978 1037 1824 
C 1581 2464 2048 3104 2502 3827 
L 2131 4038 
C 1971 3744 1914 3648 1773 3424 
C 1350 3392 1350 3392 934 3360 
C 1165 3738 1408 4205 1632 4710 
C 1670 4800 1670 4800 1843 5178 
L 1427 5344 
C 1254 4832 1050 4326 851 3936 
C 602 3443 544 3360 378 3334 
L 486 2931 
C 666 2995 1062 3053 1510 3078 
C 1530 3078 1536 3078 1555 3085 
C 1434 2886 1434 2886 1005 2317 
C 730 1946 627 1843 525 1811 
C 429 1786 429 1786 403 1773 
L 531 1338 
z
M 3488 -128 
L 5286 -128 
L 5286 -448 
L 5702 -448 
C 5677 -307 5670 -128 5670 205 
L 5670 1370 
C 5670 1690 5670 1773 5690 1926 
C 5549 1914 5446 1914 5171 1914 
L 3603 1914 
C 3328 1914 3238 1914 3085 1926 
C 3104 1760 3104 1670 3104 1370 
L 3104 198 
C 3104 -122 3098 -301 3072 -448 
L 3488 -448 
L 3488 -128 
z
M 3488 1562 
L 5286 1562 
L 5286 224 
L 3488 224 
L 3488 1562 
z
M 2451 915 
C 1978 730 1472 582 890 454 
C 710 416 416 365 352 365 
C 339 365 326 365 314 365 
L 410 -96 
C 461 -77 506 -64 634 -32 
C 1434 173 1594 218 2451 518 
L 2451 915 
z
" transform="scale(0.015625)"/>
      <path id="HiraginoSansGB-W3-ff1a" d="M 1722 3488 
L 1088 3488 
L 1088 2854 
L 1722 2854 
L 1722 3488 
z
M 1722 38 
L 1722 672 
L 1088 672 
L 1088 38 
L 1722 38 
z
" transform="scale(0.015625)"/>
      <path id="HiraginoSansGB-W3-628a" d="M 1594 4045 
L 1594 4659 
C 1594 4928 1606 5094 1638 5299 
L 1146 5299 
C 1178 5088 1190 4928 1190 4653 
L 1190 4045 
L 819 4045 
C 634 4045 499 4058 333 4083 
L 333 3648 
C 499 3667 666 3680 813 3680 
L 1190 3680 
L 1190 2272 
C 634 2061 576 2048 307 2003 
L 435 1574 
C 480 1594 506 1606 531 1613 
C 666 1664 762 1702 832 1728 
C 902 1754 1139 1843 1190 1862 
L 1190 147 
C 1190 0 1152 -26 922 -26 
C 794 -26 621 -13 410 13 
C 467 -147 486 -230 493 -390 
C 672 -397 749 -397 813 -397 
C 1453 -397 1594 -314 1594 51 
L 1594 2029 
C 2061 2234 2061 2234 2298 2355 
L 2298 2746 
C 1939 2566 1805 2509 1677 2458 
C 1626 2438 1626 2438 1594 2426 
L 1594 3680 
L 1824 3680 
C 2010 3680 2106 3674 2253 3654 
L 2253 4077 
C 2125 4051 2035 4045 1824 4045 
L 1594 4045 
z
M 2502 262 
C 2502 -26 2586 -154 2829 -237 
C 3027 -301 3379 -326 4166 -326 
C 5120 -326 5555 -269 5754 -109 
C 5946 45 6022 320 6099 1165 
C 5914 1210 5837 1242 5677 1331 
C 5651 685 5594 358 5491 243 
C 5363 102 5056 58 4211 58 
C 3558 58 3232 70 3091 109 
C 2938 147 2899 205 2899 378 
L 2899 2278 
L 5274 2278 
C 5549 2278 5690 2272 5869 2253 
C 5850 2432 5837 2618 5837 2854 
L 5837 4384 
C 5837 4634 5843 4781 5869 4960 
C 5709 4941 5542 4934 5274 4934 
L 3078 4934 
C 2810 4934 2669 4941 2483 4960 
C 2502 4774 2502 4704 2502 4378 
L 2502 262 
z
M 3968 2643 
L 2899 2643 
L 2899 4570 
L 3968 4570 
L 3968 2643 
z
M 4358 2643 
L 4358 4570 
L 5440 4570 
L 5440 2643 
L 4358 2643 
z
" transform="scale(0.015625)"/>
      <path id="HiraginoSansGB-W3-4ece" d="M 3117 1184 
C 2739 1914 2406 2477 1978 3104 
C 2042 3635 2074 4051 2086 4550 
C 2093 4998 2093 5030 2125 5216 
L 1619 5216 
C 1651 5018 1658 4877 1658 4582 
C 1658 3546 1530 2598 1286 1869 
C 1037 1133 717 589 218 64 
C 365 -51 442 -122 550 -275 
C 979 224 1242 634 1491 1210 
C 1670 1638 1773 1971 1888 2528 
C 2189 2054 2490 1491 2758 890 
L 3117 1184 
z
M 3917 5197 
C 3949 4986 3955 4851 3955 4506 
C 3955 3206 3840 2438 3514 1619 
C 3232 909 2842 384 2285 -51 
C 2451 -173 2528 -243 2624 -365 
C 3053 19 3347 397 3622 909 
C 3917 1466 4064 1958 4179 2752 
C 4358 1843 4531 1389 4902 806 
C 5171 378 5440 64 5850 -307 
C 5946 -166 6048 -51 6182 64 
C 5619 506 5312 877 4973 1530 
C 4550 2355 4384 3123 4384 4314 
C 4384 4768 4397 4986 4422 5197 
L 3917 5197 
z
" transform="scale(0.015625)"/>
      <path id="HiraginoSansGB-W3-6548" d="M 6093 4224 
C 5933 4198 5766 4186 5478 4186 
L 4230 4186 
C 4256 4282 4294 4454 4320 4576 
C 4442 5146 4442 5146 4499 5293 
L 4019 5376 
C 4026 5152 3987 4896 3898 4493 
C 3750 3834 3501 3200 3245 2816 
C 3078 3110 2893 3411 2573 3866 
L 2266 3674 
C 2496 3373 2810 2874 3008 2470 
L 3174 2592 
C 3251 2509 3315 2419 3386 2298 
C 3552 2534 3610 2624 3718 2829 
C 3872 2221 4090 1683 4326 1293 
C 3898 704 3373 288 2586 -83 
C 2720 -205 2784 -288 2861 -442 
C 3629 -19 4147 403 4557 941 
C 4922 422 5344 38 5997 -390 
C 6074 -230 6131 -147 6266 -6 
C 5830 230 5568 422 5267 717 
C 5082 896 4909 1101 4794 1267 
C 5069 1722 5203 2016 5338 2483 
C 5466 2912 5510 3149 5574 3814 
C 5773 3814 5946 3802 6093 3782 
L 6093 4224 
z
M 5178 3814 
L 5152 3565 
C 5114 3206 5069 2950 4979 2630 
C 4864 2246 4755 1984 4557 1638 
C 4282 2150 4102 2662 3955 3366 
C 4019 3520 4038 3578 4122 3814 
L 5178 3814 
z
M 1024 2310 
C 1370 1965 1466 1862 1766 1510 
C 1651 1312 1530 1133 1376 934 
C 1037 499 762 243 269 -102 
C 410 -218 461 -288 550 -448 
C 1222 83 1619 525 2022 1190 
C 2253 896 2419 666 2643 333 
L 2944 646 
C 2643 1056 2592 1114 2227 1562 
C 2330 1766 2406 1946 2554 2355 
C 2624 2541 2637 2579 2682 2662 
L 2278 2822 
C 2176 2387 2157 2330 1958 1882 
C 1939 1901 1933 1907 1901 1946 
C 1747 2118 1613 2259 1293 2579 
L 1024 2310 
z
M 2195 4461 
C 1901 5024 1875 5062 1658 5376 
L 1338 5165 
C 1542 4896 1690 4678 1792 4461 
L 1050 4461 
C 787 4461 621 4474 422 4499 
L 422 4058 
C 614 4083 800 4096 1043 4096 
L 2714 4096 
C 3002 4096 3136 4090 3315 4070 
L 3315 4493 
C 3168 4467 2995 4461 2688 4461 
L 2195 4461 
z
M 1165 3898 
C 1062 3565 992 3418 851 3168 
C 698 2918 595 2784 346 2522 
C 474 2426 557 2342 646 2221 
C 1082 2746 1293 3098 1549 3750 
L 1165 3898 
z
" transform="scale(0.015625)"/>
      <path id="HiraginoSansGB-W3-62e7" d="M 4563 4474 
C 4442 4819 4442 4819 4256 5139 
C 4230 5184 4192 5254 4141 5344 
L 3789 5152 
C 3936 4941 4064 4691 4154 4474 
L 3264 4474 
C 2944 4474 2784 4480 2592 4499 
C 2618 4365 2624 4230 2624 4045 
L 2624 3648 
C 2624 3462 2618 3341 2598 3206 
L 3014 3206 
L 3014 4109 
L 5549 4109 
L 5549 3226 
L 5971 3226 
C 5946 3347 5939 3450 5939 3674 
L 5939 4032 
C 5939 4211 5946 4333 5965 4506 
C 5760 4480 5574 4474 5306 4474 
L 4563 4474 
z
M 4154 2534 
L 4154 166 
C 4154 38 4109 13 3866 13 
C 3610 13 3469 26 3142 70 
C 3187 -77 3213 -186 3226 -358 
C 3469 -371 3629 -378 3827 -378 
C 4192 -378 4320 -352 4435 -269 
C 4538 -198 4576 -90 4576 128 
L 4576 2534 
L 5402 2534 
C 5709 2534 5862 2528 6067 2502 
L 6067 2938 
C 5882 2912 5722 2906 5402 2906 
L 3142 2906 
C 2835 2906 2675 2912 2496 2938 
L 2496 2502 
C 2688 2528 2848 2534 3142 2534 
L 4154 2534 
z
M 1248 3693 
L 1248 2266 
C 685 2048 506 1984 294 1946 
L 422 1510 
C 480 1542 602 1600 755 1658 
C 1197 1837 1197 1837 1248 1862 
L 1248 128 
C 1248 -26 1203 -58 998 -58 
C 832 -58 627 -38 416 -6 
C 474 -160 499 -256 506 -410 
C 691 -422 800 -429 973 -429 
C 1517 -429 1651 -339 1651 26 
L 1651 2042 
C 1965 2189 1965 2189 2336 2362 
L 2330 2758 
C 1862 2528 1862 2528 1651 2432 
L 1651 3693 
L 1837 3693 
C 2022 3693 2157 3686 2330 3667 
L 2330 4083 
C 2182 4058 2035 4051 1850 4051 
L 1651 4051 
L 1651 4672 
C 1651 4915 1664 5126 1696 5312 
L 1203 5312 
C 1235 5107 1248 4902 1248 4666 
L 1248 4051 
L 832 4051 
C 621 4051 474 4064 314 4090 
L 314 3654 
C 544 3686 672 3693 838 3693 
L 1248 3693 
z
" transform="scale(0.015625)"/>
      <path id="HiraginoSansGB-W3-5230" d="M 614 2835 
C 710 2848 755 2854 979 2874 
C 1126 2886 1376 2912 1696 2944 
C 1971 2976 2208 2995 2387 3014 
C 2848 3059 2918 3072 3258 3123 
C 3322 3027 3373 2938 3514 2675 
L 3840 2912 
C 3475 3520 3290 3770 2829 4301 
L 2496 4122 
C 2752 3846 2886 3680 3053 3443 
C 2739 3386 2074 3322 1184 3258 
C 1427 3565 1722 4019 1933 4410 
C 2003 4538 2003 4538 2042 4608 
L 3142 4608 
C 3418 4608 3584 4595 3770 4570 
L 3770 5011 
C 3590 4986 3398 4973 3098 4973 
L 1088 4973 
C 806 4973 621 4986 448 5011 
L 448 4570 
C 621 4595 813 4608 1075 4608 
L 1619 4608 
C 1350 4090 1107 3699 838 3366 
C 762 3264 717 3245 563 3232 
L 614 2835 
z
M 2298 2010 
L 2298 2259 
C 2298 2490 2304 2637 2330 2784 
L 1875 2784 
C 1901 2637 1914 2490 1914 2266 
L 1914 2010 
L 1216 2010 
C 979 2010 794 2022 627 2048 
L 627 1613 
C 800 1638 998 1651 1216 1651 
L 1914 1651 
L 1914 486 
C 1830 467 1792 461 1670 442 
C 1542 422 1408 397 1286 378 
C 774 288 602 269 371 269 
L 467 -192 
C 781 -115 781 -115 1331 -13 
C 2170 147 2752 282 3731 531 
L 3731 909 
C 3206 762 2899 691 2298 563 
L 2298 1651 
L 3091 1651 
C 3328 1651 3488 1645 3654 1619 
L 3654 2042 
C 3501 2016 3341 2010 3078 2010 
L 2298 2010 
z
M 4109 4851 
C 4134 4691 4141 4538 4141 4154 
L 4141 1632 
C 4141 1229 4134 1094 4109 915 
L 4557 915 
C 4531 1088 4531 1203 4531 1632 
L 4531 4154 
C 4531 4512 4538 4691 4563 4851 
L 4109 4851 
z
M 5427 5216 
C 5459 5024 5472 4806 5472 4461 
L 5472 198 
C 5472 32 5427 6 5178 6 
C 4890 6 4678 32 4352 96 
C 4422 -58 4448 -160 4474 -326 
C 4704 -352 4915 -365 5152 -365 
C 5741 -365 5875 -256 5875 211 
L 5875 4442 
C 5875 4800 5888 5043 5914 5216 
L 5427 5216 
z
" transform="scale(0.015625)"/>
      <path id="Cmmi10-63" d="M 750 763 
Q 750 484 892 290 
Q 1034 97 1300 97 
Q 1681 97 2032 272 
Q 2384 447 2606 756 
Q 2625 775 2656 775 
Q 2688 775 2720 739 
Q 2753 703 2753 672 
Q 2753 647 2741 634 
Q 2506 306 2109 117 
Q 1713 -72 1288 -72 
Q 981 -72 747 73 
Q 513 219 384 462 
Q 256 706 256 1013 
Q 256 1444 497 1869 
Q 738 2294 1138 2561 
Q 1538 2828 1978 2828 
Q 2266 2828 2495 2689 
Q 2725 2550 2725 2278 
Q 2725 2103 2623 1979 
Q 2522 1856 2350 1856 
Q 2247 1856 2176 1920 
Q 2106 1984 2106 2088 
Q 2106 2238 2215 2344 
Q 2325 2450 2472 2450 
L 2484 2450 
Q 2409 2559 2267 2611 
Q 2125 2663 1972 2663 
Q 1597 2663 1315 2342 
Q 1034 2022 892 1576 
Q 750 1131 750 763 
z
" transform="scale(0.015625)"/>
      <path id="Cmr10-3d" d="M 481 850 
Q 428 850 393 890 
Q 359 931 359 978 
Q 359 1031 393 1068 
Q 428 1106 481 1106 
L 4500 1106 
Q 4547 1106 4581 1068 
Q 4616 1031 4616 978 
Q 4616 931 4581 890 
Q 4547 850 4500 850 
L 481 850 
z
M 481 2094 
Q 428 2094 393 2131 
Q 359 2169 359 2222 
Q 359 2269 393 2309 
Q 428 2350 481 2350 
L 4500 2350 
Q 4547 2350 4581 2309 
Q 4616 2269 4616 2222 
Q 4616 2169 4581 2131 
Q 4547 2094 4500 2094 
L 481 2094 
z
" transform="scale(0.015625)"/>
     </defs>
     <use xlink:href="#HiraginoSansGB-W3-4e00" transform="translate(0 0.90625)"/>
     <use xlink:href="#HiraginoSansGB-W3-957f" transform="translate(99.999985 0.90625)"/>
     <use xlink:href="#HiraginoSansGB-W3-20" transform="translate(199.999969 0.90625)"/>
     <use xlink:href="#Cmmi10-6e" transform="translate(233.299957 0.90625)"/>
     <use xlink:href="#HiraginoSansGB-W3-20" transform="translate(293.309723 0.90625)"/>
     <use xlink:href="#HiraginoSansGB-W3-77ed" transform="translate(326.609711 0.90625)"/>
     <use xlink:href="#HiraginoSansGB-W3-7f51" transform="translate(426.609695 0.90625)"/>
     <use xlink:href="#HiraginoSansGB-W3-7edc" transform="translate(526.60968 0.90625)"/>
     <use xlink:href="#HiraginoSansGB-W3-ff1a" transform="translate(626.609665 0.90625)"/>
     <use xlink:href="#HiraginoSansGB-W3-628a" transform="translate(726.60965 0.90625)"/>
     <use xlink:href="#HiraginoSansGB-W3-20" transform="translate(826.609634 0.90625)"/>
     <use xlink:href="#Cmmi10-ae" transform="translate(859.909622 0.90625)"/>
     <use xlink:href="#HiraginoSansGB-W3-20" transform="translate(923.825638 0.90625)"/>
     <use xlink:href="#HiraginoSansGB-W3-4ece" transform="translate(957.125626 0.90625)"/>
     <use xlink:href="#HiraginoSansGB-W3-6548" transform="translate(1057.12561 0.90625)"/>
     <use xlink:href="#HiraginoSansGB-W3-7387" transform="translate(1157.125595 0.90625)"/>
     <use xlink:href="#HiraginoSansGB-W3-62e7" transform="translate(1257.12558 0.90625)"/>
     <use xlink:href="#HiraginoSansGB-W3-5230" transform="translate(1357.125565 0.90625)"/>
     <use xlink:href="#HiraginoSansGB-W3-516c" transform="translate(1457.125549 0.90625)"/>
     <use xlink:href="#HiraginoSansGB-W3-5e73" transform="translate(1557.125534 0.90625)"/>
     <use xlink:href="#HiraginoSansGB-W3-ff08" transform="translate(1657.125519 0.90625)"/>
     <use xlink:href="#Cmmi10-63" transform="translate(1757.125504 0.90625)"/>
     <use xlink:href="#Cmr10-3d" transform="translate(1817.896988 0.90625)"/>
     <use xlink:href="#Cmr10-31" transform="translate(1913.141129 0.90625)"/>
     <use xlink:href="#HiraginoSansGB-W3-ff09" transform="translate(1963.141129 0.90625)"/>
    </g>
   </g>
  </g>
  <g id="legend_1">
   <g id="line2d_36">
    <path d="M 44.3475 293.535 
L 53.7975 293.535 
L 63.2475 293.535 
" style="fill: none; stroke: #2f6fd1; stroke-width: 2; stroke-linecap: square"/>
    <g>
     <use xlink:href="#m9e8cea10ec" x="53.7975" y="293.535" style="fill: #2f6fd1; stroke: #2f6fd1"/>
    </g>
   </g>
   <g id="text_20">
    <!-- 总吞吐 $2-x_0^\star$，$n=2$ -->
    <g style="fill: #2b2321" transform="translate(71.6475 297.21) scale(0.105 -0.105)">
     <defs>
      <path id="HiraginoSansGB-W3-603b" d="M 678 -218 
C 1088 339 1248 678 1466 1414 
L 1094 1555 
C 1018 1222 966 1082 813 774 
C 653 454 582 346 333 38 
L 678 -218 
z
M 1990 1613 
C 2022 1389 2029 1280 2029 1024 
L 2029 256 
C 2029 -58 2093 -160 2330 -243 
C 2483 -294 2822 -320 3277 -320 
C 3405 -320 3827 -301 4013 -288 
C 4288 -269 4410 -237 4518 -147 
C 4678 -19 4730 154 4794 800 
C 4595 851 4531 877 4390 954 
C 4371 435 4333 243 4237 173 
C 4115 83 3891 64 3078 64 
C 2822 64 2624 83 2547 109 
C 2458 141 2432 192 2432 333 
L 2432 1024 
C 2432 1325 2438 1414 2470 1613 
L 1990 1613 
z
M 6112 102 
C 5779 762 5587 1069 5178 1606 
L 4845 1434 
C 5280 864 5408 640 5747 -147 
L 6112 102 
z
M 1210 2739 
C 1210 2573 1197 2419 1178 2234 
C 1312 2253 1427 2259 1619 2259 
L 4851 2259 
C 5050 2259 5146 2253 5299 2234 
C 5274 2419 5267 2560 5267 2733 
L 5267 3558 
C 5267 3789 5274 3904 5299 4058 
C 5146 4038 5050 4032 4838 4032 
L 4134 4032 
C 4371 4352 4563 4659 4832 5184 
L 4403 5338 
C 4218 4832 4090 4602 3693 4032 
L 1638 4032 
C 1434 4032 1331 4038 1178 4058 
C 1203 3904 1210 3782 1210 3558 
L 1210 2739 
z
M 1626 3674 
L 4851 3674 
L 4851 2618 
L 1626 2618 
L 1626 3674 
z
M 2630 4326 
C 2406 4736 2336 4832 1952 5312 
L 1581 5126 
C 1939 4723 2054 4550 2259 4134 
L 2630 4326 
z
M 4013 1350 
C 3558 1722 3309 1888 2899 2125 
L 2656 1856 
C 3072 1626 3341 1421 3757 1030 
L 4013 1350 
z
" transform="scale(0.015625)"/>
      <path id="HiraginoSansGB-W3-541e" d="M 2944 4646 
C 2784 4141 2694 3910 2528 3590 
L 1037 3590 
C 755 3590 563 3603 390 3629 
L 390 3194 
C 576 3219 768 3232 1037 3232 
L 2323 3232 
C 1837 2483 1120 1882 230 1478 
C 358 1376 422 1293 518 1139 
C 928 1363 1158 1517 1498 1786 
L 1498 1696 
C 1498 1638 1498 1600 1498 1466 
L 1498 147 
C 1498 -83 1491 -198 1459 -422 
L 1901 -422 
L 1901 -51 
L 4480 -51 
L 4480 -422 
L 4922 -422 
C 4896 -243 4883 -64 4883 147 
L 4883 1715 
C 4883 1734 4883 1741 4883 1760 
C 4883 1766 4883 1779 4883 1798 
C 5235 1549 5517 1389 5971 1184 
C 6061 1370 6112 1440 6227 1562 
C 5632 1779 5222 1997 4768 2349 
C 4410 2630 4173 2874 3898 3232 
L 5376 3232 
C 5658 3232 5811 3226 6022 3194 
L 6022 3629 
C 5843 3603 5670 3590 5376 3590 
L 2970 3590 
C 3123 3910 3206 4128 3366 4646 
L 4838 4646 
C 5094 4646 5274 4634 5478 4608 
L 5478 5043 
C 5312 5018 5126 5005 4838 5005 
L 1574 5005 
C 1280 5005 1101 5018 934 5043 
L 934 4608 
C 1133 4634 1306 4646 1581 4646 
L 2944 4646 
z
M 1837 2074 
C 2227 2432 2522 2803 2778 3232 
L 3462 3232 
C 3770 2778 4083 2438 4525 2074 
L 2214 2074 
L 1837 2074 
z
M 1901 1709 
L 4480 1709 
L 4480 314 
L 1901 314 
L 1901 1709 
z
" transform="scale(0.015625)"/>
      <path id="HiraginoSansGB-W3-5410" d="M 4346 3232 
L 4346 4589 
C 4346 4870 4352 5030 4390 5235 
L 3878 5235 
C 3910 5050 3923 4896 3923 4589 
L 3923 3232 
L 3194 3232 
C 2912 3232 2746 3245 2554 3270 
L 2554 2810 
C 2733 2835 2931 2848 3194 2848 
L 3923 2848 
L 3923 198 
L 2854 198 
C 2541 198 2342 211 2157 237 
L 2157 -230 
C 2387 -198 2592 -186 2854 -186 
L 5363 -186 
C 5626 -186 5830 -198 6067 -230 
L 6067 237 
C 5869 211 5677 198 5363 198 
L 4346 198 
L 4346 2848 
L 5216 2848 
C 5472 2848 5696 2835 5907 2803 
L 5907 3277 
C 5715 3245 5504 3232 5222 3232 
L 4346 3232 
z
M 1011 4762 
C 813 4762 691 4768 518 4787 
C 538 4621 550 4429 550 4166 
L 550 1018 
C 550 723 538 531 512 320 
L 954 320 
L 954 1024 
L 1901 1024 
L 1901 614 
L 2330 614 
C 2310 774 2304 934 2304 1165 
L 2304 4173 
C 2304 4429 2310 4614 2323 4787 
C 2189 4768 2074 4762 1888 4762 
L 1011 4762 
z
M 954 4403 
L 1901 4403 
L 1901 1382 
L 954 1382 
L 954 4403 
z
" transform="scale(0.015625)"/>
      <path id="Cmsy10-a1" d="M 653 1472 
Q 600 1472 565 1512 
Q 531 1553 531 1600 
Q 531 1647 565 1687 
Q 600 1728 653 1728 
L 4325 1728 
Q 4375 1728 4408 1687 
Q 4441 1647 4441 1600 
Q 4441 1553 4408 1512 
Q 4375 1472 4325 1472 
L 653 1472 
z
" transform="scale(0.015625)"/>
      <path id="Cmmi10-78" d="M 500 184 
Q 613 97 819 97 
Q 1019 97 1172 289 
Q 1325 481 1381 709 
L 1672 1844 
Q 1741 2153 1741 2266 
Q 1741 2425 1652 2544 
Q 1563 2663 1403 2663 
Q 1200 2663 1022 2536 
Q 844 2409 722 2214 
Q 600 2019 550 1819 
Q 538 1778 500 1778 
L 422 1778 
Q 372 1778 372 1838 
L 372 1856 
Q 434 2094 584 2320 
Q 734 2547 951 2687 
Q 1169 2828 1416 2828 
Q 1650 2828 1839 2703 
Q 2028 2578 2106 2363 
Q 2216 2559 2386 2693 
Q 2556 2828 2759 2828 
Q 2897 2828 3040 2779 
Q 3184 2731 3275 2631 
Q 3366 2531 3366 2381 
Q 3366 2219 3261 2101 
Q 3156 1984 2994 1984 
Q 2891 1984 2822 2050 
Q 2753 2116 2753 2216 
Q 2753 2350 2845 2451 
Q 2938 2553 3066 2572 
Q 2950 2663 2747 2663 
Q 2541 2663 2389 2472 
Q 2238 2281 2175 2047 
L 1894 916 
Q 1825 659 1825 494 
Q 1825 331 1917 214 
Q 2009 97 2163 97 
Q 2463 97 2698 361 
Q 2934 625 3009 941 
Q 3022 978 3059 978 
L 3138 978 
Q 3163 978 3178 961 
Q 3194 944 3194 922 
Q 3194 916 3188 903 
Q 3097 522 2806 225 
Q 2516 -72 2150 -72 
Q 1916 -72 1727 54 
Q 1538 181 1459 397 
Q 1359 209 1182 68 
Q 1006 -72 806 -72 
Q 669 -72 523 -23 
Q 378 25 287 125 
Q 197 225 197 378 
Q 197 528 301 651 
Q 406 775 563 775 
Q 669 775 741 711 
Q 813 647 813 544 
Q 813 409 723 309 
Q 634 209 500 184 
z
" transform="scale(0.015625)"/>
      <path id="STIXGeneral-Regular-22c6" d="M 4256 2336 
L 2810 1459 
L 3494 -83 
L 2240 1062 
L 986 -83 
L 1670 1459 
L 224 2336 
L 1901 2144 
L 2240 3821 
L 2579 2144 
L 4256 2336 
z
" transform="scale(0.015625)"/>
      <path id="Cmr10-30" d="M 1600 -141 
Q 816 -141 533 504 
Q 250 1150 250 2041 
Q 250 2597 351 3087 
Q 453 3578 754 3920 
Q 1056 4263 1600 4263 
Q 2022 4263 2290 4056 
Q 2559 3850 2700 3523 
Q 2841 3197 2892 2823 
Q 2944 2450 2944 2041 
Q 2944 1491 2842 1011 
Q 2741 531 2444 195 
Q 2147 -141 1600 -141 
z
M 1600 25 
Q 1956 25 2131 390 
Q 2306 756 2347 1200 
Q 2388 1644 2388 2144 
Q 2388 2625 2347 3031 
Q 2306 3438 2132 3767 
Q 1959 4097 1600 4097 
Q 1238 4097 1063 3765 
Q 888 3434 847 3029 
Q 806 2625 806 2144 
Q 806 1788 823 1472 
Q 841 1156 916 820 
Q 991 484 1158 254 
Q 1325 25 1600 25 
z
" transform="scale(0.015625)"/>
      <path id="HiraginoSansGB-W3-ff0c" d="M 1370 691 
L 730 691 
L 730 58 
L 1101 58 
C 1107 -326 1050 -435 794 -550 
L 966 -762 
C 1286 -576 1370 -416 1370 58 
L 1370 691 
z
" transform="scale(0.015625)"/>
     </defs>
     <use xlink:href="#HiraginoSansGB-W3-603b" transform="translate(0 0.59375)"/>
     <use xlink:href="#HiraginoSansGB-W3-541e" transform="translate(99.999985 0.59375)"/>
     <use xlink:href="#HiraginoSansGB-W3-5410" transform="translate(199.999969 0.59375)"/>
     <use xlink:href="#HiraginoSansGB-W3-20" transform="translate(299.999954 0.59375)"/>
     <use xlink:href="#Cmr10-32" transform="translate(333.299942 0.59375)"/>
     <use xlink:href="#Cmsy10-a1" transform="translate(400.858536 0.59375)"/>
     <use xlink:href="#Cmmi10-78" transform="translate(496.102676 0.59375)"/>
     <use xlink:href="#STIXGeneral-Regular-22c6" transform="translate(571.777051 38.857813) scale(0.7)"/>
     <use xlink:href="#Cmr10-30" transform="translate(553.182755 -24.915625) scale(0.7)"/>
     <use xlink:href="#HiraginoSansGB-W3-ff0c" transform="translate(639.4454 0.59375)"/>
     <use xlink:href="#Cmmi10-6e" transform="translate(739.445385 0.59375)"/>
     <use xlink:href="#Cmr10-3d" transform="translate(817.013744 0.59375)"/>
     <use xlink:href="#Cmr10-32" transform="translate(912.257885 0.59375)"/>
    </g>
   </g>
   <g id="line2d_37">
    <path d="M 187.4625 293.535 
L 196.9125 293.535 
L 206.3625 293.535 
" style="fill: none; stroke: #e0552d; stroke-width: 2; stroke-linecap: square"/>
    <g>
     <use xlink:href="#mf165900cb7" x="196.9125" y="293.535" style="fill: #e0552d; stroke: #e0552d"/>
    </g>
   </g>
   <g id="text_21">
    <!-- 长流速率 $x_0^\star$，$n=2$ -->
    <g style="fill: #2b2321" transform="translate(214.7625 297.21) scale(0.105 -0.105)">
     <defs>
      <path id="HiraginoSansGB-W3-6d41" d="M 2176 2861 
C 2464 2886 2464 2886 2765 2912 
C 3123 2931 3123 2931 3981 3002 
C 4653 3053 4877 3072 5210 3123 
C 5350 2963 5421 2867 5619 2592 
L 5958 2835 
C 5523 3366 5171 3725 4704 4109 
L 4397 3910 
C 4659 3693 4749 3610 4922 3437 
C 4256 3366 4166 3360 3782 3328 
C 3053 3277 3053 3277 2797 3258 
C 3136 3565 3334 3808 3699 4339 
L 5344 4339 
C 5619 4339 5805 4326 5965 4307 
L 5965 4723 
C 5798 4698 5632 4691 5338 4691 
L 4192 4691 
C 3974 5062 3942 5114 3763 5357 
L 3437 5165 
C 3565 4998 3629 4896 3750 4691 
L 2554 4691 
C 2259 4691 2099 4698 1946 4723 
L 1946 4307 
C 2112 4326 2285 4339 2554 4339 
L 3232 4339 
C 2906 3853 2822 3750 2515 3443 
C 2451 3379 2445 3373 2387 3315 
C 2310 3270 2266 3258 2112 3238 
L 2176 2861 
z
M 557 4986 
C 986 4685 1229 4448 1555 4045 
L 1824 4365 
C 1498 4730 1242 4960 826 5267 
L 557 4986 
z
M 256 3424 
C 730 3142 973 2944 1363 2541 
L 1606 2886 
C 1184 3277 934 3469 499 3725 
L 256 3424 
z
M 1338 1894 
C 1011 973 678 333 339 6 
L 717 -326 
C 755 -262 774 -224 800 -179 
C 1248 589 1363 838 1677 1645 
L 1338 1894 
z
M 3930 -166 
C 3910 -13 3898 173 3898 422 
L 3898 1965 
C 3898 2182 3904 2330 3930 2509 
L 3462 2509 
C 3488 2362 3501 2189 3501 1965 
L 3501 429 
C 3501 186 3488 6 3462 -166 
L 3930 -166 
z
M 5075 1958 
C 5075 2278 5082 2426 5107 2586 
L 4646 2586 
C 4672 2419 4678 2266 4678 1958 
L 4678 122 
C 4678 -224 4794 -301 5331 -301 
C 6080 -301 6150 -218 6214 794 
C 6067 832 5971 877 5843 960 
C 5837 563 5805 275 5760 173 
C 5722 83 5632 58 5350 58 
C 5101 58 5075 77 5075 243 
L 5075 1958 
z
M 2374 2586 
C 2406 2413 2413 2298 2413 2093 
C 2413 992 2099 390 1293 -83 
C 1446 -179 1510 -237 1626 -390 
C 1978 -147 2157 26 2342 301 
C 2656 774 2784 1242 2803 2022 
C 2816 2400 2816 2438 2842 2586 
L 2374 2586 
z
" transform="scale(0.015625)"/>
     </defs>
     <use xlink:href="#HiraginoSansGB-W3-957f" transform="translate(0 0.90625)"/>
     <use xlink:href="#HiraginoSansGB-W3-6d41" transform="translate(99.999985 0.90625)"/>
     <use xlink:href="#HiraginoSansGB-W3-901f" transform="translate(199.999969 0.90625)"/>
     <use xlink:href="#HiraginoSansGB-W3-7387" transform="translate(299.999954 0.90625)"/>
     <use xlink:href="#HiraginoSansGB-W3-20" transform="translate(399.999939 0.90625)"/>
     <use xlink:href="#Cmmi10-78" transform="translate(433.299927 0.90625)"/>
     <use xlink:href="#STIXGeneral-Regular-22c6" transform="translate(508.974302 39.170313) scale(0.7)"/>
     <use xlink:href="#Cmr10-30" transform="translate(490.380005 -24.603125) scale(0.7)"/>
     <use xlink:href="#HiraginoSansGB-W3-ff0c" transform="translate(576.64265 0.90625)"/>
     <use xlink:href="#Cmmi10-6e" transform="translate(676.642635 0.90625)"/>
     <use xlink:href="#Cmr10-3d" transform="translate(754.210995 0.90625)"/>
     <use xlink:href="#Cmr10-32" transform="translate(849.455135 0.90625)"/>
    </g>
   </g>
   <g id="line2d_38">
    <path d="M 323.9625 293.535 
L 333.4125 293.535 
L 342.8625 293.535 
" style="fill: none; stroke: #1f9d55; stroke-width: 2; stroke-linecap: square"/>
    <g>
     <use xlink:href="#m123c47e4c5" x="333.4125" y="293.535" style="fill: #1f9d55; stroke: #1f9d55"/>
    </g>
   </g>
   <g id="text_22">
    <!-- 长流速率 $x_0^\star$，$n=10$ -->
    <g style="fill: #2b2321" transform="translate(351.2625 297.21) scale(0.105 -0.105)">
     <use xlink:href="#HiraginoSansGB-W3-957f" transform="translate(0 0.90625)"/>
     <use xlink:href="#HiraginoSansGB-W3-6d41" transform="translate(99.999985 0.90625)"/>
     <use xlink:href="#HiraginoSansGB-W3-901f" transform="translate(199.999969 0.90625)"/>
     <use xlink:href="#HiraginoSansGB-W3-7387" transform="translate(299.999954 0.90625)"/>
     <use xlink:href="#HiraginoSansGB-W3-20" transform="translate(399.999939 0.90625)"/>
     <use xlink:href="#Cmmi10-78" transform="translate(433.299927 0.90625)"/>
     <use xlink:href="#STIXGeneral-Regular-22c6" transform="translate(508.974302 39.170313) scale(0.7)"/>
     <use xlink:href="#Cmr10-30" transform="translate(490.380005 -24.603125) scale(0.7)"/>
     <use xlink:href="#HiraginoSansGB-W3-ff0c" transform="translate(576.64265 0.90625)"/>
     <use xlink:href="#Cmmi10-6e" transform="translate(676.642635 0.90625)"/>
     <use xlink:href="#Cmr10-3d" transform="translate(754.210995 0.90625)"/>
     <use xlink:href="#Cmr10-31" transform="translate(849.455135 0.90625)"/>
     <use xlink:href="#Cmr10-30" transform="translate(899.455135 0.90625)"/>
    </g>
   </g>
  </g>
 </g>
 <defs>
  <clipPath id="pbe093f46d0">
   <rect x="47.871724" y="22.574459" width="444.488036" height="225.604821"/>
  </clipPath>
 </defs>
</svg>
